<?xml version="1.0" encoding="UTF-8" standalone="no"?>
<svg
   width="720"
   height="2167"
   version="1.1"
   viewBox="0 0 540 1625.25"
   id="svg458"
   sodipodi:docname="imagenes.svg"
   inkscape:version="1.2.1 (9c6d41e410, 2022-07-14)"
   xmlns:inkscape="http://www.inkscape.org/namespaces/inkscape"
   xmlns:sodipodi="http://sodipodi.sourceforge.net/DTD/sodipodi-0.dtd"
   xmlns:xlink="http://www.w3.org/1999/xlink"
   xmlns="http://www.w3.org/2000/svg"
   xmlns:svg="http://www.w3.org/2000/svg">
  <sodipodi:namedview
     id="namedview460"
     pagecolor="#ffffff"
     bordercolor="#666666"
     borderopacity="1.0"
     inkscape:showpageshadow="2"
     inkscape:pageopacity="0.0"
     inkscape:pagecheckerboard="false"
     inkscape:deskcolor="#d1d1d1"
     inkscape:document-units="px"
     showgrid="true"
     inkscape:zoom="1.4142136"
     inkscape:cx="259.86174"
     inkscape:cy="15.909902"
     inkscape:window-width="1920"
     inkscape:window-height="1001"
     inkscape:window-x="-9"
     inkscape:window-y="-9"
     inkscape:window-maximized="1"
     inkscape:current-layer="svg458"
     showguides="true">
    <inkscape:grid
       type="xygrid"
       id="grid2194"
       spacingx="90"
       spacingy="90"
       originx="0"
       originy="0" />
  </sodipodi:namedview>
  <defs
     id="defs368">
    <linearGradient
       id="linearGradient3632"
       inkscape:swatch="solid">
      <stop
         style="stop-color:#9a5fb7;stop-opacity:1;"
         offset="0"
         id="stop3630" />
    </linearGradient>
    <linearGradient
       inkscape:collect="always"
       id="linearGradient3123">
      <stop
         style="stop-color:#710f7c;stop-opacity:1;"
         offset="0"
         id="stop3119" />
      <stop
         style="stop-color:#000000;stop-opacity:0;"
         offset="1"
         id="stop3121" />
    </linearGradient>
    <radialGradient
       inkscape:collect="always"
       xlink:href="#linearGradient3123"
       id="radialGradient3125"
       cx="46.934212"
       cy="225.92061"
       fx="46.934212"
       fy="225.92061"
       r="39.354259"
       gradientTransform="matrix(1,0,0,1.0336896,0,-7.6111709)"
       gradientUnits="userSpaceOnUse" />
    <linearGradient
       inkscape:collect="always"
       xlink:href="#linearGradient3632"
       id="linearGradient3634"
       x1="7.5799522"
       y1="225.92061"
       x2="86.288471"
       y2="225.92061"
       gradientUnits="userSpaceOnUse" />
  </defs>
  <path
     d="m 44.547727,7.0477269 c -20.69045,0 -37.4999999,16.8095471 -37.4999999,37.5000011 0,20.690449 16.8095499,37.499999 37.4999999,37.499999 20.690454,0 37.500004,-16.80955 37.500004,-37.499999 0,-20.690454 -16.80955,-37.5000011 -37.500004,-37.5000011 z m 0,3.4087861 c 18.847414,0 34.090924,15.24352 34.090924,34.090902 0,18.847404 -15.24351,34.090922 -34.090924,34.090922 -18.84741,0 -34.09093,-15.243518 -34.09093,-34.090922 0,-18.847382 15.24352,-34.090902 34.09093,-34.090902 z"
     fill-rule="evenodd"
     id="circulo"
     style="stroke-width:0.152192" />
  <g
     id="playBoton"
     transform="matrix(0.14333141,0,0,0.14333141,-5.8090791,92.272234)">
    <path
       d="m 390.07,222.6 -9.9766,14.352 c 14.086,9.7109 22.574,25.812 22.574,43.051 0,28.961 -23.625,52.5 -52.676,52.5 -29.051,0 -52.676,-23.539 -52.676,-52.5 0,-17.238 8.3984,-33.25 22.574,-43.051 L 309.9128,222.6 c -18.812,13.039 -30.102,34.477 -30.102,57.398 0,38.586 31.5,70 70.176,70 38.676,0 70.176,-31.414 70.176,-70 0,-22.926 -11.289,-44.449 -30.102,-57.398 z"
       id="path1580" />
    <path
       d="m 341.25,210 h 17.586 v 52.5 H 341.25 Z"
       id="path1582" />
    <path
       d="m 358.93,35.262 1.0508,-17.5 c -6.125,-0.35156 -12.512,-0.35156 -18.637,0 l 1.0508,17.5 c 5.4258,-0.35156 11.023,-0.35156 16.449,0 z"
       id="path1584" />
    <path
       d="m 105.09,280 c 0,-2.8008 0,-5.5117 0.26172,-8.2266 l -17.5,-1.0508 c -0.17578,3.0625 -0.26172,6.125 -0.26172,9.2734 0,3.1484 0.08594,6.2109 0.26172,9.2734 l 17.5,-1.0508 C 105.17594,285.5077 105.09,282.7928 105.09,279.992 Z"
       id="path1586" />
    <path
       d="m 305.11,538.48 c 5.4258,1.0508 11.461,1.9258 18.375,2.625 l 1.8359,-17.414 c -6.3867,-0.61328 -11.812,-1.4883 -16.977,-2.4492 -101.76,-17.586 -181.91,-97.562 -199.59,-199.24 -0.96094,-4.8984 -1.75,-10.324 -2.4492,-16.711 l -17.5,1.8359 c 0.69922,6.9141 1.5742,12.863 2.625,18.113 18.898,108.76 104.82,194.43 213.59,213.24 z"
       id="path1588" />
    <path
       d="m 396.29,21.523 c -5.4258,-1.0508 -11.461,-1.9258 -18.375,-2.625 l -1.8359,17.414 c 6.3867,0.61328 11.812,1.4883 16.977,2.4492 101.76,17.586 181.91,97.562 199.59,199.24 0.96094,4.8984 1.75,10.324 2.4492,16.711 l 17.5,-1.8359 c -0.69922,-6.9141 -1.5742,-12.863 -2.625,-18.113 -18.898,-108.76 -104.82,-194.43 -213.59,-213.24 z"
       id="path1590" />
    <path
       d="m 358.93,524.74 c -5.4258,0.35156 -11.023,0.35156 -16.449,0 l -1.0508,17.5 c 3.0625,0.17578 6.125,0.26172 9.2734,0.26172 3.1484,0 6.2109,-0.0859 9.2734,-0.26172 l -1.0508,-17.5 z"
       id="path1592" />
    <path
       d="m 350.7,78.75 v -17.5 c -118.48,0 -215.34,94.238 -219.1,211.57 -10.324,3.5859 -17.762,13.211 -17.762,24.676 0,14.438 11.812,26.25 26.336,26.25 14.524,0 26.336,-11.812 26.336,-26.25 0,-11.289 -7.2617,-20.914 -17.324,-24.586 3.7617,-107.71 92.75,-194.16 201.6,-194.16 z"
       id="path1594" />
    <path
       d="m 350.7,481.25 v 17.5 c 118.48,0 215.34,-94.238 219.1,-211.57 10.324,-3.5859 17.762,-13.211 17.762,-24.676 0,-14.438 -11.812,-26.25 -26.336,-26.25 -14.523,0 -26.336,11.812 -26.336,26.25 0,11.289 7.2617,20.914 17.324,24.586 -3.7617,107.71 -92.75,194.16 -201.6,194.16 z"
       id="path1596" />
    <path
       d="m 315.61,481.25 h 17.586 v 17.5 H 315.61 Z"
       id="path1598" />
    <path
       d="m 368.2,61.25 h 17.586 v 17.5 H 368.2 Z"
       id="path1600" />
    <path
       d="m 417.46,127.66 c -84.176,-36.75 -182.7,1.6641 -219.54,85.664 -36.836,84 1.6641,182.18 85.926,218.93 21.438,9.3633 44.102,14 66.762,14 20.562,0 41.125,-3.8516 60.812,-11.551 41.477,-16.188 74.113,-47.512 91.961,-88.199 36.836,-84 -1.6641,-182.18 -85.926,-218.93 z m -129.15,17.238 12.863,32.727 c -21.262,10.238 -39.375,26.949 -51.012,48.914 l -32.289,-14.086 c 15.664,-30.711 40.863,-53.988 70.438,-67.551 z m -5.25,267.31 C 252.259,396.544 229.072,371.52 215.509,342.032 l 32.637,-12.773 c 10.238,21.176 27.039,39.199 49,50.926 z m 28.961,-44.188 c -48.738,-21.262 -71.051,-78.137 -49.699,-126.7 15.836,-36.051 51.363,-57.664 88.551,-57.664 12.863,0 25.988,2.625 38.586,8.0508 23.625,10.324 41.824,29.137 51.188,53.113 9.3633,23.977 8.8359,50.051 -1.4883,73.586 -21.352,48.648 -78.312,70.875 -127.14,49.613 z m 101.06,46.727 -12.773,-32.637 c 21.176,-10.238 39.375,-26.863 51.102,-48.824 l 32.023,14 c -15.227,29.926 -39.727,53.375 -70.352,67.375 z m 40.25,-184.27 c -10.5,-21.875 -27.562,-39.551 -49.086,-50.836 l 14.086,-32.023 c 30.801,15.664 53.988,40.688 67.551,70.176 l -32.637,12.773 z"
       id="path1602" />
  </g>
  <ellipse
     style="fill:url(#linearGradient3634);stroke-width:4.275;fill-opacity:1;stroke:url(#radialGradient3125);stroke-dasharray:none"
     id="path2600"
     cx="46.934212"
     cy="225.92061"
     rx="38.979259"
     ry="40.305088" />
  <ellipse
     style="fill:none;fill-opacity:1;stroke-width:4.35;stroke-dasharray:none"
     id="path3794"
     cx="41.100582"
     cy="313.95541"
     rx="29.96365"
     ry="30.228817" />
  <path
     style="fill:none;fill-opacity:1;stroke-width:4.10122;stroke-dasharray:none"
     d="M 48.790368,103.18739 C 28.664088,97.920274 14.599182,80.080358 14.54495,59.750523 14.522829,51.457896 15.565085,46.972826 19.310227,39.244426 24.801881,27.911958 36.23782,18.825877 49.115707,15.563377 c 5.401073,-1.368314 15.161453,-1.368314 20.562525,0 6.349527,1.608597 15.02167,6.168544 19.716435,10.367206 5.448038,4.87234 10.533062,12.741374 12.884763,19.939063 2.68863,8.228959 2.68863,18.825688 0,27.054647 -2.351701,7.197689 -7.436725,15.066724 -12.884763,19.939065 -4.694765,4.198658 -13.366908,8.758602 -19.716435,10.367202 -5.245852,1.32899 -15.727448,1.30733 -20.887864,-0.0432 z"
     id="path4374"
     transform="scale(0.75)" />
  <path
     style="fill:none;fill-opacity:1;stroke-width:4.10122;stroke-dasharray:none"
     d="M 48.790368,103.18739 C 28.664088,97.920274 14.599182,80.080358 14.54495,59.750523 14.522829,51.457896 15.565085,46.972826 19.310227,39.244426 24.801881,27.911958 36.23782,18.825877 49.115707,15.563377 c 5.401073,-1.368314 15.161453,-1.368314 20.562525,0 6.349527,1.608597 15.02167,6.168544 19.716435,10.367206 5.448038,4.87234 10.533062,12.741374 12.884763,19.939063 2.68863,8.228959 2.68863,18.825688 0,27.054647 -2.351701,7.197689 -7.436725,15.066724 -12.884763,19.939065 -4.694765,4.198658 -13.366908,8.758602 -19.716435,10.367202 -5.245852,1.32899 -15.727448,1.30733 -20.887864,-0.0432 z"
     id="path4376"
     transform="scale(0.75)" />
  <path
     style="fill:none;fill-opacity:1;stroke-width:4.10122;stroke-dasharray:none"
     d="M 48.790368,103.18739 C 28.664088,97.920274 14.599182,80.080358 14.54495,59.750523 14.522829,51.457896 15.565085,46.972826 19.310227,39.244426 24.801881,27.911958 36.23782,18.825877 49.115707,15.563377 c 5.401073,-1.368314 15.161453,-1.368314 20.562525,0 6.349527,1.608597 15.02167,6.168544 19.716435,10.367206 5.448038,4.87234 10.533062,12.741374 12.884763,19.939063 2.68863,8.228959 2.68863,18.825688 0,27.054647 -2.351701,7.197689 -7.436725,15.066724 -12.884763,19.939065 -4.694765,4.198658 -13.366908,8.758602 -19.716435,10.367202 -5.245852,1.32899 -15.727448,1.30733 -20.887864,-0.0432 z"
     id="path4378"
     transform="scale(0.75)" />
  <path
     style="fill:none;fill-opacity:1;stroke-width:4.10122;stroke-dasharray:none"
     d="M 48.790368,103.18739 C 28.664088,97.920274 14.599182,80.080358 14.54495,59.750523 14.522829,51.457896 15.565085,46.972826 19.310227,39.244426 24.801881,27.911958 36.23782,18.825877 49.115707,15.563377 c 5.401073,-1.368314 15.161453,-1.368314 20.562525,0 6.349527,1.608597 15.02167,6.168544 19.716435,10.367206 5.448038,4.87234 10.533062,12.741374 12.884763,19.939063 2.68863,8.228959 2.68863,18.825688 0,27.054647 -2.351701,7.197689 -7.436725,15.066724 -12.884763,19.939065 -4.694765,4.198658 -13.366908,8.758602 -19.716435,10.367202 -5.245852,1.32899 -15.727448,1.30733 -20.887864,-0.0432 z"
     id="path4380"
     transform="scale(0.75)" />
  <path
     style="fill:none;fill-opacity:1;stroke-width:4.10122;stroke-dasharray:none"
     d="M 48.790368,103.18739 C 28.664088,97.920274 14.599182,80.080358 14.54495,59.750523 14.522829,51.457896 15.565085,46.972826 19.310227,39.244426 24.801881,27.911958 36.23782,18.825877 49.115707,15.563377 c 5.401073,-1.368314 15.161453,-1.368314 20.562525,0 6.349527,1.608597 15.02167,6.168544 19.716435,10.367206 5.448038,4.87234 10.533062,12.741374 12.884763,19.939063 2.68863,8.228959 2.68863,18.825688 0,27.054647 -2.351701,7.197689 -7.436725,15.066724 -12.884763,19.939065 -4.694765,4.198658 -13.366908,8.758602 -19.716435,10.367202 -5.245852,1.32899 -15.727448,1.30733 -20.887864,-0.0432 z"
     id="path4382"
     transform="scale(0.75)" />
  <path
     style="fill:none;fill-opacity:1;stroke-width:4.10122;stroke-dasharray:none"
     d="M 48.790368,103.18739 C 28.664088,97.920274 14.599182,80.080358 14.54495,59.750523 14.522829,51.457896 15.565085,46.972826 19.310227,39.244426 24.801881,27.911958 36.23782,18.825877 49.115707,15.563377 c 5.401073,-1.368314 15.161453,-1.368314 20.562525,0 6.349527,1.608597 15.02167,6.168544 19.716435,10.367206 5.448038,4.87234 10.533062,12.741374 12.884763,19.939063 2.68863,8.228959 2.68863,18.825688 0,27.054647 -2.351701,7.197689 -7.436725,15.066724 -12.884763,19.939065 -4.694765,4.198658 -13.366908,8.758602 -19.716435,10.367202 -5.245852,1.32899 -15.727448,1.30733 -20.887864,-0.0432 z"
     id="path4384"
     transform="scale(0.75)" />
  <path
     style="fill:none;fill-opacity:1;stroke-width:4.10122;stroke-dasharray:none"
     d="M 48.790368,103.18739 C 28.664088,97.920274 14.599182,80.080358 14.54495,59.750523 14.522829,51.457896 15.565085,46.972826 19.310227,39.244426 24.801881,27.911958 36.23782,18.825877 49.115707,15.563377 c 5.401073,-1.368314 15.161453,-1.368314 20.562525,0 6.349527,1.608597 15.02167,6.168544 19.716435,10.367206 5.448038,4.87234 10.533062,12.741374 12.884763,19.939063 2.68863,8.228959 2.68863,18.825688 0,27.054647 -2.351701,7.197689 -7.436725,15.066724 -12.884763,19.939065 -4.694765,4.198658 -13.366908,8.758602 -19.716435,10.367202 -5.245852,1.32899 -15.727448,1.30733 -20.887864,-0.0432 z"
     id="path4386"
     transform="scale(0.75)" />
  <path
     d="M 36.419706,328.19522 H 23.538999 c -6.043293,0 -10.960048,4.91613 -10.960048,10.96006 v 13.07277 c 0,0.64677 0.524189,1.17158 1.171585,1.17158 h 32.455645 c 0.646782,0 1.171585,-0.52419 1.171585,-1.17158 l -6.28e-4,-13.07341 c 6.28e-4,-6.04266 -4.915498,-10.95942 -10.958158,-10.95942 z m 8.615676,22.86025 h -5.615795 v -10.09024 c 0,-0.64677 -0.524189,-1.17159 -1.171586,-1.17159 -0.646774,0 -1.171584,0.5242 -1.171584,1.17159 v 10.09024 h -14.19268 v -10.09024 c 0,-0.64677 -0.524188,-1.17159 -1.171585,-1.17159 -0.646781,0 -1.171585,0.5242 -1.171585,1.17159 v 10.09024 h -5.616423 l 6.28e-4,-11.90066 c 0,-4.7504 3.864654,-8.61632 8.616309,-8.61632 h 12.881336 c 4.750398,0 8.615046,3.86465 8.615046,8.61632 l -6.29e-4,11.90066 z M 29.894045,326.56313 c 4.353017,0 7.896136,-4.43627 7.896136,-9.88949 0,-5.12428 -3.015809,-8.43512 -7.684203,-8.43512 -4.035272,0 -8.106814,2.60866 -8.106814,8.43512 -0.0013,5.45385 3.541228,9.88949 7.894881,9.88949 z m 0.2119,-15.98024 c 3.344118,0 5.340471,2.2772 5.340471,6.09138 0,4.16033 -2.490391,7.54576 -5.552404,7.54576 -3.062014,0 -5.552404,-3.38543 -5.552404,-7.54576 0,-4.49667 3.105064,-6.09138 5.764337,-6.09138 z M 73.506816,278.40005 H 41.341318 c -2.492282,0 -4.518746,2.02709 -4.518746,4.51875 v 21.34799 c 0,2.49165 2.0271,4.51875 4.518746,4.51875 h 3.538708 l -6.28e-4,6.84341 c 0,0.46938 0.280873,0.89501 0.712679,1.07857 0.148451,0.0628 0.303675,0.0936 0.458906,0.0936 0.297511,0 0.590106,-0.11335 0.812464,-0.32708 l 7.987284,-7.688 18.654665,6.3e-4 c 2.492282,0 4.518752,-2.0271 4.518752,-4.51874 l 6.29e-4,-21.34958 c 0,-2.49166 -2.026628,-4.51875 -4.519381,-4.51875 z m 2.175642,25.86737 c 0,1.19931 -0.975706,2.17502 -2.175014,2.17502 H 54.379716 c -0.303066,0 -0.593796,0.11703 -0.812463,0.32707 l -6.342748,6.10558 6.35e-4,-5.26162 c 0,-0.31107 -0.123196,-0.60921 -0.3431,-0.82787 -0.218667,-0.2199 -0.518043,-0.34311 -0.82787,-0.34311 h -4.709711 c -1.200538,0 -2.175013,-0.9757 -2.175013,-2.175 l -0.0013,-21.34801 c 0,-1.1993 0.975706,-2.175 2.175014,-2.175 h 32.163911 c 1.200538,0 2.175007,0.9757 2.175007,2.175 z M 69.867661,289.6534 c 0,0.64678 -0.524195,1.17158 -1.171585,1.17158 H 46.154367 c -0.646781,0 -1.171591,-0.52419 -1.171591,-1.17158 0,-0.64678 0.524195,-1.17159 1.171591,-1.17159 h 22.541709 c 0.648006,-6.3e-4 1.172201,0.52419 1.172201,1.17159 z m 0,8.41116 c 0,0.64677 -0.524195,1.17158 -1.171585,1.17158 l -22.541708,-6.4e-4 c -0.646782,0 -1.171592,-0.52418 -1.171592,-1.17158 0,-0.64677 0.524195,-1.17159 1.171592,-1.17159 h 22.541708 c 0.648006,6.4e-4 1.172201,0.52482 1.172201,1.17221 z"
     id="Informacion"
     style="stroke-width:0.15769" />
  <g
     id="integrantes"
     transform="matrix(0.3609223,0,0,0.3609223,-59.937819,303.73188)">
    <path
       d="m 334.25605,216.19155 c 0,-22.33266 -19.42131,-40.50285 -43.2917,-40.50285 -23.87039,0 -43.29171,18.17019 -43.29171,40.50285 0,22.33266 19.42132,40.50285 43.29171,40.50285 23.87039,0 43.2917,-18.17019 43.2917,-40.50285 z m -75.28711,0 c 0,-16.50738 14.35656,-29.93668 31.99799,-29.93668 17.644,0 31.99799,13.43172 31.99799,29.93668 0,16.50738 -14.35657,29.93668 -31.99799,29.93668 -17.64401,0 -31.99799,-13.4293 -31.99799,-29.93668 z"
       id="path633"
       style="stroke-width:0.624222" />
    <path
       d="m 215.67207,263.73932 c 15.56919,0 28.23428,-11.8492 28.23428,-26.41543 0,-14.56622 -12.66509,-26.41542 -28.23428,-26.41542 -15.56919,0 -28.23428,11.8492 -28.23428,26.41542 0,14.56623 12.66509,26.41543 28.23428,26.41543 z m 0,-42.26468 c 9.3428,0 16.94057,7.10831 16.94057,15.84925 0,8.74094 -7.59777,15.84926 -16.94057,15.84926 -9.34281,0 -16.94057,-7.10832 -16.94057,-15.84926 0,-8.74094 7.60035,-15.84925 16.94057,-15.84925 z"
       id="path635"
       style="stroke-width:0.624222" />
    <path
       d="m 394.49349,237.32389 c 0,-14.56622 -12.66509,-26.41542 -28.23428,-26.41542 -15.56919,0 -28.23429,11.8492 -28.23429,26.41542 0,14.56623 12.6651,26.41543 28.23429,26.41543 15.56919,0 28.23428,-11.8492 28.23428,-26.41543 z m -45.17485,0 c 0,-8.74094 7.59776,-15.84925 16.94057,-15.84925 9.3428,0 16.94057,7.10831 16.94057,15.84925 0,8.74094 -7.59777,15.84926 -16.94057,15.84926 -9.34281,0 -16.94057,-7.10832 -16.94057,-15.84926 z"
       id="path637"
       style="stroke-width:0.624222" />
    <path
       d="m 366.25921,274.30549 c -2.94947,0 -5.85608,0.33963 -8.63937,1.01417 -3.01755,0.72877 -4.83513,3.61092 -4.05619,6.43631 0.77895,2.82787 3.852,4.51659 6.87949,3.79489 1.86294,-0.45284 3.81921,-0.67926 5.81574,-0.67926 11.54089,0 21.18314,7.53761 23.74713,17.61109 h -6.95757 c -3.11836,0 -5.64686,2.36562 -5.64686,5.28309 0,2.91747 2.5285,5.28309 5.64686,5.28309 h 13.32529 c 3.11836,0 5.64686,-2.36562 5.64686,-5.28309 0,-18.45095 -16.04288,-33.46035 -35.76171,-33.46035 z"
       id="path639"
       style="stroke-width:0.624222" />
    <path
       d="m 336.14049,302.48396 c -23.87039,0 -43.29171,18.17019 -43.29171,40.50285 0,22.33266 19.42132,40.50285 43.29171,40.50285 23.87039,0 43.2917,-18.17019 43.2917,-40.50285 0,-22.33266 -19.42131,-40.50285 -43.2917,-40.50285 z m 0,70.43712 c -17.64401,0 -31.99799,-13.43172 -31.99799,-29.93668 0,-16.50738 14.35656,-29.93668 31.99799,-29.93668 17.644,0 31.99799,13.43172 31.99799,29.93668 0,16.50738 -14.35399,29.93668 -31.99799,29.93668 z"
       id="path641"
       style="stroke-width:0.624222" />
    <path
       d="m 351.19662,337.70252 h -9.41057 v -8.80434 c 0,-2.91747 -2.5285,-5.28308 -5.64685,-5.28308 -3.11836,0 -5.64686,2.36561 -5.64686,5.28308 v 8.80434 h -9.41057 c -3.11835,0 -5.64685,2.36562 -5.64685,5.28309 0,2.91747 2.5285,5.28308 5.64685,5.28308 h 9.41057 v 8.80434 c 0,2.91747 2.5285,5.28308 5.64686,5.28308 3.11835,0 5.64685,-2.36561 5.64685,-5.28308 v -8.80434 h 9.41057 c 3.11836,0 5.64686,-2.36561 5.64686,-5.28308 0,-2.91747 -2.5285,-5.28309 -5.64686,-5.28309 z"
       id="path643"
       style="stroke-width:0.624222" />
    <path
       d="m 185.5598,313.05013 h 20.25318 c 3.11836,0 5.64686,-2.36561 5.64686,-5.28308 0,-2.91747 -2.5285,-5.28309 -5.64686,-5.28309 H 191.9301 c 2.5638,-10.07348 12.20625,-17.61109 23.74713,-17.61109 1.9966,0 3.9528,0.22642 5.81575,0.6769 3.03265,0.72876 6.09809,-0.96701 6.87948,-3.79488 0.77894,-2.82316 -1.03612,-5.70525 -4.05618,-6.43631 -2.78561,-0.67219 -5.69223,-1.01182 -8.64195,-1.01182 -19.71883,0 -35.76429,15.0094 -35.76429,33.46035 0.003,2.91511 2.53102,5.28308 5.64938,5.28308 z"
       id="path645"
       style="stroke-width:0.624222" />
    <path
       d="m 219.02791,322.20949 c -1.01843,4.66047 0.24958,9.45522 3.47886,13.15338 3.24949,3.72883 8.06177,5.86326 13.19686,5.86326 H 276.361 c 3.11835,0 5.64685,-2.36562 5.64685,-5.28309 0,-2.91747 -2.5285,-5.28308 -5.64685,-5.28308 h -40.65737 c -3.51415,0 -6.31744,-3.09909 -5.60904,-6.33971 5.88132,-26.93649 31.48365,-46.49115 60.87247,-46.49115 14.20297,0 28.04003,4.60148 38.96072,12.96258 2.42009,1.84672 5.97457,1.51416 7.9482,-0.74295 1.97388,-2.25947 1.61842,-5.58969 -0.79411,-7.43617 -12.93743,-9.89658 -29.31332,-15.34933 -46.11514,-15.34933 -34.73042,0 -64.98724,23.10671 -71.93772,54.94651 z"
       id="path647"
       style="stroke-width:0.624222" />
  </g>
  <g
     id="botonAtras"
     transform="matrix(0.08461303,0,0,0.08461303,15.457784,472.16498)">
    <path
       d="M 538.16,91.84 C 488.262,41.992 420.61,14 350.07,14.024 279.539,14.047437 211.9,42.083 162.03,91.962 c -49.863,49.883 -77.879,117.53 -77.879,188.06 0,70.531 28.016,138.18 77.879,188.06 49.867,49.883 117.5,77.918 188.04,77.941 70.535,0.0234 138.19,-27.969 188.09,-77.82 49.836,-49.945 77.824,-117.62 77.824,-188.18 0,-70.559 -27.988,-138.23 -77.824,-188.18 z m -9.7539,366.57 c -47.309,47.266 -111.45,73.805 -178.32,73.781 -66.871,-0.0195 -131,-26.598 -178.27,-73.891 -47.27,-47.293 -73.836,-111.43 -73.836,-178.3 0,-66.87 26.559,-131.01 73.836,-178.3 47.277,-47.29 111.4,-73.871 178.27,-73.891 66.875,-0.01953 131.02,26.52 178.32,73.781 47.242,47.359 73.773,111.52 73.773,178.41 0,66.89 -26.531,131.05 -73.773,178.41 z"
       id="path243" />
    <path
       d="M 494.19,273.09 H 222.5 l 84.324,-84.324 c 2.6992,-2.6992 2.6992,-7.0742 0.004,-9.7773 -2.6992,-2.6992 -7.0742,-2.6992 -9.7773,0 l -96.129,96.121 c -0.0508,0.0508 -0.0625,0.125 -0.11328,0.17188 v 0.004 c -1.2266,1.2617 -1.9141,2.9531 -1.9062,4.7148 0,0.90234 0.18359,1.793 0.53125,2.625 0.34766,0.83984 0.85547,1.5977 1.4961,2.2422 l 96.121,96.152 c 1.293,1.3203 3.0586,2.0742 4.9062,2.0859 1.8477,0.0117 3.6211,-0.71875 4.9297,-2.0234 1.3047,-1.3086 2.0352,-3.082 2.0234,-4.9297 -0.0117,-1.8516 -0.76172,-3.6172 -2.0859,-4.9062 l -84.324,-84.336 h 271.69 c 3.8164,0 6.9102,-3.0938 6.9102,-6.9102 0,-3.8164 -3.0938,-6.9102 -6.9102,-6.9102 z"
       id="path245" />
  </g>
  <g
     id="botonJuego3"
     transform="matrix(0.20920173,0,0,0.20920173,-19.657,531.57007)">
    <g
       id="botonJuego1"
       transform="matrix(0.55555557,0,0,0.55555557,111.73906,88.954499)">
      <path
         d="m 246.8,142.8 c -13.195,0 -24.156,10.18 -25.133,23.336 l -16.086,217.16 c -0.0781,1.0312 -0.11328,2.0664 -0.11328,3.1016 0,23.199 18.805,42 42,42 h 205.05 c 1.0352,0 2.0703,-0.0352 3.1055,-0.11328 23.133,-1.7148 40.496,-21.855 38.781,-44.988 l -16.086,-217.16 c -0.97656,-13.156 -11.938,-23.336 -25.133,-23.336 z m 0,-16.801 h 206.39 c 21.992,0 40.262,16.965 41.887,38.898 l 16.086,217.16 c 2.3984,32.387 -21.91,60.586 -54.297,62.984 -1.4453,0.10547 -2.8945,0.16016 -4.3438,0.16016 h -205.05 c -32.477,0 -58.801,-26.324 -58.801,-58.801 0,-1.4492 0.0547,-2.8984 0.16016,-4.3438 l 16.086,-217.16 c 1.625,-21.934 19.895,-38.898 41.887,-38.898 z"
         id="path1103" />
      <path
         d="m 233.18,292.3 -29.883,83.676 -5.2773,-1.8867 29.887,-83.672 z"
         fill-rule="evenodd"
         id="path1105" />
      <path
         d="m 274.82,140 c -14.516,0 -26.625,11.094 -27.895,25.555 l -11.773,134.4 c -0.0703,0.8125 -0.10547,1.6289 -0.10547,2.4414 0,15.465 12.535,28 28,28 h 173.91 c 0.81641,0 1.6328,-0.0352 2.4453,-0.10547 15.406,-1.3477 26.801,-14.93 25.449,-30.336 l -11.773,-134.4 c -1.2656,-14.461 -13.375,-25.555 -27.895,-25.555 z m 0,-11.199 h 150.37 c 20.324,0 37.277,15.531 39.051,35.777 l 11.773,134.4 c 1.8906,21.566 -14.062,40.582 -35.629,42.469 -1.1367,0.10156 -2.2773,0.15234 -3.4219,0.15234 h -173.91 c -21.652,0 -39.199,-17.551 -39.199,-39.203 0,-1.1406 0.0469,-2.2812 0.14844,-3.418 l 11.773,-134.4 c 1.7734,-20.246 18.727,-35.777 39.051,-35.777 z"
         id="path1107" />
      <path
         d="m 459.47,418.57 38.93,-38.934 3.9609,3.9609 -41.762,41.758 1.8242,10.941 -5.5234,0.92188 -1.1641,-6.9961 -5.0156,5.0156 -3.9609,-3.9609 7.8438,-7.8438 -1.2695,-7.6094 -19.395,19.391 -3.957,-3.957 22.223,-22.223 -1.2695,-7.6133 -33.785,33.785 -3.957,-3.9609 36.609,-36.609 -1.2695,-7.6133 -48.172,48.172 -3.9609,-3.957 51.004,-51.004 -1.2695,-7.6094 -62.57,62.566 -3.957,-3.9609 65.395,-65.395 -1.2656,-7.6133 -82.566,82.562 -3.957,-3.957 85.391,-85.395 -1.2695,-7.6094 -99.855,99.852 -3.957,-3.957 102.68,-102.68 -1.0234,-6.1406 5.5234,-0.92188 0.36328,2.1953 0.17188,-0.16797 3.9609,3.957 -3,3 1.2695,7.6133 28.539,-28.543 -2.3359,-6.543 -3.2734,3.2734 -3.957,-3.9609 5.1484,-5.1484 -3.6133,-10.117 -1.5352,-1.5352 0.72656,-0.72656 -0.34766,-0.96875 2.0469,-0.73047 21.289,-21.289 3.957,3.9609 -20.48,20.48 2.3359,6.543 14.188,-14.184 3.957,3.957 -16.059,16.062 2.3359,6.543 9.7656,-9.7617 3.957,3.957 -11.637,11.641 2.3359,6.543 7.9883,-7.9883 3.9609,3.9609 -9.8672,9.8633 2.3398,6.543 6.457,-6.4609 3.9609,3.9609 -8.3359,8.3359 2.3359,6.543 2.0391,-2.0391 3.9609,3.9609 -3.9141,3.9141 2.3359,6.543 0.32422,-0.32422 3.9609,3.9609 -2.1992,2.1992 1.8203,5.0938 -5.2773,1.8867 -0.92578,-2.5977 -37.578,37.578 z m -2.4023,-14.402 36.629,-36.625 -2.3398,-6.543 -35.559,35.559 z m 32.207,-49.004 -2.3398,-6.543 -33.535,33.535 1.2695,7.6133 z m -37.008,20.203 32.586,-32.582 -2.3359,-6.543 -31.516,31.516 z m 28.164,-44.961 -2.3359,-6.543 -29.496,29.492 1.2695,7.6133 z m -223.11,21.512 19.922,-19.918 3.9609,3.957 -25.465,25.465 -1.7773,10.656 40.082,-40.078 3.957,3.957 -45.621,45.625 -1.7773,10.656 58.262,-58.262 c 1.0938,-1.0898 2.8633,-1.0898 3.957,0 1.0938,1.0938 1.0938,2.8672 0,3.9609 l -63.801,63.805 -1.7773,10.656 78.418,-78.422 c 1.0938,-1.0898 2.8672,-1.0898 3.9609,0 1.0938,1.0938 1.0938,2.8672 0,3.9609 l -83.961,83.965 -1.7773,10.656 100.56,-100.56 3.9609,3.957 -107.72,107.72 -3.9609,-3.957 3.0547,-3.0547 -2.1953,-0.36719 6.0547,-36.328 c 0.004,-0.0234 0.008,-0.0469 0.0117,-0.0703 l 11.652,-69.926 5.5234,0.92188 z m 201.88,-193.96 -3.9609,-3.9609 20.762,-20.762 3.9609,3.9609 z m 0,16.801 -3.9609,-3.9609 23.762,-23.758 3.957,3.957 z m 0,16.797 -3.9609,-3.957 29.316,-29.316 3.9609,3.9609 z m 5.6016,11.203 -3.9609,-3.9609 23.715,-23.715 3.9609,3.957 z m 0,16.797 -3.9609,-3.957 23.715,-23.715 3.9609,3.957 z m 0,16.801 -3.9609,-3.9609 23.715,-23.715 3.9609,3.9609 z m 0,16.801 -3.9609,-3.9609 29.316,-29.312 3.957,3.957 z m 5.5977,11.199 -3.957,-3.9609 23.715,-23.715 3.957,3.9609 z m 0,16.801 -3.957,-3.9609 23.715,-23.715 3.957,3.9609 z m -41.961,50.844 3.9609,3.957 -107.72,107.72 -3.9609,-3.957 z m -16.801,0 3.9609,3.957 -107.72,107.72 -3.9609,-3.957 z m -16.801,0 3.9609,3.957 -107.72,107.72 -3.9609,-3.957 z m -16.797,0 3.957,3.957 -107.72,107.72 -3.957,-3.957 z m -16.801,0 3.9609,3.957 -107.72,107.72 -3.957,-3.957 z"
         id="path1109" />
    </g>
  </g>
  <g
     id="botonJuego2"
     transform="matrix(0.07679336,0,0,0.07679336,21.439073,658.23829)">
    <path
       d="m 549.32,260.28 c -0.0117,0.0156 -0.0117,0.043 -0.0273,0.0625 l -19.719,27.441 c -0.0625,0.0898 -0.16406,0.125 -0.23437,0.20312 -0.11719,0.12891 -0.20703,0.28516 -0.35156,0.39844 l -31.359,23.645 c -0.0547,0.043 -0.125,0.0234 -0.17969,0.0625 -0.125,0.0859 -0.22266,0.20312 -0.37109,0.26172 l -40.918,18.129 c -0.0781,0.0352 -0.15625,0.0234 -0.24219,0.0547 -0.0859,0.0273 -0.15234,0.0898 -0.24219,0.11328 l -47.656,11.391 c -0.11328,0.0273 -0.22266,0.0273 -0.33594,0.0391 -0.0391,0.004 -0.0664,0.0273 -0.10547,0.0352 l -51.207,3.9141 c -0.0742,0.0117 -0.14063,0.0117 -0.20703,0.0117 v -0.008 h -0.004 c -0.0664,0 -0.13281,0 -0.20703,-0.0117 l -51.207,-3.9141 c -0.0391,-0.004 -0.0664,-0.0273 -0.10547,-0.0351 -0.11328,-0.0117 -0.22266,-0.0117 -0.33594,-0.0391 l -47.527,-11.391 c -0.0898,-0.0234 -0.15625,-0.0898 -0.24219,-0.11719 -0.0781,-0.0273 -0.16406,-0.0156 -0.23438,-0.0508 l -40.918,-18.129 c -0.14453,-0.0625 -0.24219,-0.17969 -0.37109,-0.26172 -0.0547,-0.0391 -0.125,-0.0156 -0.17969,-0.0625 l -31.359,-23.645 c -0.14453,-0.11719 -0.23438,-0.26953 -0.35156,-0.39844 -0.0664,-0.0781 -0.16797,-0.11328 -0.23047,-0.19531 l -19.848,-27.441 c -0.0156,-0.0234 -0.0156,-0.0508 -0.0352,-0.0742 -0.16797,-0.24609 -0.29297,-0.52734 -0.375,-0.82812 -0.0117,-0.043 -0.0391,-0.0859 -0.0508,-0.125 v -0.004 l -1.0859,-4.8438 v 11.027 l 6.4219,28.656 19.266,26.629 30.766,23.199 40.383,17.891 47.074,11.289 50.758,3.8906 50.766,-3.8789 47.195,-11.285 40.387,-17.898 30.754,-23.191 19.145,-26.641 6.5391,-28.66 v -11.465 l -1.2031,5.2812 c -0.004,0.0273 -0.0273,0.0508 -0.0352,0.0781 -0.0781,0.33203 -0.21094,0.625 -0.39062,0.89062 z"
       id="path1363" />
    <path
       d="m 167.91,200.83 -6.3555,28.359 6.3555,28.34 19.266,26.641 30.758,23.195 40.391,17.883 47.07,11.293 50.766,3.8789 50.766,-3.8789 47.195,-11.285 40.387,-17.891 30.754,-23.195 19.148,-26.645 6.4688,-28.336 -6.4688,-28.355 -19.148,-26.762 -27.715,-20.934 -3.0273,-2.25 -40.398,-17.898 -47.195,-11.277 -50.766,-3.8867 -50.766,3.8867 -47.07,11.285 -40.422,17.902 -3.125,2.2383 h -0.008 l -27.594,20.938 z"
       id="path1365" />
    <path
       d="m 597.52,303.31 c 0,0 0,0.004 -0.004,0.0117 -0.0859,0.34766 -0.23438,0.65625 -0.42188,0.94141 -0.0156,0.0234 -0.0156,0.043 -0.0351,0.0625 l -24.742,34.418 c -0.0547,0.0859 -0.15234,0.11719 -0.21875,0.19141 -0.11719,0.13281 -0.21094,0.29688 -0.36328,0.41016 l -39.199,29.52 c -0.0547,0.0391 -0.125,0.0273 -0.17969,0.0625 -0.12891,0.0898 -0.23047,0.19531 -0.37109,0.26172 l -51.211,22.664 c -0.0781,0.0352 -0.15625,0.0234 -0.23438,0.0508 -0.0899,0.0273 -0.15234,0.0937 -0.24609,0.11719 l -59.531,14.203 c -0.11328,0.0273 -0.22266,0.0273 -0.33594,0.0391 -0.0391,0.004 -0.0664,0.0274 -0.10547,0.0352 l -63.945,4.8984 c -0.0742,0 -0.14062,0.004 -0.20703,0.004 l -0.004,0.004 h -0.004 c -0.0664,0 -0.13281,-0.004 -0.20703,-0.004 l -63.945,-4.8984 c -0.0391,-0.004 -0.0664,-0.0274 -0.10547,-0.0352 -0.11328,-0.0117 -0.22266,-0.0117 -0.33594,-0.0391 l -59.535,-14.211 c -0.0937,-0.0234 -0.15625,-0.0898 -0.24609,-0.11719 -0.0781,-0.0273 -0.15625,-0.0156 -0.23438,-0.0508 l -51.207,-22.664 c -0.14453,-0.0664 -0.24219,-0.17188 -0.37109,-0.26173 -0.0547,-0.0352 -0.125,-0.0234 -0.17969,-0.0625 l -39.199,-29.51999 c -0.15234,-0.11719 -0.24609,-0.28125 -0.36328,-0.41017 -0.0664,-0.0781 -0.16797,-0.11327 -0.23047,-0.19531 l -24.625,-34.418 c -0.0117,-0.0234 -0.0117,-0.0469 -0.0273,-0.0625 -0.19141,-0.28125 -0.33984,-0.59375 -0.42578,-0.94531 0,-0.004 0,-0.0117 -0.004,-0.0156 l -2.9141,-12.727 v 15.238 l 8.2539,36.133 24.047,33.492 38.605,29.07 50.656,22.422 59.09,14.23 63.508,4.7383 63.504,-4.7383 59.09,-14.23 50.66399,-22.422 38.617,-29.074 24.148,-33.48 8.1406,-36.137 v -14.895 l -2.8086,12.395 v 0 z"
       id="path1367" />
    <path
       d="m 144.3,335.12 38.605,29.07 50.664,22.422 59.078,14.113 63.508,4.8672 63.508,-4.8672 59.078,-14.113 50.668,-22.422 38.613,-29.07 24.152,-33.609 8.0703,-35.707 -8.0703,-35.695 -24.16,-33.621 -38.605,-29.07 -8.9531,-3.9883 8.5195,6.4336 c 0.11328,0.0859 0.17188,0.20703 0.26953,0.30859 0.10547,0.10547 0.23438,0.17188 0.32422,0.29688 l 19.719,27.562 c 0.22266,0.32031 0.37109,0.66797 0.45312,1.0234 l 6.7305,29.508 c 0.004,0.0234 0,0.043 0,0.0664 0.0234,0.10547 0.0117,0.20703 0.0234,0.3125 0.0117,0.0859 0.0508,0.15625 0.0508,0.24219 v 36.625 c 0,0.11328 -0.0508,0.20703 -0.0625,0.3125 -0.0156,0.10547 0.0117,0.20703 -0.0117,0.30859 l -6.7305,29.512 c -0.004,0.0273 -0.0273,0.0547 -0.0352,0.0859 -0.0859,0.33203 -0.21875,0.61719 -0.39844,0.87891 -0.0117,0.0234 -0.0117,0.043 -0.0273,0.0664 l -19.723,27.434 c -0.0547,0.0898 -0.15234,0.11719 -0.21875,0.19141 -0.125,0.13281 -0.21094,0.29688 -0.36328,0.41016 l -31.359,23.645 c -0.0547,0.0391 -0.125,0.0273 -0.17969,0.0625 -0.125,0.0898 -0.22266,0.19531 -0.37109,0.26172 l -40.918,18.133 c -0.0781,0.0352 -0.15625,0.0234 -0.24219,0.0547 -0.0859,0.0273 -0.15234,0.0898 -0.24219,0.11328 l -47.656,11.391 c -0.11328,0.0273 -0.22266,0.0273 -0.33594,0.0391 -0.0391,0.004 -0.0664,0.0273 -0.10547,0.0352 l -51.207,3.9141 c -0.0742,0.0117 -0.14062,0.0117 -0.20703,0.0117 h 0.004 -0.004 c -0.0664,0 -0.13281,0 -0.20703,-0.0117 l -51.207,-3.9141 c -0.0391,-0.004 -0.0664,-0.0273 -0.10547,-0.0352 -0.11328,-0.0117 -0.22266,-0.0117 -0.33594,-0.0391 l -47.527,-11.391 c -0.0898,-0.0234 -0.15625,-0.0899 -0.24219,-0.11719 -0.0781,-0.0273 -0.16406,-0.0156 -0.23438,-0.0508 l -40.918,-18.133 c -0.14453,-0.0664 -0.24219,-0.17188 -0.37109,-0.26172 -0.0547,-0.0352 -0.125,-0.0234 -0.17969,-0.0625 l -31.359,-23.645 c -0.14453,-0.11328 -0.23438,-0.26953 -0.35156,-0.40234 -0.0742,-0.0781 -0.16797,-0.11328 -0.23047,-0.19141 l -19.848,-27.434 c -0.0156,-0.0234 -0.0156,-0.0508 -0.0352,-0.0742 -0.16797,-0.24609 -0.29297,-0.52734 -0.375,-0.82422 -0.0117,-0.043 -0.0391,-0.0899 -0.0508,-0.125 v -0.004 l -6.6211,-29.523 c -0.0234,-0.10547 0,-0.20312 -0.004,-0.30859 -0.0117,-0.10547 -0.0625,-0.19531 -0.0625,-0.30859 v -36.625 c 0,-0.0898 0.0391,-0.16406 0.0508,-0.24609 0.0117,-0.10547 0,-0.21094 0.0156,-0.3125 0.004,-0.0156 0,-0.0352 0,-0.0547 l 6.6211,-29.523 c 0.0781,-0.35938 0.23047,-0.70703 0.46094,-1.0195 l 19.848,-27.562 c 0.0859,-0.11719 0.20703,-0.17969 0.30078,-0.28125 0.10156,-0.10156 0.16406,-0.23047 0.28125,-0.3125 l 8.6016,-6.5234 -9.1523,4.0781 -38.605,29.07 -24.051,33.621 -8.1797,35.695 8.1797,35.699 z"
       id="path1369" />
  </g>
</svg>
