<?xml version="1.0" encoding="UTF-8" standalone="no"?>
<svg
   width="720"
   height="2167"
   version="1.1"
   viewBox="0 0 540 1625.25"
   id="svg458"
   sodipodi:docname="imagenes.svg"
   inkscape:version="1.2.1 (9c6d41e410, 2022-07-14)"
   xmlns:inkscape="http://www.inkscape.org/namespaces/inkscape"
   xmlns:sodipodi="http://sodipodi.sourceforge.net/DTD/sodipodi-0.dtd"
   xmlns:xlink="http://www.w3.org/1999/xlink"
   xmlns="http://www.w3.org/2000/svg"
   xmlns:svg="http://www.w3.org/2000/svg">
  <sodipodi:namedview
     id="namedview460"
     pagecolor="#ffffff"
     bordercolor="#666666"
     borderopacity="1.0"
     inkscape:showpageshadow="2"
     inkscape:pageopacity="0.0"
     inkscape:pagecheckerboard="false"
     inkscape:deskcolor="#d1d1d1"
     inkscape:document-units="px"
     showgrid="true"
     inkscape:zoom="1.4142136"
     inkscape:cx="259.15463"
     inkscape:cy="627.55725"
     inkscape:window-width="1920"
     inkscape:window-height="1001"
     inkscape:window-x="-9"
     inkscape:window-y="-9"
     inkscape:window-maximized="1"
     inkscape:current-layer="svg458"
     showguides="true">
    <inkscape:grid
       type="xygrid"
       id="grid2194"
       spacingx="90"
       spacingy="90"
       originx="0"
       originy="0" />
  </sodipodi:namedview>
  <defs
     id="defs368">
    <linearGradient
       id="linearGradient3632"
       inkscape:swatch="solid">
      <stop
         style="stop-color:#9a5fb7;stop-opacity:1;"
         offset="0"
         id="stop3630" />
    </linearGradient>
    <linearGradient
       inkscape:collect="always"
       id="linearGradient3123">
      <stop
         style="stop-color:#710f7c;stop-opacity:1;"
         offset="0"
         id="stop3119" />
      <stop
         style="stop-color:#000000;stop-opacity:0;"
         offset="1"
         id="stop3121" />
    </linearGradient>
    <radialGradient
       inkscape:collect="always"
       xlink:href="#linearGradient3123"
       id="radialGradient3125"
       cx="46.934212"
       cy="225.92061"
       fx="46.934212"
       fy="225.92061"
       r="39.354259"
       gradientTransform="matrix(1,0,0,1.0336896,0,-7.6111709)"
       gradientUnits="userSpaceOnUse" />
    <linearGradient
       inkscape:collect="always"
       xlink:href="#linearGradient3632"
       id="linearGradient3634"
       x1="7.5799522"
       y1="225.92061"
       x2="86.288471"
       y2="225.92061"
       gradientUnits="userSpaceOnUse" />
  </defs>
  <path
     d="m 44.547727,7.0477269 c -20.69045,0 -37.4999999,16.8095471 -37.4999999,37.5000011 0,20.690449 16.8095499,37.499999 37.4999999,37.499999 20.690454,0 37.500004,-16.80955 37.500004,-37.499999 0,-20.690454 -16.80955,-37.5000011 -37.500004,-37.5000011 z m 0,3.4087861 c 18.847414,0 34.090924,15.24352 34.090924,34.090902 0,18.847404 -15.24351,34.090922 -34.090924,34.090922 -18.84741,0 -34.09093,-15.243518 -34.09093,-34.090922 0,-18.847382 15.24352,-34.090902 34.09093,-34.090902 z"
     fill-rule="evenodd"
     id="circulo"
     style="stroke-width:0.152192" />
  <g
     id="playBoton"
     transform="matrix(0.14333141,0,0,0.14333141,-5.8090791,92.272234)">
    <path
       d="m 390.07,222.6 -9.9766,14.352 c 14.086,9.7109 22.574,25.812 22.574,43.051 0,28.961 -23.625,52.5 -52.676,52.5 -29.051,0 -52.676,-23.539 -52.676,-52.5 0,-17.238 8.3984,-33.25 22.574,-43.051 L 309.9128,222.6 c -18.812,13.039 -30.102,34.477 -30.102,57.398 0,38.586 31.5,70 70.176,70 38.676,0 70.176,-31.414 70.176,-70 0,-22.926 -11.289,-44.449 -30.102,-57.398 z"
       id="path1580" />
    <path
       d="m 341.25,210 h 17.586 v 52.5 H 341.25 Z"
       id="path1582" />
    <path
       d="m 358.93,35.262 1.0508,-17.5 c -6.125,-0.35156 -12.512,-0.35156 -18.637,0 l 1.0508,17.5 c 5.4258,-0.35156 11.023,-0.35156 16.449,0 z"
       id="path1584" />
    <path
       d="m 105.09,280 c 0,-2.8008 0,-5.5117 0.26172,-8.2266 l -17.5,-1.0508 c -0.17578,3.0625 -0.26172,6.125 -0.26172,9.2734 0,3.1484 0.08594,6.2109 0.26172,9.2734 l 17.5,-1.0508 C 105.17594,285.5077 105.09,282.7928 105.09,279.992 Z"
       id="path1586" />
    <path
       d="m 305.11,538.48 c 5.4258,1.0508 11.461,1.9258 18.375,2.625 l 1.8359,-17.414 c -6.3867,-0.61328 -11.812,-1.4883 -16.977,-2.4492 -101.76,-17.586 -181.91,-97.562 -199.59,-199.24 -0.96094,-4.8984 -1.75,-10.324 -2.4492,-16.711 l -17.5,1.8359 c 0.69922,6.9141 1.5742,12.863 2.625,18.113 18.898,108.76 104.82,194.43 213.59,213.24 z"
       id="path1588" />
    <path
       d="m 396.29,21.523 c -5.4258,-1.0508 -11.461,-1.9258 -18.375,-2.625 l -1.8359,17.414 c 6.3867,0.61328 11.812,1.4883 16.977,2.4492 101.76,17.586 181.91,97.562 199.59,199.24 0.96094,4.8984 1.75,10.324 2.4492,16.711 l 17.5,-1.8359 c -0.69922,-6.9141 -1.5742,-12.863 -2.625,-18.113 -18.898,-108.76 -104.82,-194.43 -213.59,-213.24 z"
       id="path1590" />
    <path
       d="m 358.93,524.74 c -5.4258,0.35156 -11.023,0.35156 -16.449,0 l -1.0508,17.5 c 3.0625,0.17578 6.125,0.26172 9.2734,0.26172 3.1484,0 6.2109,-0.0859 9.2734,-0.26172 l -1.0508,-17.5 z"
       id="path1592" />
    <path
       d="m 350.7,78.75 v -17.5 c -118.48,0 -215.34,94.238 -219.1,211.57 -10.324,3.5859 -17.762,13.211 -17.762,24.676 0,14.438 11.812,26.25 26.336,26.25 14.524,0 26.336,-11.812 26.336,-26.25 0,-11.289 -7.2617,-20.914 -17.324,-24.586 3.7617,-107.71 92.75,-194.16 201.6,-194.16 z"
       id="path1594" />
    <path
       d="m 350.7,481.25 v 17.5 c 118.48,0 215.34,-94.238 219.1,-211.57 10.324,-3.5859 17.762,-13.211 17.762,-24.676 0,-14.438 -11.812,-26.25 -26.336,-26.25 -14.523,0 -26.336,11.812 -26.336,26.25 0,11.289 7.2617,20.914 17.324,24.586 -3.7617,107.71 -92.75,194.16 -201.6,194.16 z"
       id="path1596" />
    <path
       d="m 315.61,481.25 h 17.586 v 17.5 H 315.61 Z"
       id="path1598" />
    <path
       d="m 368.2,61.25 h 17.586 v 17.5 H 368.2 Z"
       id="path1600" />
    <path
       d="m 417.46,127.66 c -84.176,-36.75 -182.7,1.6641 -219.54,85.664 -36.836,84 1.6641,182.18 85.926,218.93 21.438,9.3633 44.102,14 66.762,14 20.562,0 41.125,-3.8516 60.812,-11.551 41.477,-16.188 74.113,-47.512 91.961,-88.199 36.836,-84 -1.6641,-182.18 -85.926,-218.93 z m -129.15,17.238 12.863,32.727 c -21.262,10.238 -39.375,26.949 -51.012,48.914 l -32.289,-14.086 c 15.664,-30.711 40.863,-53.988 70.438,-67.551 z m -5.25,267.31 C 252.259,396.544 229.072,371.52 215.509,342.032 l 32.637,-12.773 c 10.238,21.176 27.039,39.199 49,50.926 z m 28.961,-44.188 c -48.738,-21.262 -71.051,-78.137 -49.699,-126.7 15.836,-36.051 51.363,-57.664 88.551,-57.664 12.863,0 25.988,2.625 38.586,8.0508 23.625,10.324 41.824,29.137 51.188,53.113 9.3633,23.977 8.8359,50.051 -1.4883,73.586 -21.352,48.648 -78.312,70.875 -127.14,49.613 z m 101.06,46.727 -12.773,-32.637 c 21.176,-10.238 39.375,-26.863 51.102,-48.824 l 32.023,14 c -15.227,29.926 -39.727,53.375 -70.352,67.375 z m 40.25,-184.27 c -10.5,-21.875 -27.562,-39.551 -49.086,-50.836 l 14.086,-32.023 c 30.801,15.664 53.988,40.688 67.551,70.176 l -32.637,12.773 z"
       id="path1602" />
  </g>
  <ellipse
     style="fill:url(#linearGradient3634);stroke-width:4.275;fill-opacity:1;stroke:url(#radialGradient3125);stroke-dasharray:none"
     id="path2600"
     cx="46.934212"
     cy="225.92061"
     rx="38.979259"
     ry="40.305088" />
  <ellipse
     style="fill:none;fill-opacity:1;stroke-width:4.35;stroke-dasharray:none"
     id="path3794"
     cx="41.100582"
     cy="313.95541"
     rx="29.96365"
     ry="30.228817" />
  <path
     style="fill:none;fill-opacity:1;stroke-width:4.10122;stroke-dasharray:none"
     d="M 48.790368,103.18739 C 28.664088,97.920274 14.599182,80.080358 14.54495,59.750523 14.522829,51.457896 15.565085,46.972826 19.310227,39.244426 24.801881,27.911958 36.23782,18.825877 49.115707,15.563377 c 5.401073,-1.368314 15.161453,-1.368314 20.562525,0 6.349527,1.608597 15.02167,6.168544 19.716435,10.367206 5.448038,4.87234 10.533062,12.741374 12.884763,19.939063 2.68863,8.228959 2.68863,18.825688 0,27.054647 -2.351701,7.197689 -7.436725,15.066724 -12.884763,19.939065 -4.694765,4.198658 -13.366908,8.758602 -19.716435,10.367202 -5.245852,1.32899 -15.727448,1.30733 -20.887864,-0.0432 z"
     id="path4374"
     transform="scale(0.75)" />
  <path
     style="fill:none;fill-opacity:1;stroke-width:4.10122;stroke-dasharray:none"
     d="M 48.790368,103.18739 C 28.664088,97.920274 14.599182,80.080358 14.54495,59.750523 14.522829,51.457896 15.565085,46.972826 19.310227,39.244426 24.801881,27.911958 36.23782,18.825877 49.115707,15.563377 c 5.401073,-1.368314 15.161453,-1.368314 20.562525,0 6.349527,1.608597 15.02167,6.168544 19.716435,10.367206 5.448038,4.87234 10.533062,12.741374 12.884763,19.939063 2.68863,8.228959 2.68863,18.825688 0,27.054647 -2.351701,7.197689 -7.436725,15.066724 -12.884763,19.939065 -4.694765,4.198658 -13.366908,8.758602 -19.716435,10.367202 -5.245852,1.32899 -15.727448,1.30733 -20.887864,-0.0432 z"
     id="path4376"
     transform="scale(0.75)" />
  <path
     style="fill:none;fill-opacity:1;stroke-width:4.10122;stroke-dasharray:none"
     d="M 48.790368,103.18739 C 28.664088,97.920274 14.599182,80.080358 14.54495,59.750523 14.522829,51.457896 15.565085,46.972826 19.310227,39.244426 24.801881,27.911958 36.23782,18.825877 49.115707,15.563377 c 5.401073,-1.368314 15.161453,-1.368314 20.562525,0 6.349527,1.608597 15.02167,6.168544 19.716435,10.367206 5.448038,4.87234 10.533062,12.741374 12.884763,19.939063 2.68863,8.228959 2.68863,18.825688 0,27.054647 -2.351701,7.197689 -7.436725,15.066724 -12.884763,19.939065 -4.694765,4.198658 -13.366908,8.758602 -19.716435,10.367202 -5.245852,1.32899 -15.727448,1.30733 -20.887864,-0.0432 z"
     id="path4378"
     transform="scale(0.75)" />
  <path
     style="fill:none;fill-opacity:1;stroke-width:4.10122;stroke-dasharray:none"
     d="M 48.790368,103.18739 C 28.664088,97.920274 14.599182,80.080358 14.54495,59.750523 14.522829,51.457896 15.565085,46.972826 19.310227,39.244426 24.801881,27.911958 36.23782,18.825877 49.115707,15.563377 c 5.401073,-1.368314 15.161453,-1.368314 20.562525,0 6.349527,1.608597 15.02167,6.168544 19.716435,10.367206 5.448038,4.87234 10.533062,12.741374 12.884763,19.939063 2.68863,8.228959 2.68863,18.825688 0,27.054647 -2.351701,7.197689 -7.436725,15.066724 -12.884763,19.939065 -4.694765,4.198658 -13.366908,8.758602 -19.716435,10.367202 -5.245852,1.32899 -15.727448,1.30733 -20.887864,-0.0432 z"
     id="path4380"
     transform="scale(0.75)" />
  <path
     style="fill:none;fill-opacity:1;stroke-width:4.10122;stroke-dasharray:none"
     d="M 48.790368,103.18739 C 28.664088,97.920274 14.599182,80.080358 14.54495,59.750523 14.522829,51.457896 15.565085,46.972826 19.310227,39.244426 24.801881,27.911958 36.23782,18.825877 49.115707,15.563377 c 5.401073,-1.368314 15.161453,-1.368314 20.562525,0 6.349527,1.608597 15.02167,6.168544 19.716435,10.367206 5.448038,4.87234 10.533062,12.741374 12.884763,19.939063 2.68863,8.228959 2.68863,18.825688 0,27.054647 -2.351701,7.197689 -7.436725,15.066724 -12.884763,19.939065 -4.694765,4.198658 -13.366908,8.758602 -19.716435,10.367202 -5.245852,1.32899 -15.727448,1.30733 -20.887864,-0.0432 z"
     id="path4382"
     transform="scale(0.75)" />
  <path
     style="fill:none;fill-opacity:1;stroke-width:4.10122;stroke-dasharray:none"
     d="M 48.790368,103.18739 C 28.664088,97.920274 14.599182,80.080358 14.54495,59.750523 14.522829,51.457896 15.565085,46.972826 19.310227,39.244426 24.801881,27.911958 36.23782,18.825877 49.115707,15.563377 c 5.401073,-1.368314 15.161453,-1.368314 20.562525,0 6.349527,1.608597 15.02167,6.168544 19.716435,10.367206 5.448038,4.87234 10.533062,12.741374 12.884763,19.939063 2.68863,8.228959 2.68863,18.825688 0,27.054647 -2.351701,7.197689 -7.436725,15.066724 -12.884763,19.939065 -4.694765,4.198658 -13.366908,8.758602 -19.716435,10.367202 -5.245852,1.32899 -15.727448,1.30733 -20.887864,-0.0432 z"
     id="path4384"
     transform="scale(0.75)" />
  <path
     style="fill:none;fill-opacity:1;stroke-width:4.10122;stroke-dasharray:none"
     d="M 48.790368,103.18739 C 28.664088,97.920274 14.599182,80.080358 14.54495,59.750523 14.522829,51.457896 15.565085,46.972826 19.310227,39.244426 24.801881,27.911958 36.23782,18.825877 49.115707,15.563377 c 5.401073,-1.368314 15.161453,-1.368314 20.562525,0 6.349527,1.608597 15.02167,6.168544 19.716435,10.367206 5.448038,4.87234 10.533062,12.741374 12.884763,19.939063 2.68863,8.228959 2.68863,18.825688 0,27.054647 -2.351701,7.197689 -7.436725,15.066724 -12.884763,19.939065 -4.694765,4.198658 -13.366908,8.758602 -19.716435,10.367202 -5.245852,1.32899 -15.727448,1.30733 -20.887864,-0.0432 z"
     id="path4386"
     transform="scale(0.75)" />
  <path
     d="M 36.419706,328.19522 H 23.538999 c -6.043293,0 -10.960048,4.91613 -10.960048,10.96006 v 13.07277 c 0,0.64677 0.524189,1.17158 1.171585,1.17158 h 32.455645 c 0.646782,0 1.171585,-0.52419 1.171585,-1.17158 l -6.28e-4,-13.07341 c 6.28e-4,-6.04266 -4.915498,-10.95942 -10.958158,-10.95942 z m 8.615676,22.86025 h -5.615795 v -10.09024 c 0,-0.64677 -0.524189,-1.17159 -1.171586,-1.17159 -0.646774,0 -1.171584,0.5242 -1.171584,1.17159 v 10.09024 h -14.19268 v -10.09024 c 0,-0.64677 -0.524188,-1.17159 -1.171585,-1.17159 -0.646781,0 -1.171585,0.5242 -1.171585,1.17159 v 10.09024 h -5.616423 l 6.28e-4,-11.90066 c 0,-4.7504 3.864654,-8.61632 8.616309,-8.61632 h 12.881336 c 4.750398,0 8.615046,3.86465 8.615046,8.61632 l -6.29e-4,11.90066 z M 29.894045,326.56313 c 4.353017,0 7.896136,-4.43627 7.896136,-9.88949 0,-5.12428 -3.015809,-8.43512 -7.684203,-8.43512 -4.035272,0 -8.106814,2.60866 -8.106814,8.43512 -0.0013,5.45385 3.541228,9.88949 7.894881,9.88949 z m 0.2119,-15.98024 c 3.344118,0 5.340471,2.2772 5.340471,6.09138 0,4.16033 -2.490391,7.54576 -5.552404,7.54576 -3.062014,0 -5.552404,-3.38543 -5.552404,-7.54576 0,-4.49667 3.105064,-6.09138 5.764337,-6.09138 z M 73.506816,278.40005 H 41.341318 c -2.492282,0 -4.518746,2.02709 -4.518746,4.51875 v 21.34799 c 0,2.49165 2.0271,4.51875 4.518746,4.51875 h 3.538708 l -6.28e-4,6.84341 c 0,0.46938 0.280873,0.89501 0.712679,1.07857 0.148451,0.0628 0.303675,0.0936 0.458906,0.0936 0.297511,0 0.590106,-0.11335 0.812464,-0.32708 l 7.987284,-7.688 18.654665,6.3e-4 c 2.492282,0 4.518752,-2.0271 4.518752,-4.51874 l 6.29e-4,-21.34958 c 0,-2.49166 -2.026628,-4.51875 -4.519381,-4.51875 z m 2.175642,25.86737 c 0,1.19931 -0.975706,2.17502 -2.175014,2.17502 H 54.379716 c -0.303066,0 -0.593796,0.11703 -0.812463,0.32707 l -6.342748,6.10558 6.35e-4,-5.26162 c 0,-0.31107 -0.123196,-0.60921 -0.3431,-0.82787 -0.218667,-0.2199 -0.518043,-0.34311 -0.82787,-0.34311 h -4.709711 c -1.200538,0 -2.175013,-0.9757 -2.175013,-2.175 l -0.0013,-21.34801 c 0,-1.1993 0.975706,-2.175 2.175014,-2.175 h 32.163911 c 1.200538,0 2.175007,0.9757 2.175007,2.175 z M 69.867661,289.6534 c 0,0.64678 -0.524195,1.17158 -1.171585,1.17158 H 46.154367 c -0.646781,0 -1.171591,-0.52419 -1.171591,-1.17158 0,-0.64678 0.524195,-1.17159 1.171591,-1.17159 h 22.541709 c 0.648006,-6.3e-4 1.172201,0.52419 1.172201,1.17159 z m 0,8.41116 c 0,0.64677 -0.524195,1.17158 -1.171585,1.17158 l -22.541708,-6.4e-4 c -0.646782,0 -1.171592,-0.52418 -1.171592,-1.17158 0,-0.64677 0.524195,-1.17159 1.171592,-1.17159 h 22.541708 c 0.648006,6.4e-4 1.172201,0.52482 1.172201,1.17221 z"
     id="Informacion"
     style="stroke-width:0.15769" />
  <g
     id="integrantes"
     transform="matrix(0.3609223,0,0,0.3609223,-59.937819,303.73188)">
    <path
       d="m 334.25605,216.19155 c 0,-22.33266 -19.42131,-40.50285 -43.2917,-40.50285 -23.87039,0 -43.29171,18.17019 -43.29171,40.50285 0,22.33266 19.42132,40.50285 43.29171,40.50285 23.87039,0 43.2917,-18.17019 43.2917,-40.50285 z m -75.28711,0 c 0,-16.50738 14.35656,-29.93668 31.99799,-29.93668 17.644,0 31.99799,13.43172 31.99799,29.93668 0,16.50738 -14.35657,29.93668 -31.99799,29.93668 -17.64401,0 -31.99799,-13.4293 -31.99799,-29.93668 z"
       id="path633"
       style="stroke-width:0.624222" />
    <path
       d="m 215.67207,263.73932 c 15.56919,0 28.23428,-11.8492 28.23428,-26.41543 0,-14.56622 -12.66509,-26.41542 -28.23428,-26.41542 -15.56919,0 -28.23428,11.8492 -28.23428,26.41542 0,14.56623 12.66509,26.41543 28.23428,26.41543 z m 0,-42.26468 c 9.3428,0 16.94057,7.10831 16.94057,15.84925 0,8.74094 -7.59777,15.84926 -16.94057,15.84926 -9.34281,0 -16.94057,-7.10832 -16.94057,-15.84926 0,-8.74094 7.60035,-15.84925 16.94057,-15.84925 z"
       id="path635"
       style="stroke-width:0.624222" />
    <path
       d="m 394.49349,237.32389 c 0,-14.56622 -12.66509,-26.41542 -28.23428,-26.41542 -15.56919,0 -28.23429,11.8492 -28.23429,26.41542 0,14.56623 12.6651,26.41543 28.23429,26.41543 15.56919,0 28.23428,-11.8492 28.23428,-26.41543 z m -45.17485,0 c 0,-8.74094 7.59776,-15.84925 16.94057,-15.84925 9.3428,0 16.94057,7.10831 16.94057,15.84925 0,8.74094 -7.59777,15.84926 -16.94057,15.84926 -9.34281,0 -16.94057,-7.10832 -16.94057,-15.84926 z"
       id="path637"
       style="stroke-width:0.624222" />
    <path
       d="m 366.25921,274.30549 c -2.94947,0 -5.85608,0.33963 -8.63937,1.01417 -3.01755,0.72877 -4.83513,3.61092 -4.05619,6.43631 0.77895,2.82787 3.852,4.51659 6.87949,3.79489 1.86294,-0.45284 3.81921,-0.67926 5.81574,-0.67926 11.54089,0 21.18314,7.53761 23.74713,17.61109 h -6.95757 c -3.11836,0 -5.64686,2.36562 -5.64686,5.28309 0,2.91747 2.5285,5.28309 5.64686,5.28309 h 13.32529 c 3.11836,0 5.64686,-2.36562 5.64686,-5.28309 0,-18.45095 -16.04288,-33.46035 -35.76171,-33.46035 z"
       id="path639"
       style="stroke-width:0.624222" />
    <path
       d="m 336.14049,302.48396 c -23.87039,0 -43.29171,18.17019 -43.29171,40.50285 0,22.33266 19.42132,40.50285 43.29171,40.50285 23.87039,0 43.2917,-18.17019 43.2917,-40.50285 0,-22.33266 -19.42131,-40.50285 -43.2917,-40.50285 z m 0,70.43712 c -17.64401,0 -31.99799,-13.43172 -31.99799,-29.93668 0,-16.50738 14.35656,-29.93668 31.99799,-29.93668 17.644,0 31.99799,13.43172 31.99799,29.93668 0,16.50738 -14.35399,29.93668 -31.99799,29.93668 z"
       id="path641"
       style="stroke-width:0.624222" />
    <path
       d="m 351.19662,337.70252 h -9.41057 v -8.80434 c 0,-2.91747 -2.5285,-5.28308 -5.64685,-5.28308 -3.11836,0 -5.64686,2.36561 -5.64686,5.28308 v 8.80434 h -9.41057 c -3.11835,0 -5.64685,2.36562 -5.64685,5.28309 0,2.91747 2.5285,5.28308 5.64685,5.28308 h 9.41057 v 8.80434 c 0,2.91747 2.5285,5.28308 5.64686,5.28308 3.11835,0 5.64685,-2.36561 5.64685,-5.28308 v -8.80434 h 9.41057 c 3.11836,0 5.64686,-2.36561 5.64686,-5.28308 0,-2.91747 -2.5285,-5.28309 -5.64686,-5.28309 z"
       id="path643"
       style="stroke-width:0.624222" />
    <path
       d="m 185.5598,313.05013 h 20.25318 c 3.11836,0 5.64686,-2.36561 5.64686,-5.28308 0,-2.91747 -2.5285,-5.28309 -5.64686,-5.28309 H 191.9301 c 2.5638,-10.07348 12.20625,-17.61109 23.74713,-17.61109 1.9966,0 3.9528,0.22642 5.81575,0.6769 3.03265,0.72876 6.09809,-0.96701 6.87948,-3.79488 0.77894,-2.82316 -1.03612,-5.70525 -4.05618,-6.43631 -2.78561,-0.67219 -5.69223,-1.01182 -8.64195,-1.01182 -19.71883,0 -35.76429,15.0094 -35.76429,33.46035 0.003,2.91511 2.53102,5.28308 5.64938,5.28308 z"
       id="path645"
       style="stroke-width:0.624222" />
    <path
       d="m 219.02791,322.20949 c -1.01843,4.66047 0.24958,9.45522 3.47886,13.15338 3.24949,3.72883 8.06177,5.86326 13.19686,5.86326 H 276.361 c 3.11835,0 5.64685,-2.36562 5.64685,-5.28309 0,-2.91747 -2.5285,-5.28308 -5.64685,-5.28308 h -40.65737 c -3.51415,0 -6.31744,-3.09909 -5.60904,-6.33971 5.88132,-26.93649 31.48365,-46.49115 60.87247,-46.49115 14.20297,0 28.04003,4.60148 38.96072,12.96258 2.42009,1.84672 5.97457,1.51416 7.9482,-0.74295 1.97388,-2.25947 1.61842,-5.58969 -0.79411,-7.43617 -12.93743,-9.89658 -29.31332,-15.34933 -46.11514,-15.34933 -34.73042,0 -64.98724,23.10671 -71.93772,54.94651 z"
       id="path647"
       style="stroke-width:0.624222" />
  </g>
</svg>
