<?xml version="1.0" encoding="UTF-8" standalone="no"?>
<svg
   width="836"
   height="2167"
   version="1.1"
   viewBox="0 0 627 1625.25"
   id="svg458"
   sodipodi:docname="imagenes.svg"
   inkscape:version="1.2.1 (9c6d41e410, 2022-07-14)"
   xmlns:inkscape="http://www.inkscape.org/namespaces/inkscape"
   xmlns:sodipodi="http://sodipodi.sourceforge.net/DTD/sodipodi-0.dtd"
   xmlns="http://www.w3.org/2000/svg"
   xmlns:svg="http://www.w3.org/2000/svg">
  <sodipodi:namedview
     id="namedview460"
     pagecolor="#ffffff"
     bordercolor="#666666"
     borderopacity="1.0"
     inkscape:showpageshadow="2"
     inkscape:pageopacity="0.0"
     inkscape:pagecheckerboard="false"
     inkscape:deskcolor="#d1d1d1"
     inkscape:document-units="px"
     showgrid="true"
     inkscape:zoom="0.36225196"
     inkscape:cx="129.74395"
     inkscape:cy="1464.4503"
     inkscape:window-width="1920"
     inkscape:window-height="1001"
     inkscape:window-x="-9"
     inkscape:window-y="-9"
     inkscape:window-maximized="1"
     inkscape:current-layer="svg458"
     showguides="false">
    <inkscape:grid
       type="xygrid"
       id="grid2194"
       spacingx="90"
       spacingy="90"
       originx="0"
       originy="0" />
  </sodipodi:namedview>
  <defs
     id="defs368">
    <linearGradient
       id="linearGradient14613"
       inkscape:swatch="solid">
      <stop
         style="stop-color:#ff0000;stop-opacity:1;"
         offset="0"
         id="stop14611" />
    </linearGradient>
    <linearGradient
       id="linearGradient1447"
       inkscape:swatch="solid">
      <stop
         style="stop-color:#9a5fb7;stop-opacity:1;"
         offset="0"
         id="stop1445" />
    </linearGradient>
    <linearGradient
       id="linearGradient3632"
       inkscape:swatch="solid">
      <stop
         style="stop-color:#060009;stop-opacity:1;"
         offset="0"
         id="stop3630" />
    </linearGradient>
  </defs>
  <g
     id="playBoton"
     transform="matrix(0.21428355,0,0,0.21428355,13.107348,33.750568)">
    <path
       d="m 390.07,222.6 -9.9766,14.352 c 14.086,9.7109 22.574,25.812 22.574,43.051 0,28.961 -23.625,52.5 -52.676,52.5 -29.051,0 -52.676,-23.539 -52.676,-52.5 0,-17.238 8.3984,-33.25 22.574,-43.051 L 309.9128,222.6 c -18.812,13.039 -30.102,34.477 -30.102,57.398 0,38.586 31.5,70 70.176,70 38.676,0 70.176,-31.414 70.176,-70 0,-22.926 -11.289,-44.449 -30.102,-57.398 z"
       id="path1580" />
    <path
       d="m 341.25,210 h 17.586 v 52.5 H 341.25 Z"
       id="path1582" />
    <path
       d="m 358.93,35.262 1.0508,-17.5 c -6.125,-0.35156 -12.512,-0.35156 -18.637,0 l 1.0508,17.5 c 5.4258,-0.35156 11.023,-0.35156 16.449,0 z"
       id="path1584" />
    <path
       d="m 105.09,280 c 0,-2.8008 0,-5.5117 0.26172,-8.2266 l -17.5,-1.0508 c -0.17578,3.0625 -0.26172,6.125 -0.26172,9.2734 0,3.1484 0.08594,6.2109 0.26172,9.2734 l 17.5,-1.0508 C 105.17594,285.5077 105.09,282.7928 105.09,279.992 Z"
       id="path1586" />
    <path
       d="m 305.11,538.48 c 5.4258,1.0508 11.461,1.9258 18.375,2.625 l 1.8359,-17.414 c -6.3867,-0.61328 -11.812,-1.4883 -16.977,-2.4492 -101.76,-17.586 -181.91,-97.562 -199.59,-199.24 -0.96094,-4.8984 -1.75,-10.324 -2.4492,-16.711 l -17.5,1.8359 c 0.69922,6.9141 1.5742,12.863 2.625,18.113 18.898,108.76 104.82,194.43 213.59,213.24 z"
       id="path1588" />
    <path
       d="m 396.29,21.523 c -5.4258,-1.0508 -11.461,-1.9258 -18.375,-2.625 l -1.8359,17.414 c 6.3867,0.61328 11.812,1.4883 16.977,2.4492 101.76,17.586 181.91,97.562 199.59,199.24 0.96094,4.8984 1.75,10.324 2.4492,16.711 l 17.5,-1.8359 c -0.69922,-6.9141 -1.5742,-12.863 -2.625,-18.113 -18.898,-108.76 -104.82,-194.43 -213.59,-213.24 z"
       id="path1590" />
    <path
       d="m 358.93,524.74 c -5.4258,0.35156 -11.023,0.35156 -16.449,0 l -1.0508,17.5 c 3.0625,0.17578 6.125,0.26172 9.2734,0.26172 3.1484,0 6.2109,-0.0859 9.2734,-0.26172 l -1.0508,-17.5 z"
       id="path1592" />
    <path
       d="m 350.7,78.75 v -17.5 c -118.48,0 -215.34,94.238 -219.1,211.57 -10.324,3.5859 -17.762,13.211 -17.762,24.676 0,14.438 11.812,26.25 26.336,26.25 14.524,0 26.336,-11.812 26.336,-26.25 0,-11.289 -7.2617,-20.914 -17.324,-24.586 3.7617,-107.71 92.75,-194.16 201.6,-194.16 z"
       id="path1594" />
    <path
       d="m 350.7,481.25 v 17.5 c 118.48,0 215.34,-94.238 219.1,-211.57 10.324,-3.5859 17.762,-13.211 17.762,-24.676 0,-14.438 -11.812,-26.25 -26.336,-26.25 -14.523,0 -26.336,11.812 -26.336,26.25 0,11.289 7.2617,20.914 17.324,24.586 -3.7617,107.71 -92.75,194.16 -201.6,194.16 z"
       id="path1596" />
    <path
       d="m 315.61,481.25 h 17.586 v 17.5 H 315.61 Z"
       id="path1598" />
    <path
       d="m 368.2,61.25 h 17.586 v 17.5 H 368.2 Z"
       id="path1600" />
    <path
       d="m 417.46,127.66 c -84.176,-36.75 -182.7,1.6641 -219.54,85.664 -36.836,84 1.6641,182.18 85.926,218.93 21.438,9.3633 44.102,14 66.762,14 20.562,0 41.125,-3.8516 60.812,-11.551 41.477,-16.188 74.113,-47.512 91.961,-88.199 36.836,-84 -1.6641,-182.18 -85.926,-218.93 z m -129.15,17.238 12.863,32.727 c -21.262,10.238 -39.375,26.949 -51.012,48.914 l -32.289,-14.086 c 15.664,-30.711 40.863,-53.988 70.438,-67.551 z m -5.25,267.31 C 252.259,396.544 229.072,371.52 215.509,342.032 l 32.637,-12.773 c 10.238,21.176 27.039,39.199 49,50.926 z m 28.961,-44.188 c -48.738,-21.262 -71.051,-78.137 -49.699,-126.7 15.836,-36.051 51.363,-57.664 88.551,-57.664 12.863,0 25.988,2.625 38.586,8.0508 23.625,10.324 41.824,29.137 51.188,53.113 9.3633,23.977 8.8359,50.051 -1.4883,73.586 -21.352,48.648 -78.312,70.875 -127.14,49.613 z m 101.06,46.727 -12.773,-32.637 c 21.176,-10.238 39.375,-26.863 51.102,-48.824 l 32.023,14 c -15.227,29.926 -39.727,53.375 -70.352,67.375 z m 40.25,-184.27 c -10.5,-21.875 -27.562,-39.551 -49.086,-50.836 l 14.086,-32.023 c 30.801,15.664 53.988,40.688 67.551,70.176 l -32.637,12.773 z"
       id="path1602" />
  </g>
  <ellipse
     style="fill:none;fill-opacity:1;stroke-width:4.35;stroke-dasharray:none"
     id="path3794"
     cx="41.100582"
     cy="313.95541"
     rx="29.96365"
     ry="30.228817" />
  <path
     d="M 53.89196,308.87627 H 31.750295 c -10.388293,0 -18.840092,7.37419 -18.840092,16.44008 v 19.60912 c 0,0.97016 0.90107,1.75738 2.01393,1.75738 h 55.790572 c 1.111805,0 2.01393,-0.78629 2.01393,-1.75738 l -0.0011,-19.61008 c 0.0011,-9.06399 -8.449637,-16.43912 -18.836843,-16.43912 z m 14.810166,34.29034 h -9.653434 v -15.13535 c 0,-0.97015 -0.901069,-1.75738 -2.013931,-1.75738 -1.111791,0 -2.013929,0.7863 -2.013929,1.75738 v 15.13535 H 30.623914 v -15.13535 c 0,-0.97015 -0.901069,-1.75738 -2.01393,-1.75738 -1.111803,0 -2.01393,0.7863 -2.01393,1.75738 v 15.13535 H 16.94154 l 0.0011,-17.85097 c 0,-7.1256 6.643259,-12.92446 14.811254,-12.92446 H 53.89664 c 8.165835,0 14.809083,5.79696 14.809083,12.92446 l -0.0011,17.85097 z m -26.02764,-36.73847 c 7.482745,0 13.573292,-6.6544 13.573292,-14.83422 0,-7.68641 -5.184113,-12.65266 -13.208984,-12.65266 -6.936548,0 -13.935443,3.91298 -13.935443,12.65266 -0.0022,8.18076 6.087297,14.83422 13.571135,14.83422 z m 0.364251,-23.97034 c 5.748469,0 9.180158,3.4158 9.180158,9.13706 0,6.24049 -4.28093,11.31864 -9.544466,11.31864 -5.263538,0 -9.544466,-5.07815 -9.544466,-11.31864 0,-6.745 5.33754,-9.13706 9.908774,-9.13706 z M 117.64392,234.18359 H 62.352108 c -4.284181,0 -7.76763,3.04064 -7.76763,6.77812 v 32.02196 c 0,3.73746 3.484543,6.77811 7.76763,6.77811 h 6.082964 l -0.0011,10.26511 c 0,0.70406 0.482815,1.34251 1.22508,1.61785 0.255184,0.0942 0.522011,0.1404 0.78885,0.1404 0.511415,0 1.01438,-0.17003 1.396608,-0.49062 l 13.729974,-11.53199 32.066976,8.7e-4 c 4.28418,0 7.76764,-3.04064 7.76764,-6.77809 l 0.001,-32.02434 c 0,-3.73748 -3.48373,-6.77812 -7.76872,-6.77812 z m 3.73988,38.80102 c 0,1.79896 -1.67721,3.26252 -3.7388,3.26252 H 84.76484 c -0.520964,0 -1.020723,0.17555 -1.396607,0.49061 l -10.903052,9.15836 0.0011,-7.89242 c 0,-0.4666 -0.211771,-0.91381 -0.589783,-1.2418 -0.375883,-0.32986 -0.890504,-0.51467 -1.423091,-0.51467 h -8.095894 c -2.063699,0 -3.738802,-1.46355 -3.738802,-3.2625 l -0.0022,-32.02198 c 0,-1.79894 1.677219,-3.26249 3.738803,-3.26249 H 117.6444 c 2.0637,0 3.73879,1.46355 3.73879,3.26249 z m -9.99551,-21.921 c 0,0.97016 -0.90108,1.75736 -2.01393,1.75736 H 70.625638 c -1.111803,0 -2.013941,-0.78628 -2.013941,-1.75736 0,-0.97018 0.901081,-1.75739 2.013941,-1.75739 h 38.748722 c 1.11391,-8.7e-4 2.01499,0.78628 2.01499,1.75739 z m 0,12.61672 c 0,0.97016 -0.90108,1.75736 -2.01393,1.75736 l -38.748721,-8.7e-4 c -1.111804,0 -2.013942,-0.78626 -2.013942,-1.75737 0,-0.97015 0.901081,-1.75738 2.013942,-1.75738 h 38.748721 c 1.11391,8.7e-4 2.01499,0.78723 2.01499,1.75832 z"
     id="Informacion"
     style="stroke-width:0.253213" />
  <g
     id="integrantes"
     transform="matrix(0.50650453,0,0,0.54138345,122.62524,-62.320455)">
    <path
       d="m 334.25605,216.19155 c 0,-22.33266 -19.42131,-40.50285 -43.2917,-40.50285 -23.87039,0 -43.29171,18.17019 -43.29171,40.50285 0,22.33266 19.42132,40.50285 43.29171,40.50285 23.87039,0 43.2917,-18.17019 43.2917,-40.50285 z m -75.28711,0 c 0,-16.50738 14.35656,-29.93668 31.99799,-29.93668 17.644,0 31.99799,13.43172 31.99799,29.93668 0,16.50738 -14.35657,29.93668 -31.99799,29.93668 -17.64401,0 -31.99799,-13.4293 -31.99799,-29.93668 z"
       id="path633"
       style="stroke-width:0.624222" />
    <path
       d="m 215.67207,263.73932 c 15.56919,0 28.23428,-11.8492 28.23428,-26.41543 0,-14.56622 -12.66509,-26.41542 -28.23428,-26.41542 -15.56919,0 -28.23428,11.8492 -28.23428,26.41542 0,14.56623 12.66509,26.41543 28.23428,26.41543 z m 0,-42.26468 c 9.3428,0 16.94057,7.10831 16.94057,15.84925 0,8.74094 -7.59777,15.84926 -16.94057,15.84926 -9.34281,0 -16.94057,-7.10832 -16.94057,-15.84926 0,-8.74094 7.60035,-15.84925 16.94057,-15.84925 z"
       id="path635"
       style="stroke-width:0.624222" />
    <path
       d="m 394.49349,237.32389 c 0,-14.56622 -12.66509,-26.41542 -28.23428,-26.41542 -15.56919,0 -28.23429,11.8492 -28.23429,26.41542 0,14.56623 12.6651,26.41543 28.23429,26.41543 15.56919,0 28.23428,-11.8492 28.23428,-26.41543 z m -45.17485,0 c 0,-8.74094 7.59776,-15.84925 16.94057,-15.84925 9.3428,0 16.94057,7.10831 16.94057,15.84925 0,8.74094 -7.59777,15.84926 -16.94057,15.84926 -9.34281,0 -16.94057,-7.10832 -16.94057,-15.84926 z"
       id="path637"
       style="stroke-width:0.624222" />
    <path
       d="m 366.25921,274.30549 c -2.94947,0 -5.85608,0.33963 -8.63937,1.01417 -3.01755,0.72877 -4.83513,3.61092 -4.05619,6.43631 0.77895,2.82787 3.852,4.51659 6.87949,3.79489 1.86294,-0.45284 3.81921,-0.67926 5.81574,-0.67926 11.54089,0 21.18314,7.53761 23.74713,17.61109 h -6.95757 c -3.11836,0 -5.64686,2.36562 -5.64686,5.28309 0,2.91747 2.5285,5.28309 5.64686,5.28309 h 13.32529 c 3.11836,0 5.64686,-2.36562 5.64686,-5.28309 0,-18.45095 -16.04288,-33.46035 -35.76171,-33.46035 z"
       id="path639"
       style="stroke-width:0.624222" />
    <path
       d="m 336.14049,302.48396 c -23.87039,0 -43.29171,18.17019 -43.29171,40.50285 0,22.33266 19.42132,40.50285 43.29171,40.50285 23.87039,0 43.2917,-18.17019 43.2917,-40.50285 0,-22.33266 -19.42131,-40.50285 -43.2917,-40.50285 z m 0,70.43712 c -17.64401,0 -31.99799,-13.43172 -31.99799,-29.93668 0,-16.50738 14.35656,-29.93668 31.99799,-29.93668 17.644,0 31.99799,13.43172 31.99799,29.93668 0,16.50738 -14.35399,29.93668 -31.99799,29.93668 z"
       id="path641"
       style="stroke-width:0.624222" />
    <path
       d="m 351.19662,337.70252 h -9.41057 v -8.80434 c 0,-2.91747 -2.5285,-5.28308 -5.64685,-5.28308 -3.11836,0 -5.64686,2.36561 -5.64686,5.28308 v 8.80434 h -9.41057 c -3.11835,0 -5.64685,2.36562 -5.64685,5.28309 0,2.91747 2.5285,5.28308 5.64685,5.28308 h 9.41057 v 8.80434 c 0,2.91747 2.5285,5.28308 5.64686,5.28308 3.11835,0 5.64685,-2.36561 5.64685,-5.28308 v -8.80434 h 9.41057 c 3.11836,0 5.64686,-2.36561 5.64686,-5.28308 0,-2.91747 -2.5285,-5.28309 -5.64686,-5.28309 z"
       id="path643"
       style="stroke-width:0.624222" />
    <path
       d="m 185.5598,313.05013 h 20.25318 c 3.11836,0 5.64686,-2.36561 5.64686,-5.28308 0,-2.91747 -2.5285,-5.28309 -5.64686,-5.28309 H 191.9301 c 2.5638,-10.07348 12.20625,-17.61109 23.74713,-17.61109 1.9966,0 3.9528,0.22642 5.81575,0.6769 3.03265,0.72876 6.09809,-0.96701 6.87948,-3.79488 0.77894,-2.82316 -1.03612,-5.70525 -4.05618,-6.43631 -2.78561,-0.67219 -5.69223,-1.01182 -8.64195,-1.01182 -19.71883,0 -35.76429,15.0094 -35.76429,33.46035 0.003,2.91511 2.53102,5.28308 5.64938,5.28308 z"
       id="path645"
       style="stroke-width:0.624222" />
    <path
       d="m 219.02791,322.20949 c -1.01843,4.66047 0.24958,9.45522 3.47886,13.15338 3.24949,3.72883 8.06177,5.86326 13.19686,5.86326 H 276.361 c 3.11835,0 5.64685,-2.36562 5.64685,-5.28309 0,-2.91747 -2.5285,-5.28308 -5.64685,-5.28308 h -40.65737 c -3.51415,0 -6.31744,-3.09909 -5.60904,-6.33971 5.88132,-26.93649 31.48365,-46.49115 60.87247,-46.49115 14.20297,0 28.04003,4.60148 38.96072,12.96258 2.42009,1.84672 5.97457,1.51416 7.9482,-0.74295 1.97388,-2.25947 1.61842,-5.58969 -0.79411,-7.43617 -12.93743,-9.89658 -29.31332,-15.34933 -46.11514,-15.34933 -34.73042,0 -64.98724,23.10671 -71.93772,54.94651 z"
       id="path647"
       style="stroke-width:0.624222" />
  </g>
  <g
     id="botonAtras"
     transform="matrix(0.07051086,0,0,0.07051086,16.644496,472.36275)">
    <path
       d="M 538.16,91.84 C 488.262,41.992 420.61,14 350.07,14.024 279.539,14.047437 211.9,42.083 162.03,91.962 c -49.863,49.883 -77.879,117.53 -77.879,188.06 0,70.531 28.016,138.18 77.879,188.06 49.867,49.883 117.5,77.918 188.04,77.941 70.535,0.0234 138.19,-27.969 188.09,-77.82 49.836,-49.945 77.824,-117.62 77.824,-188.18 0,-70.559 -27.988,-138.23 -77.824,-188.18 z m -9.7539,366.57 c -47.309,47.266 -111.45,73.805 -178.32,73.781 -66.871,-0.0195 -131,-26.598 -178.27,-73.891 -47.27,-47.293 -73.836,-111.43 -73.836,-178.3 0,-66.87 26.559,-131.01 73.836,-178.3 47.277,-47.29 111.4,-73.871 178.27,-73.891 66.875,-0.01953 131.02,26.52 178.32,73.781 47.242,47.359 73.773,111.52 73.773,178.41 0,66.89 -26.531,131.05 -73.773,178.41 z"
       id="path243" />
    <path
       d="M 494.19,273.09 H 222.5 l 84.324,-84.324 c 2.6992,-2.6992 2.6992,-7.0742 0.004,-9.7773 -2.6992,-2.6992 -7.0742,-2.6992 -9.7773,0 l -96.129,96.121 c -0.0508,0.0508 -0.0625,0.125 -0.11328,0.17188 v 0.004 c -1.2266,1.2617 -1.9141,2.9531 -1.9062,4.7148 0,0.90234 0.18359,1.793 0.53125,2.625 0.34766,0.83984 0.85547,1.5977 1.4961,2.2422 l 96.121,96.152 c 1.293,1.3203 3.0586,2.0742 4.9062,2.0859 1.8477,0.0117 3.6211,-0.71875 4.9297,-2.0234 1.3047,-1.3086 2.0352,-3.082 2.0234,-4.9297 -0.0117,-1.8516 -0.76172,-3.6172 -2.0859,-4.9062 l -84.324,-84.336 h 271.69 c 3.8164,0 6.9102,-3.0938 6.9102,-6.9102 0,-3.8164 -3.0938,-6.9102 -6.9102,-6.9102 z"
       id="path245" />
  </g>
  <g
     id="botonJuego3"
     transform="matrix(0.20920173,0,0,0.20920173,-19.657,531.57007)">
    <g
       id="botonJuego1"
       transform="matrix(0.55555557,0,0,0.55555557,111.73906,88.954499)">
      <path
         d="m 246.8,142.8 c -13.195,0 -24.156,10.18 -25.133,23.336 l -16.086,217.16 c -0.0781,1.0312 -0.11328,2.0664 -0.11328,3.1016 0,23.199 18.805,42 42,42 h 205.05 c 1.0352,0 2.0703,-0.0352 3.1055,-0.11328 23.133,-1.7148 40.496,-21.855 38.781,-44.988 l -16.086,-217.16 c -0.97656,-13.156 -11.938,-23.336 -25.133,-23.336 z m 0,-16.801 h 206.39 c 21.992,0 40.262,16.965 41.887,38.898 l 16.086,217.16 c 2.3984,32.387 -21.91,60.586 -54.297,62.984 -1.4453,0.10547 -2.8945,0.16016 -4.3438,0.16016 h -205.05 c -32.477,0 -58.801,-26.324 -58.801,-58.801 0,-1.4492 0.0547,-2.8984 0.16016,-4.3438 l 16.086,-217.16 c 1.625,-21.934 19.895,-38.898 41.887,-38.898 z"
         id="path1103" />
      <path
         d="m 233.18,292.3 -29.883,83.676 -5.2773,-1.8867 29.887,-83.672 z"
         fill-rule="evenodd"
         id="path1105" />
      <path
         d="m 274.82,140 c -14.516,0 -26.625,11.094 -27.895,25.555 l -11.773,134.4 c -0.0703,0.8125 -0.10547,1.6289 -0.10547,2.4414 0,15.465 12.535,28 28,28 h 173.91 c 0.81641,0 1.6328,-0.0352 2.4453,-0.10547 15.406,-1.3477 26.801,-14.93 25.449,-30.336 l -11.773,-134.4 c -1.2656,-14.461 -13.375,-25.555 -27.895,-25.555 z m 0,-11.199 h 150.37 c 20.324,0 37.277,15.531 39.051,35.777 l 11.773,134.4 c 1.8906,21.566 -14.062,40.582 -35.629,42.469 -1.1367,0.10156 -2.2773,0.15234 -3.4219,0.15234 h -173.91 c -21.652,0 -39.199,-17.551 -39.199,-39.203 0,-1.1406 0.0469,-2.2812 0.14844,-3.418 l 11.773,-134.4 c 1.7734,-20.246 18.727,-35.777 39.051,-35.777 z"
         id="path1107" />
      <path
         d="m 459.47,418.57 38.93,-38.934 3.9609,3.9609 -41.762,41.758 1.8242,10.941 -5.5234,0.92188 -1.1641,-6.9961 -5.0156,5.0156 -3.9609,-3.9609 7.8438,-7.8438 -1.2695,-7.6094 -19.395,19.391 -3.957,-3.957 22.223,-22.223 -1.2695,-7.6133 -33.785,33.785 -3.957,-3.9609 36.609,-36.609 -1.2695,-7.6133 -48.172,48.172 -3.9609,-3.957 51.004,-51.004 -1.2695,-7.6094 -62.57,62.566 -3.957,-3.9609 65.395,-65.395 -1.2656,-7.6133 -82.566,82.562 -3.957,-3.957 85.391,-85.395 -1.2695,-7.6094 -99.855,99.852 -3.957,-3.957 102.68,-102.68 -1.0234,-6.1406 5.5234,-0.92188 0.36328,2.1953 0.17188,-0.16797 3.9609,3.957 -3,3 1.2695,7.6133 28.539,-28.543 -2.3359,-6.543 -3.2734,3.2734 -3.957,-3.9609 5.1484,-5.1484 -3.6133,-10.117 -1.5352,-1.5352 0.72656,-0.72656 -0.34766,-0.96875 2.0469,-0.73047 21.289,-21.289 3.957,3.9609 -20.48,20.48 2.3359,6.543 14.188,-14.184 3.957,3.957 -16.059,16.062 2.3359,6.543 9.7656,-9.7617 3.957,3.957 -11.637,11.641 2.3359,6.543 7.9883,-7.9883 3.9609,3.9609 -9.8672,9.8633 2.3398,6.543 6.457,-6.4609 3.9609,3.9609 -8.3359,8.3359 2.3359,6.543 2.0391,-2.0391 3.9609,3.9609 -3.9141,3.9141 2.3359,6.543 0.32422,-0.32422 3.9609,3.9609 -2.1992,2.1992 1.8203,5.0938 -5.2773,1.8867 -0.92578,-2.5977 -37.578,37.578 z m -2.4023,-14.402 36.629,-36.625 -2.3398,-6.543 -35.559,35.559 z m 32.207,-49.004 -2.3398,-6.543 -33.535,33.535 1.2695,7.6133 z m -37.008,20.203 32.586,-32.582 -2.3359,-6.543 -31.516,31.516 z m 28.164,-44.961 -2.3359,-6.543 -29.496,29.492 1.2695,7.6133 z m -223.11,21.512 19.922,-19.918 3.9609,3.957 -25.465,25.465 -1.7773,10.656 40.082,-40.078 3.957,3.957 -45.621,45.625 -1.7773,10.656 58.262,-58.262 c 1.0938,-1.0898 2.8633,-1.0898 3.957,0 1.0938,1.0938 1.0938,2.8672 0,3.9609 l -63.801,63.805 -1.7773,10.656 78.418,-78.422 c 1.0938,-1.0898 2.8672,-1.0898 3.9609,0 1.0938,1.0938 1.0938,2.8672 0,3.9609 l -83.961,83.965 -1.7773,10.656 100.56,-100.56 3.9609,3.957 -107.72,107.72 -3.9609,-3.957 3.0547,-3.0547 -2.1953,-0.36719 6.0547,-36.328 c 0.004,-0.0234 0.008,-0.0469 0.0117,-0.0703 l 11.652,-69.926 5.5234,0.92188 z m 201.88,-193.96 -3.9609,-3.9609 20.762,-20.762 3.9609,3.9609 z m 0,16.801 -3.9609,-3.9609 23.762,-23.758 3.957,3.957 z m 0,16.797 -3.9609,-3.957 29.316,-29.316 3.9609,3.9609 z m 5.6016,11.203 -3.9609,-3.9609 23.715,-23.715 3.9609,3.957 z m 0,16.797 -3.9609,-3.957 23.715,-23.715 3.9609,3.957 z m 0,16.801 -3.9609,-3.9609 23.715,-23.715 3.9609,3.9609 z m 0,16.801 -3.9609,-3.9609 29.316,-29.312 3.957,3.957 z m 5.5977,11.199 -3.957,-3.9609 23.715,-23.715 3.957,3.9609 z m 0,16.801 -3.957,-3.9609 23.715,-23.715 3.957,3.9609 z m -41.961,50.844 3.9609,3.957 -107.72,107.72 -3.9609,-3.957 z m -16.801,0 3.9609,3.957 -107.72,107.72 -3.9609,-3.957 z m -16.801,0 3.9609,3.957 -107.72,107.72 -3.9609,-3.957 z m -16.797,0 3.957,3.957 -107.72,107.72 -3.957,-3.957 z m -16.801,0 3.9609,3.957 -107.72,107.72 -3.957,-3.957 z"
         id="path1109" />
    </g>
  </g>
  <g
     id="botonJuego2"
     transform="matrix(0.07679336,0,0,0.07679336,21.439073,658.23829)">
    <path
       d="m 549.32,260.28 c -0.0117,0.0156 -0.0117,0.043 -0.0273,0.0625 l -19.719,27.441 c -0.0625,0.0898 -0.16406,0.125 -0.23437,0.20312 -0.11719,0.12891 -0.20703,0.28516 -0.35156,0.39844 l -31.359,23.645 c -0.0547,0.043 -0.125,0.0234 -0.17969,0.0625 -0.125,0.0859 -0.22266,0.20312 -0.37109,0.26172 l -40.918,18.129 c -0.0781,0.0352 -0.15625,0.0234 -0.24219,0.0547 -0.0859,0.0273 -0.15234,0.0898 -0.24219,0.11328 l -47.656,11.391 c -0.11328,0.0273 -0.22266,0.0273 -0.33594,0.0391 -0.0391,0.004 -0.0664,0.0273 -0.10547,0.0352 l -51.207,3.9141 c -0.0742,0.0117 -0.14063,0.0117 -0.20703,0.0117 v -0.008 h -0.004 c -0.0664,0 -0.13281,0 -0.20703,-0.0117 l -51.207,-3.9141 c -0.0391,-0.004 -0.0664,-0.0273 -0.10547,-0.0351 -0.11328,-0.0117 -0.22266,-0.0117 -0.33594,-0.0391 l -47.527,-11.391 c -0.0898,-0.0234 -0.15625,-0.0898 -0.24219,-0.11719 -0.0781,-0.0273 -0.16406,-0.0156 -0.23438,-0.0508 l -40.918,-18.129 c -0.14453,-0.0625 -0.24219,-0.17969 -0.37109,-0.26172 -0.0547,-0.0391 -0.125,-0.0156 -0.17969,-0.0625 l -31.359,-23.645 c -0.14453,-0.11719 -0.23438,-0.26953 -0.35156,-0.39844 -0.0664,-0.0781 -0.16797,-0.11328 -0.23047,-0.19531 l -19.848,-27.441 c -0.0156,-0.0234 -0.0156,-0.0508 -0.0352,-0.0742 -0.16797,-0.24609 -0.29297,-0.52734 -0.375,-0.82812 -0.0117,-0.043 -0.0391,-0.0859 -0.0508,-0.125 v -0.004 l -1.0859,-4.8438 v 11.027 l 6.4219,28.656 19.266,26.629 30.766,23.199 40.383,17.891 47.074,11.289 50.758,3.8906 50.766,-3.8789 47.195,-11.285 40.387,-17.898 30.754,-23.191 19.145,-26.641 6.5391,-28.66 v -11.465 l -1.2031,5.2812 c -0.004,0.0273 -0.0273,0.0508 -0.0352,0.0781 -0.0781,0.33203 -0.21094,0.625 -0.39062,0.89062 z"
       id="path1363" />
    <path
       d="m 167.91,200.83 -6.3555,28.359 6.3555,28.34 19.266,26.641 30.758,23.195 40.391,17.883 47.07,11.293 50.766,3.8789 50.766,-3.8789 47.195,-11.285 40.387,-17.891 30.754,-23.195 19.148,-26.645 6.4688,-28.336 -6.4688,-28.355 -19.148,-26.762 -27.715,-20.934 -3.0273,-2.25 -40.398,-17.898 -47.195,-11.277 -50.766,-3.8867 -50.766,3.8867 -47.07,11.285 -40.422,17.902 -3.125,2.2383 h -0.008 l -27.594,20.938 z"
       id="path1365" />
    <path
       d="m 597.52,303.31 c 0,0 0,0.004 -0.004,0.0117 -0.0859,0.34766 -0.23438,0.65625 -0.42188,0.94141 -0.0156,0.0234 -0.0156,0.043 -0.0351,0.0625 l -24.742,34.418 c -0.0547,0.0859 -0.15234,0.11719 -0.21875,0.19141 -0.11719,0.13281 -0.21094,0.29688 -0.36328,0.41016 l -39.199,29.52 c -0.0547,0.0391 -0.125,0.0273 -0.17969,0.0625 -0.12891,0.0898 -0.23047,0.19531 -0.37109,0.26172 l -51.211,22.664 c -0.0781,0.0352 -0.15625,0.0234 -0.23438,0.0508 -0.0899,0.0273 -0.15234,0.0937 -0.24609,0.11719 l -59.531,14.203 c -0.11328,0.0273 -0.22266,0.0273 -0.33594,0.0391 -0.0391,0.004 -0.0664,0.0274 -0.10547,0.0352 l -63.945,4.8984 c -0.0742,0 -0.14062,0.004 -0.20703,0.004 l -0.004,0.004 h -0.004 c -0.0664,0 -0.13281,-0.004 -0.20703,-0.004 l -63.945,-4.8984 c -0.0391,-0.004 -0.0664,-0.0274 -0.10547,-0.0352 -0.11328,-0.0117 -0.22266,-0.0117 -0.33594,-0.0391 l -59.535,-14.211 c -0.0937,-0.0234 -0.15625,-0.0898 -0.24609,-0.11719 -0.0781,-0.0273 -0.15625,-0.0156 -0.23438,-0.0508 l -51.207,-22.664 c -0.14453,-0.0664 -0.24219,-0.17188 -0.37109,-0.26173 -0.0547,-0.0352 -0.125,-0.0234 -0.17969,-0.0625 l -39.199,-29.51999 c -0.15234,-0.11719 -0.24609,-0.28125 -0.36328,-0.41017 -0.0664,-0.0781 -0.16797,-0.11327 -0.23047,-0.19531 l -24.625,-34.418 c -0.0117,-0.0234 -0.0117,-0.0469 -0.0273,-0.0625 -0.19141,-0.28125 -0.33984,-0.59375 -0.42578,-0.94531 0,-0.004 0,-0.0117 -0.004,-0.0156 l -2.9141,-12.727 v 15.238 l 8.2539,36.133 24.047,33.492 38.605,29.07 50.656,22.422 59.09,14.23 63.508,4.7383 63.504,-4.7383 59.09,-14.23 50.66399,-22.422 38.617,-29.074 24.148,-33.48 8.1406,-36.137 v -14.895 l -2.8086,12.395 v 0 z"
       id="path1367" />
    <path
       d="m 144.3,335.12 38.605,29.07 50.664,22.422 59.078,14.113 63.508,4.8672 63.508,-4.8672 59.078,-14.113 50.668,-22.422 38.613,-29.07 24.152,-33.609 8.0703,-35.707 -8.0703,-35.695 -24.16,-33.621 -38.605,-29.07 -8.9531,-3.9883 8.5195,6.4336 c 0.11328,0.0859 0.17188,0.20703 0.26953,0.30859 0.10547,0.10547 0.23438,0.17188 0.32422,0.29688 l 19.719,27.562 c 0.22266,0.32031 0.37109,0.66797 0.45312,1.0234 l 6.7305,29.508 c 0.004,0.0234 0,0.043 0,0.0664 0.0234,0.10547 0.0117,0.20703 0.0234,0.3125 0.0117,0.0859 0.0508,0.15625 0.0508,0.24219 v 36.625 c 0,0.11328 -0.0508,0.20703 -0.0625,0.3125 -0.0156,0.10547 0.0117,0.20703 -0.0117,0.30859 l -6.7305,29.512 c -0.004,0.0273 -0.0273,0.0547 -0.0352,0.0859 -0.0859,0.33203 -0.21875,0.61719 -0.39844,0.87891 -0.0117,0.0234 -0.0117,0.043 -0.0273,0.0664 l -19.723,27.434 c -0.0547,0.0898 -0.15234,0.11719 -0.21875,0.19141 -0.125,0.13281 -0.21094,0.29688 -0.36328,0.41016 l -31.359,23.645 c -0.0547,0.0391 -0.125,0.0273 -0.17969,0.0625 -0.125,0.0898 -0.22266,0.19531 -0.37109,0.26172 l -40.918,18.133 c -0.0781,0.0352 -0.15625,0.0234 -0.24219,0.0547 -0.0859,0.0273 -0.15234,0.0898 -0.24219,0.11328 l -47.656,11.391 c -0.11328,0.0273 -0.22266,0.0273 -0.33594,0.0391 -0.0391,0.004 -0.0664,0.0273 -0.10547,0.0352 l -51.207,3.9141 c -0.0742,0.0117 -0.14062,0.0117 -0.20703,0.0117 h 0.004 -0.004 c -0.0664,0 -0.13281,0 -0.20703,-0.0117 l -51.207,-3.9141 c -0.0391,-0.004 -0.0664,-0.0273 -0.10547,-0.0352 -0.11328,-0.0117 -0.22266,-0.0117 -0.33594,-0.0391 l -47.527,-11.391 c -0.0898,-0.0234 -0.15625,-0.0899 -0.24219,-0.11719 -0.0781,-0.0273 -0.16406,-0.0156 -0.23438,-0.0508 l -40.918,-18.133 c -0.14453,-0.0664 -0.24219,-0.17188 -0.37109,-0.26172 -0.0547,-0.0352 -0.125,-0.0234 -0.17969,-0.0625 l -31.359,-23.645 c -0.14453,-0.11328 -0.23438,-0.26953 -0.35156,-0.40234 -0.0742,-0.0781 -0.16797,-0.11328 -0.23047,-0.19141 l -19.848,-27.434 c -0.0156,-0.0234 -0.0156,-0.0508 -0.0352,-0.0742 -0.16797,-0.24609 -0.29297,-0.52734 -0.375,-0.82422 -0.0117,-0.043 -0.0391,-0.0899 -0.0508,-0.125 v -0.004 l -6.6211,-29.523 c -0.0234,-0.10547 0,-0.20312 -0.004,-0.30859 -0.0117,-0.10547 -0.0625,-0.19531 -0.0625,-0.30859 v -36.625 c 0,-0.0898 0.0391,-0.16406 0.0508,-0.24609 0.0117,-0.10547 0,-0.21094 0.0156,-0.3125 0.004,-0.0156 0,-0.0352 0,-0.0547 l 6.6211,-29.523 c 0.0781,-0.35938 0.23047,-0.70703 0.46094,-1.0195 l 19.848,-27.562 c 0.0859,-0.11719 0.20703,-0.17969 0.30078,-0.28125 0.10156,-0.10156 0.16406,-0.23047 0.28125,-0.3125 l 8.6016,-6.5234 -9.1523,4.0781 -38.605,29.07 -24.051,33.621 -8.1797,35.695 8.1797,35.699 z"
       id="path1369" />
  </g>
  <path
     style="fill:#180f0f;fill-opacity:1;stroke-width:5.66073;paint-order:fill markers stroke"
     d=""
     id="path1613"
     transform="scale(0.75)" />
  <path
     style="fill:#180f0f;fill-opacity:1;stroke-width:5.66073;paint-order:fill markers stroke"
     d=""
     id="path1623"
     transform="scale(0.75)" />
  <path
     style="fill:#0d0707;fill-opacity:1;stroke-width:5.66073;paint-order:fill markers stroke"
     d=""
     id="path5540"
     transform="scale(0.75)" />
  <path
     style="fill:#fcfcfc;fill-opacity:1;stroke-width:7.24398;paint-order:fill markers stroke"
     d="m 18.15992,1310.9997 c -4.684187,-1.4234 -12.5487287,-8.7226 -15.1190622,-14.0321 -7.6866223,-15.8785 4.6460637,-34.9294 22.6116932,-34.9294 7.566755,0 13.326908,2.6471 18.444931,8.4762 4.591381,5.2292 6.366829,9.758 6.366829,16.2402 0,9.2966 -5.264098,17.7874 -13.736686,22.1571 -4.549724,2.3465 -14.160393,3.4273 -18.567705,2.088 z"
     id="path9314" />
  <g
     id="botonplay3"
     transform="translate(132.26803,-37.416903)">
    <g
       id="botonplay2"
       transform="matrix(0.21972656,0,0,0.21972656,253.52468,73.524903)"
       inkscape:transform-center-x="-53.829936"
       inkscape:transform-center-y="200.82707">
      <g
         id="g888">
        <circle
           style="fill:#1fcfc1"
           cx="256"
           cy="256"
           r="245.80099"
           id="circle2" />
        <polygon
           style="fill:#f2f2f2"
           points="195.825,391.629 376.351,256 195.825,120.371 "
           id="polygon4" />
      </g>
      <g
         id="g14">
        <path
           style="fill:#4d4d4d"
           d="M 256,512 C 187.619,512 123.333,485.372 74.981,437.02 26.628,388.667 0,324.38 0,256 0,187.62 26.628,123.333 74.981,74.98 123.333,26.628 187.619,0 256,0 324.381,0 388.667,26.628 437.019,74.98 485.372,123.333 512,187.62 512,256 512,324.38 485.372,388.667 437.019,437.02 388.667,485.372 324.381,512 256,512 Z M 256,20.398 C 126.089,20.398 20.398,126.089 20.398,256 20.398,385.911 126.089,491.602 256,491.602 385.911,491.602 491.602,385.911 491.602,256 491.602,126.089 385.911,20.398 256,20.398 Z"
           id="path6" />
        <path
           style="fill:#4d4d4d"
           d="m 195.824,401.828 c -1.553,0 -3.115,-0.355 -4.557,-1.075 -3.458,-1.727 -5.641,-5.26 -5.641,-9.124 V 120.371 c 0,-3.864 2.185,-7.397 5.641,-9.124 3.458,-1.726 7.593,-1.351 10.685,0.97 l 180.526,135.629 c 2.564,1.927 4.073,4.948 4.073,8.154 0,3.206 -1.508,6.228 -4.073,8.154 L 201.951,399.783 c -1.801,1.354 -3.957,2.045 -6.127,2.045 z m 10.2,-261.037 V 371.209 L 359.371,256 Z"
           id="path8" />
        <path
           style="fill:#4d4d4d"
           d="m 256,473.243 c -5.632,0 -10.199,-4.566 -10.199,-10.199 0,-5.633 4.567,-10.199 10.199,-10.199 52.815,0 102.404,-20.633 139.633,-58.1 3.973,-3.996 10.429,-4.015 14.425,-0.045 3.995,3.971 4.016,10.428 0.046,14.424 -41.088,41.347 -95.817,64.119 -154.104,64.119 z"
           id="path10" />
        <path
           style="fill:#4d4d4d"
           d="m 430.396,377.825 c -1.886,0 -3.793,-0.522 -5.498,-1.617 -4.741,-3.041 -6.118,-9.351 -3.076,-14.092 1.514,-2.36 2.998,-4.788 4.411,-7.216 2.834,-4.867 9.077,-6.516 13.945,-3.684 4.868,2.833 6.518,9.077 3.684,13.945 -1.56,2.681 -3.201,5.363 -4.873,7.97 -1.946,3.037 -5.235,4.694 -8.593,4.694 z"
           id="path12" />
      </g>
    </g>
    <path
       style="fill:#111111;fill-opacity:1;stroke-width:9.46993;paint-order:fill markers stroke"
       d="m 398.2035,245.68283 c -33.17599,-7.44838 -56.79653,-34.8171 -58.94684,-68.30072 -4.22585,-65.80293 74.44016,-103.552453 123.17128,-59.10631 16.39331,14.95183 24.26573,32.47516 24.37474,54.25605 0.0705,14.09915 -1.49593,21.07983 -7.48841,33.37005 -14.37005,29.47215 -49.74645,46.82256 -81.11077,39.78093 z m 34.70605,-6.19246 c 29.51235,-9.23306 49.4895,-35.7943 49.4895,-65.80032 0,-36.17162 -24.54909,-64.35415 -60.49361,-69.44707 -44.4727,-6.301269 -84.16972,33.47696 -77.75443,77.91349 3.99111,27.64504 24.11281,50.91741 50.05615,57.89396 11.05178,2.972 28.20606,2.72376 38.70239,-0.56006 z"
       id="path8622"
       transform="scale(0.75)" />
    <path
       style="fill:#111111;fill-opacity:1;stroke-width:9.46993;paint-order:fill markers stroke"
       d="m 393.60266,213.70945 c -0.5061,-0.50609 -0.92017,-19.13953 -0.92017,-41.40765 0,-36.84588 0.20662,-40.48747 2.29726,-40.48747 2.85603,0 56.01376,39.72441 55.417,41.41274 -0.58137,1.64478 -53.03782,41.40255 -54.62658,41.40255 -0.68604,0 -1.66142,-0.41408 -2.16751,-0.92017 z M 425.11847,187.87 c 9.86882,-7.38963 18.11963,-13.92686 18.33513,-14.52718 0.31472,-0.87673 -36.98553,-29.79845 -43.52478,-33.74806 -1.36216,-0.82273 -1.72532,6.27266 -1.72532,33.70958 v 34.75165 l 4.48583,-3.37515 c 2.46721,-1.85633 12.56032,-9.42121 22.42914,-16.81084 z"
       id="path9868"
       transform="scale(0.75)" />
    <path
       style="fill:#111111;fill-opacity:1;stroke-width:9.46993;paint-order:fill markers stroke"
       d="m 410.90357,233.80655 c 0.38503,-1.15717 3.64692,-2.30269 8.18581,-2.87471 10.88691,-1.37206 22.24729,-6.01827 30.32268,-12.4015 8.97947,-7.09787 12.18243,-5.24463 3.88751,2.24933 -8.67122,7.83392 -21.74863,13.42751 -33.32986,14.25614 -7.89702,0.56503 -9.58692,0.3359 -9.06614,-1.22926 z"
       id="path9870"
       transform="scale(0.75)" />
    <path
       style="fill:#111111;fill-opacity:1;stroke-width:9.46993;paint-order:fill markers stroke"
       d="m 461.69522,206.6119 c 0,-0.61405 0.83687,-2.26093 1.8597,-3.65974 2.09533,-2.86553 4.48857,-0.75071 3.13682,2.7719 -0.80213,2.09033 -4.99652,2.83563 -4.99652,0.88784 z"
       id="path9876"
       transform="scale(0.75)" />
  </g>
  <g
     id="g15465"
     transform="translate(-183.08475,-112.05265)">
    <g
       id="informacion2"
       transform="matrix(0.21972656,0,0,0.21972656,393.75,356.3554)">
      <circle
         style="fill:#00c3ff"
         cx="256"
         cy="256"
         r="150.39301"
         id="circle7165" />
      <path
         style="fill:#00aaf0"
         d="m 293.598,381.327 c -83.06,0 -150.393,-67.334 -150.393,-150.393 0,-44.089 19.089,-83.621 49.315,-111.129 -51.291,23.953 -86.913,75.851 -86.913,136.195 0,83.059 67.333,150.393 150.393,150.393 38.972,0 74.364,-14.95 101.081,-39.266 -19.308,9.018 -40.767,14.2 -63.483,14.2 z"
         id="path7167" />
      <g
         id="g7173">
        <circle
           style="fill:#ffffff"
           cx="256"
           cy="176.38"
           r="17.693001"
           id="circle7169" />
        <rect
           x="238.30701"
           y="220.61301"
           style="fill:#ffffff"
           width="35.387001"
           height="123.853"
           id="rect7171" />
      </g>
      <path
         d="M 437.019,74.981 C 388.668,26.628 324.38,0 256,0 182.385,0 113.651,30.975 65.041,85.5 l 4.543,-31.8 c 0.647,-4.535 -2.504,-8.735 -7.038,-9.383 -4.535,-0.644 -8.735,2.504 -9.383,7.038 l -8.847,61.927 c -0.406,2.845 0.69,5.698 2.896,7.541 1.514,1.263 3.4,1.926 5.316,1.926 0.878,0 1.764,-0.139 2.622,-0.426 l 53.08,-17.693 c 4.346,-1.449 6.694,-6.145 5.246,-10.491 -1.449,-4.346 -6.147,-6.695 -10.491,-5.246 l -26.668,8.89 C 121.838,46.021 186.602,16.587 256,16.587 c 63.949,0 124.071,24.903 169.291,70.122 45.219,45.22 70.122,105.342 70.122,169.291 0,35.905 -7.751,70.427 -23.037,102.605 -1.965,4.138 -0.205,9.084 3.932,11.051 1.149,0.546 2.36,0.805 3.553,0.805 3.103,0 6.078,-1.749 7.498,-4.737 C 503.71,331.303 512,294.387 512,256 512,187.62 485.372,123.332 437.019,74.981 Z"
         id="path7175" />
      <path
         d="m 464.788,391.179 c -2.207,-1.841 -5.21,-2.41 -7.937,-1.501 l -53.08,17.693 c -4.346,1.449 -6.694,6.145 -5.246,10.491 1.449,4.346 6.146,6.694 10.491,5.246 l 26.61,-8.87 C 415.451,437.083 390.9,456.14 363.799,469.83 330.195,486.805 293.926,495.411 256,495.411 192.051,495.411 131.929,470.508 86.709,425.289 41.491,380.071 16.587,319.949 16.587,256 c 0,-35.905 7.751,-70.427 23.037,-102.605 1.965,-4.138 0.205,-9.084 -3.932,-11.051 -4.138,-1.965 -9.084,-0.203 -11.051,3.932 C 8.29,180.697 0,217.613 0,256 0,324.38 26.628,388.668 74.981,437.019 123.334,485.37 187.62,512 256,512 c 40.549,0 79.333,-9.206 115.277,-27.364 28.483,-14.388 54.333,-34.317 75.69,-58.188 l -4.551,31.851 c -0.647,4.535 2.504,8.735 7.038,9.383 0.398,0.056 0.793,0.084 1.183,0.084 4.061,0 7.609,-2.986 8.201,-7.122 l 8.847,-61.927 c 0.405,-2.844 -0.691,-5.697 -2.897,-7.538 z"
         id="path7177" />
      <path
         d="M 414.687,256 C 414.687,168.5 343.5,97.313 256,97.313 168.5,97.313 97.313,168.5 97.313,256 97.313,343.5 168.5,414.687 256,414.687 343.5,414.687 414.687,343.5 414.687,256 Z m -300.786,0 c 0,-78.354 63.746,-142.099 142.099,-142.099 78.353,0 142.099,63.745 142.099,142.099 0,78.354 -63.745,142.099 -142.099,142.099 -78.354,0 -142.099,-63.745 -142.099,-142.099 z"
         id="path7179" />
      <path
         d="m 282.54,352.76 c 4.58,0 8.294,-3.713 8.294,-8.294 0,-4.581 -3.713,-8.294 -8.294,-8.294 h -0.553 V 228.907 h 0.553 c 4.58,0 8.294,-3.713 8.294,-8.294 0,-4.581 -3.713,-8.294 -8.294,-8.294 h -53.08 c -4.58,0 -8.294,3.713 -8.294,8.294 0,4.581 3.713,8.294 8.294,8.294 h 0.553 v 107.266 h -0.553 c -4.58,0 -8.294,3.713 -8.294,8.294 0,4.581 3.713,8.294 8.294,8.294 h 53.08 z M 246.6,228.907 h 18.8 v 107.266 h -18.8 z"
         id="path7181" />
      <path
         d="m 256,202.367 c 14.329,0 25.987,-11.658 25.987,-25.987 0,-14.329 -11.658,-25.987 -25.987,-25.987 -14.329,0 -25.987,11.658 -25.987,25.987 0,14.329 11.658,25.987 25.987,25.987 z m 0,-35.386 c 5.183,0 9.4,4.217 9.4,9.4 0,5.183 -4.217,9.4 -9.4,9.4 -5.183,0 -9.4,-4.217 -9.4,-9.4 0,-5.183 4.217,-9.4 9.4,-9.4 z"
         id="path7183" />
    </g>
    <path
       style="fill:#00c3ff;fill-opacity:1;stroke-width:9.46993;paint-order:fill markers stroke"
       d="m 594.49573,582.97098 c -9.87128,-3.79317 -19.89571,-13.95538 -23.64121,-23.96613 -5.49862,-14.69638 -2.55345,-34.53944 6.29193,-42.39186 8.37838,-7.43783 26.42018,-9.30544 38.47939,-3.9832 23.63918,10.43295 32.46752,39.79973 18.05768,60.06748 -7.45002,10.47861 -12.23575,13.23328 -22.84387,13.14897 -5.62299,-0.0447 -11.81041,-1.1332 -16.34392,-2.87526 z m 15.86852,-6.28677 c 0.49976,-1.30235 0.17581,-2.57245 -0.73344,-2.87553 -2.19734,-0.73245 -2.25639,-29.49851 -0.0651,-31.68985 0.85994,-0.85994 1.18999,-2.53695 0.73344,-3.72669 -1.17261,-3.05578 -17.75795,-3.0838 -20.28883,-0.0343 -1.33825,1.61249 -1.37925,2.51645 -0.16901,3.72669 2.12066,2.12065 2.17435,30.28266 0.0618,32.39525 -2.99813,2.99813 0.37424,4.53707 9.94235,4.53707 7.76201,0 9.7968,-0.45124 10.51877,-2.33267 z m -4.88615,-44.11979 c 6.35142,-5.74794 -0.12953,-16.30545 -8.25522,-13.4478 -5.09827,1.79297 -6.94509,7.54288 -3.91033,12.17451 2.72925,4.16537 8.32292,4.75083 12.16555,1.27329 z"
       id="path12872"
       transform="scale(0.75)" />
    <path
       style="fill:#00c3ff;fill-opacity:1;stroke-width:9.46993;paint-order:fill markers stroke"
       d="m 597.46359,584.41498 c -11.44279,-3.31638 -24.82639,-16.96219 -28.06198,-28.61175 -3.4614,-12.46257 -0.67401,-30.19581 5.86622,-37.32068 5.057,-5.50905 14.34704,-8.88437 24.45287,-8.88437 32.64089,0 52.50892,37.0136 33.90999,63.1734 -7.42148,10.43846 -12.19835,13.16782 -22.79104,13.02209 -4.97671,-0.0685 -10.99594,-0.68887 -13.37606,-1.37869 z m 12.90066,-7.73077 c 0.49976,-1.30235 0.17581,-2.57245 -0.73344,-2.87553 -2.19734,-0.73245 -2.25639,-29.49851 -0.0651,-31.68985 0.85994,-0.85994 1.18999,-2.53695 0.73344,-3.72669 -1.17261,-3.05578 -17.75795,-3.0838 -20.28883,-0.0343 -1.33825,1.61249 -1.37925,2.51645 -0.16901,3.72669 2.12066,2.12065 2.17435,30.28266 0.0618,32.39525 -2.99813,2.99813 0.37424,4.53707 9.94235,4.53707 7.76201,0 9.7968,-0.45124 10.51877,-2.33267 z m -4.88615,-44.11979 c 6.35142,-5.74794 -0.12953,-16.30545 -8.25522,-13.4478 -5.09827,1.79297 -6.94509,7.54288 -3.91033,12.17451 2.72925,4.16537 8.32292,4.75083 12.16555,1.27329 z"
       id="path12874"
       transform="scale(0.75)" />
    <path
       style="fill:#1fcfc1;fill-opacity:1;stroke-width:9.46993;paint-order:fill markers stroke"
       d="m 597.46359,584.41498 c -11.95561,-3.46501 -24.88258,-16.88229 -28.22517,-29.29574 -2.34818,-8.72047 -1.06506,-23.97182 2.65886,-31.60353 2.59895,-5.32624 4.54322,-7.17264 10.75099,-10.20982 15.53112,-7.59867 34.43744,-3.89755 46.61977,9.12634 13.99691,14.96383 15.49014,33.78275 4.02319,50.70344 -6.82491,10.07087 -11.74017,12.81276 -22.69141,12.658 -4.8448,-0.0685 -10.75611,-0.68887 -13.13623,-1.37869 z m 12.90066,-7.73077 c 0.49976,-1.30235 0.17581,-2.57245 -0.73344,-2.87553 -2.29834,-0.76612 -2.21515,-28.38917 0.0967,-32.11952 2.41749,-3.90075 -0.41271,-5.41246 -10.18291,-5.43904 -8.28294,-0.0225 -11.68437,1.97843 -9.4279,5.54617 1.84841,2.92257 1.6662,30.80371 -0.21361,32.68351 -2.99813,2.99814 0.37424,4.53708 9.94235,4.53708 7.76201,0 9.7968,-0.45124 10.51877,-2.33267 z m -4.88615,-44.11979 c 3.31263,-2.99788 3.20847,-8.07339 -0.23638,-11.51824 -3.7657,-3.7657 -7.52745,-3.46445 -10.94186,0.87627 -3.57611,4.54629 -3.59703,6.66892 -0.10018,10.16577 3.35651,3.3565 7.88447,3.54769 11.27842,0.4762 z"
       id="path13154"
       transform="scale(0.75)" />
    <path
       style="fill:#1fcfc1;fill-opacity:1;stroke-width:9.46993;paint-order:fill markers stroke"
       d="m 593.18945,581.82573 c -7.23909,-3.28613 -17.12397,-13.28293 -20.9507,-21.18791 -2.2074,-4.55987 -2.88365,-8.61639 -2.88365,-17.29755 0,-16.54261 3.626,-24.00034 14.32374,-29.46014 13.14712,-6.7099 30.35574,-3.97094 42.25213,6.72494 16.76014,15.06881 18.60831,36.79446 4.68315,55.05129 -2.05704,2.69693 -5.47093,5.79856 -7.58642,6.89252 -5.73802,2.96724 -22.60936,2.55836 -29.83825,-0.72315 z m 16.46724,-6.94961 c -0.4842,-4.01713 -0.43461,-27.75703 0.0706,-33.81625 l 0.34528,-4.14076 -8.97165,-0.35594 c -4.93441,-0.19577 -9.67481,0.1148 -10.53422,0.69013 -1.07329,0.71851 -1.26998,4.20871 -0.62815,11.14626 0.51392,5.5551 0.50278,14.25071 -0.0248,19.32357 -0.52755,5.07285 -0.65791,9.71535 -0.28968,10.31666 0.36823,0.60131 5.11977,0.91187 10.55898,0.69013 9.64939,-0.39338 9.87939,-0.48694 9.47356,-3.8538 z m -3.82343,-42.19636 c 4.76058,-4.76058 1.02433,-14.39409 -5.58258,-14.39409 -3.82081,0 -8.81151,4.97182 -8.81151,8.77817 0,6.63303 9.62266,10.38735 14.39409,5.61592 z"
       id="path13156"
       transform="scale(0.75)" />
    <path
       style="fill:#1fcfc1;fill-opacity:1;stroke-width:9.46993;paint-order:fill markers stroke"
       d="m 591.75335,580.98532 c -7.71798,-3.84603 -16.99187,-13.78507 -20.34042,-21.79928 -1.26514,-3.02789 -2.05783,-9.35711 -2.05783,-16.43057 0,-15.51762 3.92234,-23.87299 13.43783,-28.62525 14.05265,-7.01824 30.85337,-4.57012 42.88718,6.24931 16.96258,15.25081 18.92119,37.18407 4.95554,55.49398 -5.12022,6.71295 -9.98593,8.66439 -21.60374,8.66439 -8.13704,0 -11.563,-0.7044 -17.27856,-3.55258 z m 17.89403,-6.1092 c -0.49909,-4.04996 -0.44821,-29.49654 0.069,-34.50637 0.34407,-3.3328 0.0455,-3.46441 -8.74325,-3.85382 -6.21809,-0.2755 -9.53497,0.16156 -10.47475,1.38026 -0.80573,1.04487 -1.02561,5.6417 -0.53094,11.10015 0.46437,5.1242 0.46349,13.50924 -0.002,18.63344 -0.46544,5.12419 -0.58201,9.8087 -0.25904,10.41001 0.32296,0.60131 5.03747,0.91187 10.47669,0.69013 9.65223,-0.39349 9.87926,-0.48594 9.46423,-3.8538 z m -4.16928,-42.3117 c 3.09067,-2.79701 3.23571,-7.12758 0.37548,-11.21112 -2.72485,-3.89028 -7.12192,-3.91635 -11.21987,-0.0665 -4.03756,3.79309 -4.09142,8.63645 -0.1269,11.4133 3.96177,2.77493 7.80768,2.72738 10.9713,-0.13565 z"
       id="path13158"
       transform="scale(0.75)" />
    <path
       style="fill:#1fcfc1;fill-opacity:1;stroke-width:9.46993;paint-order:fill markers stroke"
       d="m 591.79943,581.00828 c -14.59621,-7.2736 -22.73899,-20.63791 -22.67397,-37.21361 0.0723,-18.43717 5.0147,-27.2583 17.69294,-31.57822 13.8021,-4.70284 27.95212,-1.64558 39.20345,8.47033 16.67123,14.98887 18.50888,36.96934 4.6138,55.18673 -5.12022,6.71295 -9.98593,8.66439 -21.60374,8.66439 -8.11994,0 -11.5658,-0.70579 -17.23248,-3.52962 z m 17.00307,-20.96502 c 0.0606,-10.05592 0.52102,-18.69438 1.02321,-19.19657 0.5022,-0.50219 0.2213,-1.74662 -0.6242,-2.76539 -1.65661,-1.9961 -14.50819,-2.56268 -17.33672,-0.76431 -1.13839,0.72377 -1.61935,6.41335 -1.56221,18.48018 0.0454,9.58895 -0.33805,18.11502 -0.85213,18.94683 -1.97061,3.1885 1.04251,4.38493 10.04395,3.98817 l 9.19796,-0.40542 z m -3.3244,-27.47884 c 3.31263,-2.99788 3.20847,-8.07339 -0.23638,-11.51824 -3.7657,-3.7657 -7.52745,-3.46445 -10.94186,0.87627 -3.57611,4.54629 -3.59703,6.66892 -0.10018,10.16577 3.35651,3.3565 7.88447,3.54769 11.27842,0.4762 z"
       id="path13160"
       transform="scale(0.75)" />
    <path
       style="fill:#1fcfc1;fill-opacity:1;stroke-width:9.46993;paint-order:fill markers stroke"
       d="m 591.79943,581.00828 c -8.36684,-4.16937 -16.16562,-12.34989 -19.96766,-20.94504 -3.76494,-8.51126 -3.16008,-28.80703 1.10058,-36.92992 8.34506,-15.90969 36.48145,-17.3786 52.74776,-2.75379 16.96258,15.25081 18.92119,37.18407 4.95554,55.49398 -5.12022,6.71295 -9.98593,8.66439 -21.60374,8.66439 -8.11994,0 -11.5658,-0.70579 -17.23248,-3.52962 z m 17.0748,-22.69522 c 0.12324,-13.56289 -0.32163,-20.34054 -1.38026,-21.02775 -2.03933,-1.32384 -13.51739,-1.31111 -15.60593,0.0173 -1.10952,0.7057 -1.60034,6.6013 -1.55444,18.67146 0.0369,9.70206 -0.31498,18.02217 -0.78195,18.48914 -0.46697,0.46697 -0.13478,1.70966 0.73819,2.76153 1.11175,1.33956 4.10591,1.79109 9.99487,1.50725 l 8.40765,-0.40525 z m -3.63251,-26.22484 c 1.51828,-1.51828 2.76051,-4.00274 2.76051,-5.52102 0,-3.27236 -4.62969,-8.28153 -7.65414,-8.28153 -2.76116,0 -8.90892,6.14776 -8.90892,8.90892 0,3.02445 5.00918,7.65414 8.28153,7.65414 1.51828,0 4.00274,-1.24223 5.52102,-2.76051 z"
       id="path13162"
       transform="scale(0.75)" />
    <path
       style="fill:#1fcfc1;fill-opacity:1;stroke-width:9.46993;paint-order:fill markers stroke"
       d="m 591.79943,581.00828 c -8.36684,-4.16937 -16.16562,-12.34989 -19.96766,-20.94504 -3.76494,-8.51126 -3.16008,-28.80703 1.10058,-36.92992 5.67211,-10.81377 24.12487,-16.06949 39.03367,-11.11758 8.9866,2.98487 19.6359,12.54878 24.22324,21.75437 6.46287,12.96929 4.32902,29.14661 -5.55361,42.1034 -5.12022,6.71295 -9.98593,8.66439 -21.60374,8.66439 -8.11994,0 -11.5658,-0.70579 -17.23248,-3.52962 z m 15.5681,-3.04773 c 2.01948,-1.42641 2.10344,-39.33712 0.0901,-40.67524 -2.52633,-1.67905 -14.19784,-1.18191 -15.7062,0.66899 -1.37488,1.68709 -2.09364,37.91661 -0.79396,40.01954 0.82647,1.33727 14.51367,1.32619 16.41007,-0.0132 z m -2.12581,-45.87233 c 3.49685,-3.49685 3.47593,-5.61948 -0.10018,-10.16577 -3.5584,-4.52378 -5.98111,-4.58224 -10.31447,-0.24888 -4.18077,4.18077 -4.27089,6.72397 -0.36712,10.36088 3.81733,3.55638 7.26198,3.57356 10.78177,0.0538 z"
       id="path13164"
       transform="scale(0.75)" />
    <path
       style="fill:#1fcfc1;fill-opacity:1;stroke-width:9.46993;paint-order:fill markers stroke"
       d="m 591.79943,581.00828 c -8.36684,-4.16937 -16.16562,-12.34989 -19.96766,-20.94504 -3.5764,-8.08504 -3.1073,-28.62115 0.83715,-36.64869 5.43853,-11.06823 24.01876,-16.47346 39.24376,-11.41652 9.04199,3.00326 19.67626,12.54045 24.27658,21.77208 6.46287,12.96929 4.32902,29.14661 -5.55361,42.1034 -5.12022,6.71295 -9.98593,8.66439 -21.60374,8.66439 -8.11994,0 -11.5658,-0.70579 -17.23248,-3.52962 z m 15.38491,-3.16492 c 0.3989,-0.64544 0.99655,-9.66193 1.32811,-20.03664 0.55122,-17.24817 0.3857,-18.97931 -1.93333,-20.22042 -3.73861,-2.00084 -11.88984,-1.64973 -14.14904,0.60947 -2.55346,2.55346 -3.01585,38.17283 -0.51618,39.76346 2.21603,1.41015 14.38437,1.31782 15.27044,-0.11587 z m -1.94262,-45.75514 c 3.59765,-3.59765 3.48225,-5.90827 -0.52794,-10.57039 -2.96201,-3.44354 -3.64912,-3.65873 -6.9216,-2.16768 -1.99824,0.91045 -4.37807,3.29029 -5.28853,5.28852 -1.49104,3.27249 -1.27586,3.9596 2.16768,6.92161 4.66212,4.01018 6.97274,4.12559 10.57039,0.52794 z"
       id="path15005"
       transform="scale(0.75)" />
    <path
       style="fill:#1fcfc1;fill-opacity:1;stroke-width:9.46993;paint-order:fill markers stroke"
       d="m 591.79943,581.00828 c -8.3844,-4.17813 -16.16707,-12.35316 -19.99189,-20.9998 -3.89112,-8.79652 -3.1368,-30.46496 1.31108,-37.66178 6.45459,-10.44374 24.23097,-15.18576 38.79406,-10.34867 9.04199,3.00326 19.67626,12.54045 24.27658,21.77208 4.92445,9.88208 4.92571,22.23429 0.003,32.82448 -6.6073,14.21526 -12.25043,17.94331 -27.16071,17.94331 -8.11994,0 -11.5658,-0.70579 -17.23248,-3.52962 z m 14.36889,-3.06207 c 1.07482,-0.68369 1.74744,-7.415 2.00668,-20.08227 0.31668,-15.47311 0.0128,-19.29243 -1.61672,-20.32328 -2.39869,-1.51739 -11.04371,-1.6847 -13.19398,-0.25535 -2.41797,1.6073 -3.95869,39.08676 -1.66655,40.54033 2.25081,1.42737 12.28475,1.51097 14.47057,0.12057 z m -0.9266,-45.85799 c 3.59765,-3.59765 3.48225,-5.90827 -0.52794,-10.57039 -2.84345,-3.30571 -3.73277,-3.62061 -6.57188,-2.32703 -1.80589,0.82282 -4.1933,3.19614 -5.30536,5.27405 -1.9144,3.57709 -1.81772,3.95367 1.81796,7.08094 4.67894,4.02466 6.98675,4.1429 10.58722,0.54243 z"
       id="path15007"
       transform="scale(0.75)" />
    <path
       style="fill:#1fcfc1;fill-opacity:1;stroke-width:9.46993;paint-order:fill markers stroke"
       d="m 591.79943,581.00828 c -8.3844,-4.17813 -16.16707,-12.35316 -19.99189,-20.9998 -2.30675,-5.21481 -2.66354,-8.4013 -2.18251,-19.49252 0.69651,-16.05977 2.79337,-20.66919 11.81498,-25.97231 5.77863,-3.39682 7.92786,-3.84938 18.28069,-3.84938 10.25493,0 12.52877,0.46831 18.05876,3.71932 7.778,4.57258 15.86506,13.33836 19.31512,20.93616 3.90531,8.60037 3.52667,21.71687 -0.90196,31.24484 -6.6073,14.21526 -12.25043,17.94331 -27.16071,17.94331 -8.11994,0 -11.5658,-0.70579 -17.23248,-3.52962 z m 14.01953,-2.8292 c 1.85048,-0.7101 2.18327,-3.85637 2.18327,-20.64128 v -19.80348 l -4.93652,-0.92609 c -2.71508,-0.50935 -6.34304,-0.28524 -8.06212,0.49802 -2.94815,1.34327 -3.17535,2.46403 -4.00175,19.74087 -0.59762,12.49403 -0.39426,18.89737 0.63973,20.14325 1.55602,1.87489 10.2822,2.48344 14.17739,0.98871 z m -0.68755,-46.66356 c 3.6885,-3.92624 2.97519,-8.05268 -1.94985,-11.27969 -3.89836,-2.55431 -7.84609,-0.70992 -10.37893,4.84904 -1.40693,3.0879 -1.16703,3.86418 2.04913,6.63061 4.61743,3.97174 6.39298,3.93721 10.27965,-0.19996 z"
       id="path15009"
       transform="scale(0.75)" />
    <path
       style="fill:#1fcfc1;fill-opacity:1;stroke-width:9.46993;paint-order:fill markers stroke"
       d="m 591.79943,581.00828 c -8.3844,-4.17813 -16.16707,-12.35316 -19.99189,-20.9998 -2.30675,-5.21481 -2.66354,-8.4013 -2.18251,-19.49252 0.69651,-16.05977 2.79337,-20.66919 11.81498,-25.97231 5.78532,-3.40075 7.91588,-3.84799 18.28069,-3.83745 13.34242,0.0136 17.18893,1.53657 27.28196,10.80211 12.84086,11.7881 16.44603,29.4752 9.18996,45.08628 -6.6073,14.21526 -12.25043,17.94331 -27.16071,17.94331 -8.11994,0 -11.5658,-0.70579 -17.23248,-3.52962 z m 14.5465,-3.6477 c 1.12768,-1.12769 1.6563,-7.71553 1.6563,-20.64128 v -18.98498 l -4.93652,-0.92609 c -2.78456,-0.52239 -6.39469,-0.26171 -8.28152,0.59799 -3.18863,1.45284 -3.35301,2.15463 -3.51608,15.01117 -0.0941,7.41789 -0.32312,15.831 -0.50899,18.69581 -0.23406,3.6077 0.34884,5.61002 1.89638,6.51424 3.18185,1.85914 11.73107,1.6925 13.69043,-0.26686 z m -1.7316,-45.89975 c 4.23313,-4.23312 4.23322,-5.55404 6.9e-4,-9.78657 -2.89833,-2.89834 -3.87242,-3.16613 -6.74907,-1.85544 -1.84902,0.84247 -4.05116,3.0446 -4.89363,4.89363 -1.31069,2.87665 -1.04289,3.85074 1.85544,6.74907 4.23253,4.23253 5.55345,4.23243 9.78657,-6.9e-4 z"
       id="path15011"
       transform="scale(0.75)" />
    <path
       style="fill:#1fcfc1;fill-opacity:1;stroke-width:9.46993;paint-order:fill markers stroke"
       d="m 591.79943,581.00828 c -7.99003,-3.9816 -15.37834,-11.49526 -19.7719,-20.10735 -2.58997,-5.07676 -2.90248,-7.59199 -2.45275,-19.74109 0.61421,-16.59247 2.97562,-21.79028 12.27317,-27.01493 5.22105,-2.93392 7.89745,-3.44816 17.87275,-3.43408 13.69841,0.0193 19.27025,2.3495 28.56684,11.94677 7.78783,8.0397 11.39247,16.40421 11.43024,26.52367 0.0521,13.945 -5.4746,25.76913 -15.06561,32.23251 -6.92908,4.66951 -23.06828,4.4703 -32.85274,-0.4055 z m 13.53303,-3.42022 c 2.44229,-1.30707 2.66977,-3.05808 2.66977,-20.55021 v -19.12139 l -4.6456,-0.87152 c -4.9103,-0.92118 -9.17683,0.0742 -10.86113,2.534 -1.85543,2.70969 -1.24692,37.75074 0.66899,38.52382 3.04208,1.22751 9.41645,0.95788 12.16797,-0.5147 z m -2.79214,-44.15122 c 4.58544,-2.45405 5.96013,-6.5938 3.45781,-10.41283 -2.92448,-4.46332 -8.05117,-4.35784 -11.66788,0.24006 -3.07764,3.91258 -2.27467,7.43703 2.30181,10.10332 3.00929,1.75324 2.76739,1.75039 5.90826,0.0694 z"
       id="path15015"
       transform="scale(0.75)" />
  </g>
  <g
     id="celda"
     transform="matrix(1.0342924,0,0,1.0342924,-25.586143,-566.04185)">
    <path
       style="fill:#000000;fill-opacity:1;stroke:#000000;stroke-width:0.708848;stroke-dasharray:none;stroke-opacity:1;paint-order:fill markers stroke"
       d="M 38.49924,1285.7504 V 1260 H 64.24962 90 v 25.7504 25.7504 H 64.24962 38.49924 Z"
       id="path4642" />
    <circle
       style="fill:#fff5f5;fill-opacity:1;stroke:#000000;stroke-width:1.04702;stroke-dasharray:none;stroke-opacity:1;paint-order:stroke markers fill"
       id="path6844"
       cx="64.125"
       cy="1285.875"
       r="25.351492" />
  </g>
  <g
     id="ficha1"
     transform="translate(-29.170205,-522.25193)">
    <g
       id="ficha1.1"
       transform="matrix(1.0342924,0,0,1.0342924,99.850312,-43.198168)">
      <path
         style="fill:#000000;fill-opacity:1;stroke:#000000;stroke-width:0.708848;stroke-dasharray:none;stroke-opacity:1;paint-order:fill markers stroke"
         d="M 38.49924,1285.7504 V 1260 H 64.24962 90 v 25.7504 25.7504 H 64.24962 38.49924 Z"
         id="path4642-63" />
      <circle
         style="fill:#fff5f5;fill-opacity:1;stroke:#000000;stroke-width:1.04702;stroke-dasharray:none;stroke-opacity:1;paint-order:stroke markers fill"
         id="path6844-5"
         cx="64.125"
         cy="1285.875"
         r="25.351492" />
    </g>
    <path
       style="fill:#2ed0b8;fill-opacity:1;stroke:#000000;stroke-width:1.32658;stroke-dasharray:none;stroke-opacity:1;paint-order:stroke markers fill"
       d="m 158.25431,1311.345 c -9.234,-3.1485 -15.45274,-10.2215 -17.46607,-19.8652 -3.49495,-16.7407 11.70026,-32.7966 28.72068,-30.3475 10.40347,1.497 19.07662,9.1282 21.66385,19.0612 3.57735,13.7344 -4.79472,27.8833 -18.71945,31.6359 -4.1255,1.1117 -10.1174,0.9073 -14.19901,-0.4844 z"
       id="fichaColor" />
  </g>
  <g
     id="ficha2"
     transform="matrix(1.0285715,0,0,1.0285715,-23.548542,-559.21874)">
    <g
       id="ficha2.2"
       transform="matrix(1.005562,0,0,1.005562,179.78784,-7.0062008)">
      <path
         style="fill:#000000;fill-opacity:1;stroke:#000000;stroke-width:0.708848;stroke-dasharray:none;stroke-opacity:1;paint-order:fill markers stroke"
         d="M 38.49924,1285.7504 V 1260 H 64.24962 90 v 25.7504 25.7504 H 64.24962 38.49924 Z"
         id="path4642-0" />
      <circle
         style="fill:#fff5f5;fill-opacity:1;stroke:#000000;stroke-width:1.04702;stroke-dasharray:none;stroke-opacity:1;paint-order:stroke markers fill"
         id="path6844-4"
         cx="64.125"
         cy="1285.875"
         r="25.351492" />
    </g>
    <path
       style="fill:#d061eb;fill-opacity:1;stroke:#000000;stroke-width:1.28974;stroke-dasharray:none;stroke-opacity:1;paint-order:stroke markers fill"
       d="m 236.80861,1310.017 c -11.69452,-3.7063 -19.32945,-15.8518 -17.39764,-27.6759 2.2405,-13.7135 15.10511,-23.2813 28.52568,-21.2155 14.50479,2.2327 24.35662,16.9112 20.72035,30.8718 -2.31609,8.8921 -9.37491,16.0372 -18.15244,18.3744 -3.82289,1.0179 -9.85789,0.8616 -13.69595,-0.3548 z"
       id="ficha2Color" />
  </g>
  <path
     style="fill:#2ed0b8;fill-opacity:1;stroke:#000000;stroke-width:1.32658;stroke-dasharray:none;stroke-opacity:1;paint-order:stroke markers fill"
     d="m 33.665861,880.56493 c -9.234,-3.1485 -15.45274,-10.2215 -17.46607,-19.8652 -3.49495,-16.7407 11.70026,-32.7966 28.72068,-30.3475 10.40347,1.497 19.07662,9.1282 21.66385,19.0612 3.57735,13.7344 -4.79472,27.8833 -18.71945,31.6359 -4.1255,1.1117 -10.1174,0.9073 -14.19901,-0.4844 z"
     id="jugador1"
     inkscape:transform-center-x="-10.817758"
     inkscape:transform-center-y="-92.160763" />
  <path
     style="fill:#d061eb;fill-opacity:1;stroke:#000000;stroke-width:1.32659;stroke-dasharray:none;stroke-opacity:1;paint-order:stroke markers fill"
     d="m 126.54131,882.83435 c -12.02865,-3.8122 -19.88173,-16.3047 -17.89472,-28.4666 2.30451,-14.1054 15.53668,-23.9465 29.3407,-21.8217 14.91921,2.2965 25.05253,17.3944 21.31236,31.7539 -2.38226,9.1461 -9.64276,16.4954 -18.67108,18.8993 -3.93212,1.047 -10.13955,0.8863 -14.08726,-0.3649 z"
     id="jugador2" />
</svg>
