<?xml version="1.0" encoding="UTF-8" standalone="no"?>
<svg
   width="836"
   height="2167"
   version="1.1"
   viewBox="0 0 627 1625.25"
   id="svg458"
   sodipodi:docname="imagenes.svg"
   inkscape:version="1.2.1 (9c6d41e410, 2022-07-14)"
   xmlns:inkscape="http://www.inkscape.org/namespaces/inkscape"
   xmlns:sodipodi="http://sodipodi.sourceforge.net/DTD/sodipodi-0.dtd"
   xmlns="http://www.w3.org/2000/svg"
   xmlns:svg="http://www.w3.org/2000/svg">
  <sodipodi:namedview
     id="namedview460"
     pagecolor="#ffffff"
     bordercolor="#666666"
     borderopacity="1.0"
     inkscape:showpageshadow="2"
     inkscape:pageopacity="0.0"
     inkscape:pagecheckerboard="false"
     inkscape:deskcolor="#d1d1d1"
     inkscape:document-units="px"
     showgrid="true"
     inkscape:zoom="1.0246033"
     inkscape:cx="274.25249"
     inkscape:cy="396.73893"
     inkscape:window-width="1920"
     inkscape:window-height="1001"
     inkscape:window-x="-9"
     inkscape:window-y="-9"
     inkscape:window-maximized="1"
     inkscape:current-layer="svg458"
     showguides="false">
    <inkscape:grid
       type="xygrid"
       id="grid2194"
       spacingx="90"
       spacingy="90"
       originx="0"
       originy="0" />
  </sodipodi:namedview>
  <defs
     id="defs368">
    <linearGradient
       id="linearGradient14613"
       inkscape:swatch="solid">
      <stop
         style="stop-color:#ff0000;stop-opacity:1;"
         offset="0"
         id="stop14611" />
    </linearGradient>
    <linearGradient
       id="linearGradient1447"
       inkscape:swatch="solid">
      <stop
         style="stop-color:#9a5fb7;stop-opacity:1;"
         offset="0"
         id="stop1445" />
    </linearGradient>
    <linearGradient
       id="linearGradient3632"
       inkscape:swatch="solid">
      <stop
         style="stop-color:#060009;stop-opacity:1;"
         offset="0"
         id="stop3630" />
    </linearGradient>
  </defs>
  <g
     id="playBoton"
     transform="matrix(0.21428355,0,0,0.21428355,13.107348,33.750568)">
    <path
       d="m 390.07,222.6 -9.9766,14.352 c 14.086,9.7109 22.574,25.812 22.574,43.051 0,28.961 -23.625,52.5 -52.676,52.5 -29.051,0 -52.676,-23.539 -52.676,-52.5 0,-17.238 8.3984,-33.25 22.574,-43.051 L 309.9128,222.6 c -18.812,13.039 -30.102,34.477 -30.102,57.398 0,38.586 31.5,70 70.176,70 38.676,0 70.176,-31.414 70.176,-70 0,-22.926 -11.289,-44.449 -30.102,-57.398 z"
       id="path1580" />
    <path
       d="m 341.25,210 h 17.586 v 52.5 H 341.25 Z"
       id="path1582" />
    <path
       d="m 358.93,35.262 1.0508,-17.5 c -6.125,-0.35156 -12.512,-0.35156 -18.637,0 l 1.0508,17.5 c 5.4258,-0.35156 11.023,-0.35156 16.449,0 z"
       id="path1584" />
    <path
       d="m 105.09,280 c 0,-2.8008 0,-5.5117 0.26172,-8.2266 l -17.5,-1.0508 c -0.17578,3.0625 -0.26172,6.125 -0.26172,9.2734 0,3.1484 0.08594,6.2109 0.26172,9.2734 l 17.5,-1.0508 C 105.17594,285.5077 105.09,282.7928 105.09,279.992 Z"
       id="path1586" />
    <path
       d="m 305.11,538.48 c 5.4258,1.0508 11.461,1.9258 18.375,2.625 l 1.8359,-17.414 c -6.3867,-0.61328 -11.812,-1.4883 -16.977,-2.4492 -101.76,-17.586 -181.91,-97.562 -199.59,-199.24 -0.96094,-4.8984 -1.75,-10.324 -2.4492,-16.711 l -17.5,1.8359 c 0.69922,6.9141 1.5742,12.863 2.625,18.113 18.898,108.76 104.82,194.43 213.59,213.24 z"
       id="path1588" />
    <path
       d="m 396.29,21.523 c -5.4258,-1.0508 -11.461,-1.9258 -18.375,-2.625 l -1.8359,17.414 c 6.3867,0.61328 11.812,1.4883 16.977,2.4492 101.76,17.586 181.91,97.562 199.59,199.24 0.96094,4.8984 1.75,10.324 2.4492,16.711 l 17.5,-1.8359 c -0.69922,-6.9141 -1.5742,-12.863 -2.625,-18.113 -18.898,-108.76 -104.82,-194.43 -213.59,-213.24 z"
       id="path1590" />
    <path
       d="m 358.93,524.74 c -5.4258,0.35156 -11.023,0.35156 -16.449,0 l -1.0508,17.5 c 3.0625,0.17578 6.125,0.26172 9.2734,0.26172 3.1484,0 6.2109,-0.0859 9.2734,-0.26172 l -1.0508,-17.5 z"
       id="path1592" />
    <path
       d="m 350.7,78.75 v -17.5 c -118.48,0 -215.34,94.238 -219.1,211.57 -10.324,3.5859 -17.762,13.211 -17.762,24.676 0,14.438 11.812,26.25 26.336,26.25 14.524,0 26.336,-11.812 26.336,-26.25 0,-11.289 -7.2617,-20.914 -17.324,-24.586 3.7617,-107.71 92.75,-194.16 201.6,-194.16 z"
       id="path1594" />
    <path
       d="m 350.7,481.25 v 17.5 c 118.48,0 215.34,-94.238 219.1,-211.57 10.324,-3.5859 17.762,-13.211 17.762,-24.676 0,-14.438 -11.812,-26.25 -26.336,-26.25 -14.523,0 -26.336,11.812 -26.336,26.25 0,11.289 7.2617,20.914 17.324,24.586 -3.7617,107.71 -92.75,194.16 -201.6,194.16 z"
       id="path1596" />
    <path
       d="m 315.61,481.25 h 17.586 v 17.5 H 315.61 Z"
       id="path1598" />
    <path
       d="m 368.2,61.25 h 17.586 v 17.5 H 368.2 Z"
       id="path1600" />
    <path
       d="m 417.46,127.66 c -84.176,-36.75 -182.7,1.6641 -219.54,85.664 -36.836,84 1.6641,182.18 85.926,218.93 21.438,9.3633 44.102,14 66.762,14 20.562,0 41.125,-3.8516 60.812,-11.551 41.477,-16.188 74.113,-47.512 91.961,-88.199 36.836,-84 -1.6641,-182.18 -85.926,-218.93 z m -129.15,17.238 12.863,32.727 c -21.262,10.238 -39.375,26.949 -51.012,48.914 l -32.289,-14.086 c 15.664,-30.711 40.863,-53.988 70.438,-67.551 z m -5.25,267.31 C 252.259,396.544 229.072,371.52 215.509,342.032 l 32.637,-12.773 c 10.238,21.176 27.039,39.199 49,50.926 z m 28.961,-44.188 c -48.738,-21.262 -71.051,-78.137 -49.699,-126.7 15.836,-36.051 51.363,-57.664 88.551,-57.664 12.863,0 25.988,2.625 38.586,8.0508 23.625,10.324 41.824,29.137 51.188,53.113 9.3633,23.977 8.8359,50.051 -1.4883,73.586 -21.352,48.648 -78.312,70.875 -127.14,49.613 z m 101.06,46.727 -12.773,-32.637 c 21.176,-10.238 39.375,-26.863 51.102,-48.824 l 32.023,14 c -15.227,29.926 -39.727,53.375 -70.352,67.375 z m 40.25,-184.27 c -10.5,-21.875 -27.562,-39.551 -49.086,-50.836 l 14.086,-32.023 c 30.801,15.664 53.988,40.688 67.551,70.176 l -32.637,12.773 z"
       id="path1602" />
  </g>
  <ellipse
     style="fill:none;fill-opacity:1;stroke-width:4.35;stroke-dasharray:none"
     id="path3794"
     cx="41.100582"
     cy="313.95541"
     rx="29.96365"
     ry="30.228817" />
  <path
     d="M 53.89196,308.87627 H 31.750295 c -10.388293,0 -18.840092,7.37419 -18.840092,16.44008 v 19.60912 c 0,0.97016 0.90107,1.75738 2.01393,1.75738 h 55.790572 c 1.111805,0 2.01393,-0.78629 2.01393,-1.75738 l -0.0011,-19.61008 c 0.0011,-9.06399 -8.449637,-16.43912 -18.836843,-16.43912 z m 14.810166,34.29034 h -9.653434 v -15.13535 c 0,-0.97015 -0.901069,-1.75738 -2.013931,-1.75738 -1.111791,0 -2.013929,0.7863 -2.013929,1.75738 v 15.13535 H 30.623914 v -15.13535 c 0,-0.97015 -0.901069,-1.75738 -2.01393,-1.75738 -1.111803,0 -2.01393,0.7863 -2.01393,1.75738 v 15.13535 H 16.94154 l 0.0011,-17.85097 c 0,-7.1256 6.643259,-12.92446 14.811254,-12.92446 H 53.89664 c 8.165835,0 14.809083,5.79696 14.809083,12.92446 l -0.0011,17.85097 z m -26.02764,-36.73847 c 7.482745,0 13.573292,-6.6544 13.573292,-14.83422 0,-7.68641 -5.184113,-12.65266 -13.208984,-12.65266 -6.936548,0 -13.935443,3.91298 -13.935443,12.65266 -0.0022,8.18076 6.087297,14.83422 13.571135,14.83422 z m 0.364251,-23.97034 c 5.748469,0 9.180158,3.4158 9.180158,9.13706 0,6.24049 -4.28093,11.31864 -9.544466,11.31864 -5.263538,0 -9.544466,-5.07815 -9.544466,-11.31864 0,-6.745 5.33754,-9.13706 9.908774,-9.13706 z M 117.64392,234.18359 H 62.352108 c -4.284181,0 -7.76763,3.04064 -7.76763,6.77812 v 32.02196 c 0,3.73746 3.484543,6.77811 7.76763,6.77811 h 6.082964 l -0.0011,10.26511 c 0,0.70406 0.482815,1.34251 1.22508,1.61785 0.255184,0.0942 0.522011,0.1404 0.78885,0.1404 0.511415,0 1.01438,-0.17003 1.396608,-0.49062 l 13.729974,-11.53199 32.066976,8.7e-4 c 4.28418,0 7.76764,-3.04064 7.76764,-6.77809 l 0.001,-32.02434 c 0,-3.73748 -3.48373,-6.77812 -7.76872,-6.77812 z m 3.73988,38.80102 c 0,1.79896 -1.67721,3.26252 -3.7388,3.26252 H 84.76484 c -0.520964,0 -1.020723,0.17555 -1.396607,0.49061 l -10.903052,9.15836 0.0011,-7.89242 c 0,-0.4666 -0.211771,-0.91381 -0.589783,-1.2418 -0.375883,-0.32986 -0.890504,-0.51467 -1.423091,-0.51467 h -8.095894 c -2.063699,0 -3.738802,-1.46355 -3.738802,-3.2625 l -0.0022,-32.02198 c 0,-1.79894 1.677219,-3.26249 3.738803,-3.26249 H 117.6444 c 2.0637,0 3.73879,1.46355 3.73879,3.26249 z m -9.99551,-21.921 c 0,0.97016 -0.90108,1.75736 -2.01393,1.75736 H 70.625638 c -1.111803,0 -2.013941,-0.78628 -2.013941,-1.75736 0,-0.97018 0.901081,-1.75739 2.013941,-1.75739 h 38.748722 c 1.11391,-8.7e-4 2.01499,0.78628 2.01499,1.75739 z m 0,12.61672 c 0,0.97016 -0.90108,1.75736 -2.01393,1.75736 l -38.748721,-8.7e-4 c -1.111804,0 -2.013942,-0.78626 -2.013942,-1.75737 0,-0.97015 0.901081,-1.75738 2.013942,-1.75738 h 38.748721 c 1.11391,8.7e-4 2.01499,0.78723 2.01499,1.75832 z"
     id="Informacion"
     style="stroke-width:0.253213" />
  <g
     id="botonAtras"
     transform="matrix(0.07051086,0,0,0.07051086,16.644496,472.36275)">
    <path
       d="M 538.16,91.84 C 488.262,41.992 420.61,14 350.07,14.024 279.539,14.047437 211.9,42.083 162.03,91.962 c -49.863,49.883 -77.879,117.53 -77.879,188.06 0,70.531 28.016,138.18 77.879,188.06 49.867,49.883 117.5,77.918 188.04,77.941 70.535,0.0234 138.19,-27.969 188.09,-77.82 49.836,-49.945 77.824,-117.62 77.824,-188.18 0,-70.559 -27.988,-138.23 -77.824,-188.18 z m -9.7539,366.57 c -47.309,47.266 -111.45,73.805 -178.32,73.781 -66.871,-0.0195 -131,-26.598 -178.27,-73.891 -47.27,-47.293 -73.836,-111.43 -73.836,-178.3 0,-66.87 26.559,-131.01 73.836,-178.3 47.277,-47.29 111.4,-73.871 178.27,-73.891 66.875,-0.01953 131.02,26.52 178.32,73.781 47.242,47.359 73.773,111.52 73.773,178.41 0,66.89 -26.531,131.05 -73.773,178.41 z"
       id="path243" />
    <path
       d="M 494.19,273.09 H 222.5 l 84.324,-84.324 c 2.6992,-2.6992 2.6992,-7.0742 0.004,-9.7773 -2.6992,-2.6992 -7.0742,-2.6992 -9.7773,0 l -96.129,96.121 c -0.0508,0.0508 -0.0625,0.125 -0.11328,0.17188 v 0.004 c -1.2266,1.2617 -1.9141,2.9531 -1.9062,4.7148 0,0.90234 0.18359,1.793 0.53125,2.625 0.34766,0.83984 0.85547,1.5977 1.4961,2.2422 l 96.121,96.152 c 1.293,1.3203 3.0586,2.0742 4.9062,2.0859 1.8477,0.0117 3.6211,-0.71875 4.9297,-2.0234 1.3047,-1.3086 2.0352,-3.082 2.0234,-4.9297 -0.0117,-1.8516 -0.76172,-3.6172 -2.0859,-4.9062 l -84.324,-84.336 h 271.69 c 3.8164,0 6.9102,-3.0938 6.9102,-6.9102 0,-3.8164 -3.0938,-6.9102 -6.9102,-6.9102 z"
       id="path245" />
  </g>
  <g
     id="botonJuego3"
     transform="matrix(0.20920173,0,0,0.20920173,-19.657,531.57007)">
    <g
       id="botonJuego1"
       transform="matrix(0.55555557,0,0,0.55555557,111.73906,88.954499)">
      <path
         d="m 246.8,142.8 c -13.195,0 -24.156,10.18 -25.133,23.336 l -16.086,217.16 c -0.0781,1.0312 -0.11328,2.0664 -0.11328,3.1016 0,23.199 18.805,42 42,42 h 205.05 c 1.0352,0 2.0703,-0.0352 3.1055,-0.11328 23.133,-1.7148 40.496,-21.855 38.781,-44.988 l -16.086,-217.16 c -0.97656,-13.156 -11.938,-23.336 -25.133,-23.336 z m 0,-16.801 h 206.39 c 21.992,0 40.262,16.965 41.887,38.898 l 16.086,217.16 c 2.3984,32.387 -21.91,60.586 -54.297,62.984 -1.4453,0.10547 -2.8945,0.16016 -4.3438,0.16016 h -205.05 c -32.477,0 -58.801,-26.324 -58.801,-58.801 0,-1.4492 0.0547,-2.8984 0.16016,-4.3438 l 16.086,-217.16 c 1.625,-21.934 19.895,-38.898 41.887,-38.898 z"
         id="path1103" />
      <path
         d="m 233.18,292.3 -29.883,83.676 -5.2773,-1.8867 29.887,-83.672 z"
         fill-rule="evenodd"
         id="path1105" />
      <path
         d="m 274.82,140 c -14.516,0 -26.625,11.094 -27.895,25.555 l -11.773,134.4 c -0.0703,0.8125 -0.10547,1.6289 -0.10547,2.4414 0,15.465 12.535,28 28,28 h 173.91 c 0.81641,0 1.6328,-0.0352 2.4453,-0.10547 15.406,-1.3477 26.801,-14.93 25.449,-30.336 l -11.773,-134.4 c -1.2656,-14.461 -13.375,-25.555 -27.895,-25.555 z m 0,-11.199 h 150.37 c 20.324,0 37.277,15.531 39.051,35.777 l 11.773,134.4 c 1.8906,21.566 -14.062,40.582 -35.629,42.469 -1.1367,0.10156 -2.2773,0.15234 -3.4219,0.15234 h -173.91 c -21.652,0 -39.199,-17.551 -39.199,-39.203 0,-1.1406 0.0469,-2.2812 0.14844,-3.418 l 11.773,-134.4 c 1.7734,-20.246 18.727,-35.777 39.051,-35.777 z"
         id="path1107" />
      <path
         d="m 459.47,418.57 38.93,-38.934 3.9609,3.9609 -41.762,41.758 1.8242,10.941 -5.5234,0.92188 -1.1641,-6.9961 -5.0156,5.0156 -3.9609,-3.9609 7.8438,-7.8438 -1.2695,-7.6094 -19.395,19.391 -3.957,-3.957 22.223,-22.223 -1.2695,-7.6133 -33.785,33.785 -3.957,-3.9609 36.609,-36.609 -1.2695,-7.6133 -48.172,48.172 -3.9609,-3.957 51.004,-51.004 -1.2695,-7.6094 -62.57,62.566 -3.957,-3.9609 65.395,-65.395 -1.2656,-7.6133 -82.566,82.562 -3.957,-3.957 85.391,-85.395 -1.2695,-7.6094 -99.855,99.852 -3.957,-3.957 102.68,-102.68 -1.0234,-6.1406 5.5234,-0.92188 0.36328,2.1953 0.17188,-0.16797 3.9609,3.957 -3,3 1.2695,7.6133 28.539,-28.543 -2.3359,-6.543 -3.2734,3.2734 -3.957,-3.9609 5.1484,-5.1484 -3.6133,-10.117 -1.5352,-1.5352 0.72656,-0.72656 -0.34766,-0.96875 2.0469,-0.73047 21.289,-21.289 3.957,3.9609 -20.48,20.48 2.3359,6.543 14.188,-14.184 3.957,3.957 -16.059,16.062 2.3359,6.543 9.7656,-9.7617 3.957,3.957 -11.637,11.641 2.3359,6.543 7.9883,-7.9883 3.9609,3.9609 -9.8672,9.8633 2.3398,6.543 6.457,-6.4609 3.9609,3.9609 -8.3359,8.3359 2.3359,6.543 2.0391,-2.0391 3.9609,3.9609 -3.9141,3.9141 2.3359,6.543 0.32422,-0.32422 3.9609,3.9609 -2.1992,2.1992 1.8203,5.0938 -5.2773,1.8867 -0.92578,-2.5977 -37.578,37.578 z m -2.4023,-14.402 36.629,-36.625 -2.3398,-6.543 -35.559,35.559 z m 32.207,-49.004 -2.3398,-6.543 -33.535,33.535 1.2695,7.6133 z m -37.008,20.203 32.586,-32.582 -2.3359,-6.543 -31.516,31.516 z m 28.164,-44.961 -2.3359,-6.543 -29.496,29.492 1.2695,7.6133 z m -223.11,21.512 19.922,-19.918 3.9609,3.957 -25.465,25.465 -1.7773,10.656 40.082,-40.078 3.957,3.957 -45.621,45.625 -1.7773,10.656 58.262,-58.262 c 1.0938,-1.0898 2.8633,-1.0898 3.957,0 1.0938,1.0938 1.0938,2.8672 0,3.9609 l -63.801,63.805 -1.7773,10.656 78.418,-78.422 c 1.0938,-1.0898 2.8672,-1.0898 3.9609,0 1.0938,1.0938 1.0938,2.8672 0,3.9609 l -83.961,83.965 -1.7773,10.656 100.56,-100.56 3.9609,3.957 -107.72,107.72 -3.9609,-3.957 3.0547,-3.0547 -2.1953,-0.36719 6.0547,-36.328 c 0.004,-0.0234 0.008,-0.0469 0.0117,-0.0703 l 11.652,-69.926 5.5234,0.92188 z m 201.88,-193.96 -3.9609,-3.9609 20.762,-20.762 3.9609,3.9609 z m 0,16.801 -3.9609,-3.9609 23.762,-23.758 3.957,3.957 z m 0,16.797 -3.9609,-3.957 29.316,-29.316 3.9609,3.9609 z m 5.6016,11.203 -3.9609,-3.9609 23.715,-23.715 3.9609,3.957 z m 0,16.797 -3.9609,-3.957 23.715,-23.715 3.9609,3.957 z m 0,16.801 -3.9609,-3.9609 23.715,-23.715 3.9609,3.9609 z m 0,16.801 -3.9609,-3.9609 29.316,-29.312 3.957,3.957 z m 5.5977,11.199 -3.957,-3.9609 23.715,-23.715 3.957,3.9609 z m 0,16.801 -3.957,-3.9609 23.715,-23.715 3.957,3.9609 z m -41.961,50.844 3.9609,3.957 -107.72,107.72 -3.9609,-3.957 z m -16.801,0 3.9609,3.957 -107.72,107.72 -3.9609,-3.957 z m -16.801,0 3.9609,3.957 -107.72,107.72 -3.9609,-3.957 z m -16.797,0 3.957,3.957 -107.72,107.72 -3.957,-3.957 z m -16.801,0 3.9609,3.957 -107.72,107.72 -3.957,-3.957 z"
         id="path1109" />
    </g>
  </g>
  <g
     id="botonJuego2"
     transform="matrix(0.07679336,0,0,0.07679336,21.439073,658.23829)">
    <path
       d="m 549.32,260.28 c -0.0117,0.0156 -0.0117,0.043 -0.0273,0.0625 l -19.719,27.441 c -0.0625,0.0898 -0.16406,0.125 -0.23437,0.20312 -0.11719,0.12891 -0.20703,0.28516 -0.35156,0.39844 l -31.359,23.645 c -0.0547,0.043 -0.125,0.0234 -0.17969,0.0625 -0.125,0.0859 -0.22266,0.20312 -0.37109,0.26172 l -40.918,18.129 c -0.0781,0.0352 -0.15625,0.0234 -0.24219,0.0547 -0.0859,0.0273 -0.15234,0.0898 -0.24219,0.11328 l -47.656,11.391 c -0.11328,0.0273 -0.22266,0.0273 -0.33594,0.0391 -0.0391,0.004 -0.0664,0.0273 -0.10547,0.0352 l -51.207,3.9141 c -0.0742,0.0117 -0.14063,0.0117 -0.20703,0.0117 v -0.008 h -0.004 c -0.0664,0 -0.13281,0 -0.20703,-0.0117 l -51.207,-3.9141 c -0.0391,-0.004 -0.0664,-0.0273 -0.10547,-0.0351 -0.11328,-0.0117 -0.22266,-0.0117 -0.33594,-0.0391 l -47.527,-11.391 c -0.0898,-0.0234 -0.15625,-0.0898 -0.24219,-0.11719 -0.0781,-0.0273 -0.16406,-0.0156 -0.23438,-0.0508 l -40.918,-18.129 c -0.14453,-0.0625 -0.24219,-0.17969 -0.37109,-0.26172 -0.0547,-0.0391 -0.125,-0.0156 -0.17969,-0.0625 l -31.359,-23.645 c -0.14453,-0.11719 -0.23438,-0.26953 -0.35156,-0.39844 -0.0664,-0.0781 -0.16797,-0.11328 -0.23047,-0.19531 l -19.848,-27.441 c -0.0156,-0.0234 -0.0156,-0.0508 -0.0352,-0.0742 -0.16797,-0.24609 -0.29297,-0.52734 -0.375,-0.82812 -0.0117,-0.043 -0.0391,-0.0859 -0.0508,-0.125 v -0.004 l -1.0859,-4.8438 v 11.027 l 6.4219,28.656 19.266,26.629 30.766,23.199 40.383,17.891 47.074,11.289 50.758,3.8906 50.766,-3.8789 47.195,-11.285 40.387,-17.898 30.754,-23.191 19.145,-26.641 6.5391,-28.66 v -11.465 l -1.2031,5.2812 c -0.004,0.0273 -0.0273,0.0508 -0.0352,0.0781 -0.0781,0.33203 -0.21094,0.625 -0.39062,0.89062 z"
       id="path1363" />
    <path
       d="m 167.91,200.83 -6.3555,28.359 6.3555,28.34 19.266,26.641 30.758,23.195 40.391,17.883 47.07,11.293 50.766,3.8789 50.766,-3.8789 47.195,-11.285 40.387,-17.891 30.754,-23.195 19.148,-26.645 6.4688,-28.336 -6.4688,-28.355 -19.148,-26.762 -27.715,-20.934 -3.0273,-2.25 -40.398,-17.898 -47.195,-11.277 -50.766,-3.8867 -50.766,3.8867 -47.07,11.285 -40.422,17.902 -3.125,2.2383 h -0.008 l -27.594,20.938 z"
       id="path1365" />
    <path
       d="m 597.52,303.31 c 0,0 0,0.004 -0.004,0.0117 -0.0859,0.34766 -0.23438,0.65625 -0.42188,0.94141 -0.0156,0.0234 -0.0156,0.043 -0.0351,0.0625 l -24.742,34.418 c -0.0547,0.0859 -0.15234,0.11719 -0.21875,0.19141 -0.11719,0.13281 -0.21094,0.29688 -0.36328,0.41016 l -39.199,29.52 c -0.0547,0.0391 -0.125,0.0273 -0.17969,0.0625 -0.12891,0.0898 -0.23047,0.19531 -0.37109,0.26172 l -51.211,22.664 c -0.0781,0.0352 -0.15625,0.0234 -0.23438,0.0508 -0.0899,0.0273 -0.15234,0.0937 -0.24609,0.11719 l -59.531,14.203 c -0.11328,0.0273 -0.22266,0.0273 -0.33594,0.0391 -0.0391,0.004 -0.0664,0.0274 -0.10547,0.0352 l -63.945,4.8984 c -0.0742,0 -0.14062,0.004 -0.20703,0.004 l -0.004,0.004 h -0.004 c -0.0664,0 -0.13281,-0.004 -0.20703,-0.004 l -63.945,-4.8984 c -0.0391,-0.004 -0.0664,-0.0274 -0.10547,-0.0352 -0.11328,-0.0117 -0.22266,-0.0117 -0.33594,-0.0391 l -59.535,-14.211 c -0.0937,-0.0234 -0.15625,-0.0898 -0.24609,-0.11719 -0.0781,-0.0273 -0.15625,-0.0156 -0.23438,-0.0508 l -51.207,-22.664 c -0.14453,-0.0664 -0.24219,-0.17188 -0.37109,-0.26173 -0.0547,-0.0352 -0.125,-0.0234 -0.17969,-0.0625 l -39.199,-29.51999 c -0.15234,-0.11719 -0.24609,-0.28125 -0.36328,-0.41017 -0.0664,-0.0781 -0.16797,-0.11327 -0.23047,-0.19531 l -24.625,-34.418 c -0.0117,-0.0234 -0.0117,-0.0469 -0.0273,-0.0625 -0.19141,-0.28125 -0.33984,-0.59375 -0.42578,-0.94531 0,-0.004 0,-0.0117 -0.004,-0.0156 l -2.9141,-12.727 v 15.238 l 8.2539,36.133 24.047,33.492 38.605,29.07 50.656,22.422 59.09,14.23 63.508,4.7383 63.504,-4.7383 59.09,-14.23 50.66399,-22.422 38.617,-29.074 24.148,-33.48 8.1406,-36.137 v -14.895 l -2.8086,12.395 v 0 z"
       id="path1367" />
    <path
       d="m 144.3,335.12 38.605,29.07 50.664,22.422 59.078,14.113 63.508,4.8672 63.508,-4.8672 59.078,-14.113 50.668,-22.422 38.613,-29.07 24.152,-33.609 8.0703,-35.707 -8.0703,-35.695 -24.16,-33.621 -38.605,-29.07 -8.9531,-3.9883 8.5195,6.4336 c 0.11328,0.0859 0.17188,0.20703 0.26953,0.30859 0.10547,0.10547 0.23438,0.17188 0.32422,0.29688 l 19.719,27.562 c 0.22266,0.32031 0.37109,0.66797 0.45312,1.0234 l 6.7305,29.508 c 0.004,0.0234 0,0.043 0,0.0664 0.0234,0.10547 0.0117,0.20703 0.0234,0.3125 0.0117,0.0859 0.0508,0.15625 0.0508,0.24219 v 36.625 c 0,0.11328 -0.0508,0.20703 -0.0625,0.3125 -0.0156,0.10547 0.0117,0.20703 -0.0117,0.30859 l -6.7305,29.512 c -0.004,0.0273 -0.0273,0.0547 -0.0352,0.0859 -0.0859,0.33203 -0.21875,0.61719 -0.39844,0.87891 -0.0117,0.0234 -0.0117,0.043 -0.0273,0.0664 l -19.723,27.434 c -0.0547,0.0898 -0.15234,0.11719 -0.21875,0.19141 -0.125,0.13281 -0.21094,0.29688 -0.36328,0.41016 l -31.359,23.645 c -0.0547,0.0391 -0.125,0.0273 -0.17969,0.0625 -0.125,0.0898 -0.22266,0.19531 -0.37109,0.26172 l -40.918,18.133 c -0.0781,0.0352 -0.15625,0.0234 -0.24219,0.0547 -0.0859,0.0273 -0.15234,0.0898 -0.24219,0.11328 l -47.656,11.391 c -0.11328,0.0273 -0.22266,0.0273 -0.33594,0.0391 -0.0391,0.004 -0.0664,0.0273 -0.10547,0.0352 l -51.207,3.9141 c -0.0742,0.0117 -0.14062,0.0117 -0.20703,0.0117 h 0.004 -0.004 c -0.0664,0 -0.13281,0 -0.20703,-0.0117 l -51.207,-3.9141 c -0.0391,-0.004 -0.0664,-0.0273 -0.10547,-0.0352 -0.11328,-0.0117 -0.22266,-0.0117 -0.33594,-0.0391 l -47.527,-11.391 c -0.0898,-0.0234 -0.15625,-0.0899 -0.24219,-0.11719 -0.0781,-0.0273 -0.16406,-0.0156 -0.23438,-0.0508 l -40.918,-18.133 c -0.14453,-0.0664 -0.24219,-0.17188 -0.37109,-0.26172 -0.0547,-0.0352 -0.125,-0.0234 -0.17969,-0.0625 l -31.359,-23.645 c -0.14453,-0.11328 -0.23438,-0.26953 -0.35156,-0.40234 -0.0742,-0.0781 -0.16797,-0.11328 -0.23047,-0.19141 l -19.848,-27.434 c -0.0156,-0.0234 -0.0156,-0.0508 -0.0352,-0.0742 -0.16797,-0.24609 -0.29297,-0.52734 -0.375,-0.82422 -0.0117,-0.043 -0.0391,-0.0899 -0.0508,-0.125 v -0.004 l -6.6211,-29.523 c -0.0234,-0.10547 0,-0.20312 -0.004,-0.30859 -0.0117,-0.10547 -0.0625,-0.19531 -0.0625,-0.30859 v -36.625 c 0,-0.0898 0.0391,-0.16406 0.0508,-0.24609 0.0117,-0.10547 0,-0.21094 0.0156,-0.3125 0.004,-0.0156 0,-0.0352 0,-0.0547 l 6.6211,-29.523 c 0.0781,-0.35938 0.23047,-0.70703 0.46094,-1.0195 l 19.848,-27.562 c 0.0859,-0.11719 0.20703,-0.17969 0.30078,-0.28125 0.10156,-0.10156 0.16406,-0.23047 0.28125,-0.3125 l 8.6016,-6.5234 -9.1523,4.0781 -38.605,29.07 -24.051,33.621 -8.1797,35.695 8.1797,35.699 z"
       id="path1369" />
  </g>
  <path
     style="fill:#180f0f;fill-opacity:1;stroke-width:5.66073;paint-order:fill markers stroke"
     d=""
     id="path1613"
     transform="scale(0.75)" />
  <path
     style="fill:#180f0f;fill-opacity:1;stroke-width:5.66073;paint-order:fill markers stroke"
     d=""
     id="path1623"
     transform="scale(0.75)" />
  <path
     style="fill:#0d0707;fill-opacity:1;stroke-width:5.66073;paint-order:fill markers stroke"
     d=""
     id="path5540"
     transform="scale(0.75)" />
  <path
     style="fill:#fcfcfc;fill-opacity:1;stroke-width:7.24398;paint-order:fill markers stroke"
     d="m 18.15992,1310.9997 c -4.684187,-1.4234 -12.5487287,-8.7226 -15.1190622,-14.0321 -7.6866223,-15.8785 4.6460637,-34.9294 22.6116932,-34.9294 7.566755,0 13.326908,2.6471 18.444931,8.4762 4.591381,5.2292 6.366829,9.758 6.366829,16.2402 0,9.2966 -5.264098,17.7874 -13.736686,22.1571 -4.549724,2.3465 -14.160393,3.4273 -18.567705,2.088 z"
     id="path9314" />
  <g
     id="botonplay3"
     transform="translate(132.26803,-37.416903)">
    <g
       id="botonplay2"
       transform="matrix(0.21972656,0,0,0.21972656,253.52468,73.524903)"
       inkscape:transform-center-x="-53.829936"
       inkscape:transform-center-y="200.82707">
      <g
         id="g888">
        <circle
           style="fill:#1fcfc1"
           cx="256"
           cy="256"
           r="245.80099"
           id="circle2" />
        <polygon
           style="fill:#f2f2f2"
           points="195.825,391.629 376.351,256 195.825,120.371 "
           id="polygon4" />
      </g>
      <g
         id="g14">
        <path
           style="fill:#4d4d4d"
           d="M 256,512 C 187.619,512 123.333,485.372 74.981,437.02 26.628,388.667 0,324.38 0,256 0,187.62 26.628,123.333 74.981,74.98 123.333,26.628 187.619,0 256,0 324.381,0 388.667,26.628 437.019,74.98 485.372,123.333 512,187.62 512,256 512,324.38 485.372,388.667 437.019,437.02 388.667,485.372 324.381,512 256,512 Z M 256,20.398 C 126.089,20.398 20.398,126.089 20.398,256 20.398,385.911 126.089,491.602 256,491.602 385.911,491.602 491.602,385.911 491.602,256 491.602,126.089 385.911,20.398 256,20.398 Z"
           id="path6" />
        <path
           style="fill:#4d4d4d"
           d="m 195.824,401.828 c -1.553,0 -3.115,-0.355 -4.557,-1.075 -3.458,-1.727 -5.641,-5.26 -5.641,-9.124 V 120.371 c 0,-3.864 2.185,-7.397 5.641,-9.124 3.458,-1.726 7.593,-1.351 10.685,0.97 l 180.526,135.629 c 2.564,1.927 4.073,4.948 4.073,8.154 0,3.206 -1.508,6.228 -4.073,8.154 L 201.951,399.783 c -1.801,1.354 -3.957,2.045 -6.127,2.045 z m 10.2,-261.037 V 371.209 L 359.371,256 Z"
           id="path8" />
        <path
           style="fill:#4d4d4d"
           d="m 256,473.243 c -5.632,0 -10.199,-4.566 -10.199,-10.199 0,-5.633 4.567,-10.199 10.199,-10.199 52.815,0 102.404,-20.633 139.633,-58.1 3.973,-3.996 10.429,-4.015 14.425,-0.045 3.995,3.971 4.016,10.428 0.046,14.424 -41.088,41.347 -95.817,64.119 -154.104,64.119 z"
           id="path10" />
        <path
           style="fill:#4d4d4d"
           d="m 430.396,377.825 c -1.886,0 -3.793,-0.522 -5.498,-1.617 -4.741,-3.041 -6.118,-9.351 -3.076,-14.092 1.514,-2.36 2.998,-4.788 4.411,-7.216 2.834,-4.867 9.077,-6.516 13.945,-3.684 4.868,2.833 6.518,9.077 3.684,13.945 -1.56,2.681 -3.201,5.363 -4.873,7.97 -1.946,3.037 -5.235,4.694 -8.593,4.694 z"
           id="path12" />
      </g>
    </g>
    <path
       style="fill:#111111;fill-opacity:1;stroke-width:9.46993;paint-order:fill markers stroke"
       d="m 398.2035,245.68283 c -33.17599,-7.44838 -56.79653,-34.8171 -58.94684,-68.30072 -4.22585,-65.80293 74.44016,-103.552453 123.17128,-59.10631 16.39331,14.95183 24.26573,32.47516 24.37474,54.25605 0.0705,14.09915 -1.49593,21.07983 -7.48841,33.37005 -14.37005,29.47215 -49.74645,46.82256 -81.11077,39.78093 z m 34.70605,-6.19246 c 29.51235,-9.23306 49.4895,-35.7943 49.4895,-65.80032 0,-36.17162 -24.54909,-64.35415 -60.49361,-69.44707 -44.4727,-6.301269 -84.16972,33.47696 -77.75443,77.91349 3.99111,27.64504 24.11281,50.91741 50.05615,57.89396 11.05178,2.972 28.20606,2.72376 38.70239,-0.56006 z"
       id="path8622"
       transform="scale(0.75)" />
    <path
       style="fill:#111111;fill-opacity:1;stroke-width:9.46993;paint-order:fill markers stroke"
       d="m 393.60266,213.70945 c -0.5061,-0.50609 -0.92017,-19.13953 -0.92017,-41.40765 0,-36.84588 0.20662,-40.48747 2.29726,-40.48747 2.85603,0 56.01376,39.72441 55.417,41.41274 -0.58137,1.64478 -53.03782,41.40255 -54.62658,41.40255 -0.68604,0 -1.66142,-0.41408 -2.16751,-0.92017 z M 425.11847,187.87 c 9.86882,-7.38963 18.11963,-13.92686 18.33513,-14.52718 0.31472,-0.87673 -36.98553,-29.79845 -43.52478,-33.74806 -1.36216,-0.82273 -1.72532,6.27266 -1.72532,33.70958 v 34.75165 l 4.48583,-3.37515 c 2.46721,-1.85633 12.56032,-9.42121 22.42914,-16.81084 z"
       id="path9868"
       transform="scale(0.75)" />
    <path
       style="fill:#111111;fill-opacity:1;stroke-width:9.46993;paint-order:fill markers stroke"
       d="m 410.90357,233.80655 c 0.38503,-1.15717 3.64692,-2.30269 8.18581,-2.87471 10.88691,-1.37206 22.24729,-6.01827 30.32268,-12.4015 8.97947,-7.09787 12.18243,-5.24463 3.88751,2.24933 -8.67122,7.83392 -21.74863,13.42751 -33.32986,14.25614 -7.89702,0.56503 -9.58692,0.3359 -9.06614,-1.22926 z"
       id="path9870"
       transform="scale(0.75)" />
    <path
       style="fill:#111111;fill-opacity:1;stroke-width:9.46993;paint-order:fill markers stroke"
       d="m 461.69522,206.6119 c 0,-0.61405 0.83687,-2.26093 1.8597,-3.65974 2.09533,-2.86553 4.48857,-0.75071 3.13682,2.7719 -0.80213,2.09033 -4.99652,2.83563 -4.99652,0.88784 z"
       id="path9876"
       transform="scale(0.75)" />
  </g>
  <g
     id="celda"
     transform="matrix(1.0342924,0,0,1.0342924,-25.586143,-566.04185)">
    <path
       style="fill:#000000;fill-opacity:1;stroke:#000000;stroke-width:0.708848;stroke-dasharray:none;stroke-opacity:1;paint-order:fill markers stroke"
       d="M 38.49924,1285.7504 V 1260 H 64.24962 90 v 25.7504 25.7504 H 64.24962 38.49924 Z"
       id="path4642" />
    <circle
       style="fill:#fff5f5;fill-opacity:1;stroke:#000000;stroke-width:1.04702;stroke-dasharray:none;stroke-opacity:1;paint-order:stroke markers fill"
       id="path6844"
       cx="64.125"
       cy="1285.875"
       r="25.351492" />
  </g>
  <g
     id="ficha1"
     transform="translate(-29.170205,-522.25193)">
    <g
       id="ficha1.1"
       transform="matrix(1.0342924,0,0,1.0342924,99.850312,-43.198168)">
      <path
         style="fill:#000000;fill-opacity:1;stroke:#000000;stroke-width:0.708848;stroke-dasharray:none;stroke-opacity:1;paint-order:fill markers stroke"
         d="M 38.49924,1285.7504 V 1260 H 64.24962 90 v 25.7504 25.7504 H 64.24962 38.49924 Z"
         id="path4642-63" />
      <circle
         style="fill:#fff5f5;fill-opacity:1;stroke:#000000;stroke-width:1.04702;stroke-dasharray:none;stroke-opacity:1;paint-order:stroke markers fill"
         id="path6844-5"
         cx="64.125"
         cy="1285.875"
         r="25.351492" />
    </g>
    <path
       style="fill:#2ed0b8;fill-opacity:1;stroke:#000000;stroke-width:1.32658;stroke-dasharray:none;stroke-opacity:1;paint-order:stroke markers fill"
       d="m 158.25431,1311.345 c -9.234,-3.1485 -15.45274,-10.2215 -17.46607,-19.8652 -3.49495,-16.7407 11.70026,-32.7966 28.72068,-30.3475 10.40347,1.497 19.07662,9.1282 21.66385,19.0612 3.57735,13.7344 -4.79472,27.8833 -18.71945,31.6359 -4.1255,1.1117 -10.1174,0.9073 -14.19901,-0.4844 z"
       id="fichaColor" />
  </g>
  <g
     id="ficha2"
     transform="matrix(1.0285715,0,0,1.0285715,-23.548542,-559.21874)">
    <g
       id="ficha2.2"
       transform="matrix(1.005562,0,0,1.005562,179.78784,-7.0062008)">
      <path
         style="fill:#000000;fill-opacity:1;stroke:#000000;stroke-width:0.708848;stroke-dasharray:none;stroke-opacity:1;paint-order:fill markers stroke"
         d="M 38.49924,1285.7504 V 1260 H 64.24962 90 v 25.7504 25.7504 H 64.24962 38.49924 Z"
         id="path4642-0" />
      <circle
         style="fill:#fff5f5;fill-opacity:1;stroke:#000000;stroke-width:1.04702;stroke-dasharray:none;stroke-opacity:1;paint-order:stroke markers fill"
         id="path6844-4"
         cx="64.125"
         cy="1285.875"
         r="25.351492" />
    </g>
    <path
       style="fill:#d061eb;fill-opacity:1;stroke:#000000;stroke-width:1.28974;stroke-dasharray:none;stroke-opacity:1;paint-order:stroke markers fill"
       d="m 236.80861,1310.017 c -11.69452,-3.7063 -19.32945,-15.8518 -17.39764,-27.6759 2.2405,-13.7135 15.10511,-23.2813 28.52568,-21.2155 14.50479,2.2327 24.35662,16.9112 20.72035,30.8718 -2.31609,8.8921 -9.37491,16.0372 -18.15244,18.3744 -3.82289,1.0179 -9.85789,0.8616 -13.69595,-0.3548 z"
       id="ficha2Color" />
  </g>
  <path
     style="fill:#2ed0b8;fill-opacity:1;stroke:#000000;stroke-width:1.32658;stroke-dasharray:none;stroke-opacity:1;paint-order:stroke markers fill"
     d="m 33.665861,880.56493 c -9.234,-3.1485 -15.45274,-10.2215 -17.46607,-19.8652 -3.49495,-16.7407 11.70026,-32.7966 28.72068,-30.3475 10.40347,1.497 19.07662,9.1282 21.66385,19.0612 3.57735,13.7344 -4.79472,27.8833 -18.71945,31.6359 -4.1255,1.1117 -10.1174,0.9073 -14.19901,-0.4844 z"
     id="jugador1"
     inkscape:transform-center-x="-10.817758"
     inkscape:transform-center-y="-92.160763" />
  <path
     style="fill:#d061eb;fill-opacity:1;stroke:#000000;stroke-width:1.32659;stroke-dasharray:none;stroke-opacity:1;paint-order:stroke markers fill"
     d="m 126.54131,882.83435 c -12.02865,-3.8122 -19.88173,-16.3047 -17.89472,-28.4666 2.30451,-14.1054 15.53668,-23.9465 29.3407,-21.8217 14.91921,2.2965 25.05253,17.3944 21.31236,31.7539 -2.38226,9.1461 -9.64276,16.4954 -18.67108,18.8993 -3.93212,1.047 -10.13955,0.8863 -14.08726,-0.3649 z"
     id="jugador2" />
  <g
     id="integrantes">
    <path
       d="M 291.92744,54.722072 C 291.92744,42.63154 282.09046,32.7945 270,32.7945 c -12.09046,0 -21.92745,9.83704 -21.92745,21.927572 0,12.090533 9.83699,21.927573 21.92745,21.927573 12.09046,0 21.92744,-9.83704 21.92744,-21.927573 z m -38.13326,0 c 0,-8.936822 7.27166,-16.207223 16.20713,-16.207223 8.93676,0 16.20713,7.271711 16.20713,16.207223 0,8.936823 -7.27167,16.207223 -16.20713,16.207223 -8.93677,0 -16.20713,-7.2704 -16.20713,-16.207223 z"
       id="path633"
       style="stroke-width:0.326876" />
    <path
       d="m 231.86412,80.463648 c 7.88587,0 14.30079,-6.414961 14.30079,-14.300877 0,-7.88591 -6.41492,-14.300871 -14.30079,-14.300871 -7.88586,0 -14.30079,6.414961 -14.30079,14.300871 0,7.885916 6.41493,14.300877 14.30079,14.300877 z m 0,-22.881398 c 4.73217,0 8.58048,3.848321 8.58048,8.580521 0,4.732201 -3.84831,8.580527 -8.58048,8.580527 -4.73218,0 -8.58047,-3.848326 -8.58047,-8.580527 0,-4.7322 3.84961,-8.580521 8.58047,-8.580521 z"
       id="path635"
       style="stroke-width:0.326876" />
    <path
       d="m 322.43798,66.162771 c 0,-7.88591 -6.41493,-14.300871 -14.30079,-14.300871 -7.88587,0 -14.3008,6.414961 -14.3008,14.300871 0,7.885916 6.41493,14.300877 14.3008,14.300877 7.88586,0 14.30079,-6.414961 14.30079,-14.300877 z m -22.88127,0 c 0,-4.7322 3.8483,-8.580521 8.58048,-8.580521 4.73217,0 8.58047,3.848321 8.58047,8.580521 0,4.732201 -3.8483,8.580527 -8.58047,8.580527 -4.73218,0 -8.58048,-3.848326 -8.58048,-8.580527 z"
       id="path637"
       style="stroke-width:0.326876" />
    <path
       d="m 308.13719,86.183998 c -1.49392,0 -2.96613,0.18387 -4.37588,0.549054 -1.5284,0.394544 -2.44902,1.954893 -2.05448,3.484512 0.39454,1.530962 1.95106,2.445207 3.48449,2.054491 0.94359,-0.24516 1.93445,-0.36774 2.9457,-0.36774 5.84551,0 10.72936,4.080737 12.02803,9.534355 h -3.52404 c -1.57946,0 -2.86016,1.2807 -2.86016,2.86017 0,1.57947 1.2807,2.86018 2.86016,2.86018 h 6.74932 c 1.57946,0 2.86016,-1.28071 2.86016,-2.86018 0,-9.989034 -8.12579,-18.114875 -18.11347,-18.114875 z"
       id="path639"
       style="stroke-width:0.326876" />
    <path
       d="m 292.88192,101.43935 c -12.09046,0 -21.92745,9.83704 -21.92745,21.92758 0,12.09053 9.83699,21.92757 21.92745,21.92757 12.09046,0 21.92744,-9.83704 21.92744,-21.92757 0,-12.09054 -9.83698,-21.92758 -21.92744,-21.92758 z m 0,38.1335 c -8.93677,0 -16.20713,-7.27172 -16.20713,-16.20723 0,-8.93682 7.27167,-16.20722 16.20713,-16.20722 8.93677,0 16.20713,7.27171 16.20713,16.20722 0,8.93683 -7.27036,16.20723 -16.20713,16.20723 z"
       id="path641"
       style="stroke-width:0.326876" />
    <path
       d="m 301.70117,120.49935 h -5.27773 v -5.27775 c 0,-1.74898 -1.4181,-3.1671 -3.16706,-3.1671 -1.74898,0 -3.16708,1.41812 -3.16708,3.1671 v 5.27775 h -5.27773 c -1.74897,0 -3.16707,1.41812 -3.16707,3.1671 0,1.74897 1.4181,3.16708 3.16707,3.16708 h 5.27773 v 5.27775 c 0,1.74898 1.4181,3.1671 3.16708,3.1671 1.74896,0 3.16706,-1.41812 3.16706,-3.1671 v -5.27775 h 5.27773 c 1.74897,0 3.16708,-1.41811 3.16708,-3.16708 0,-1.74898 -1.41811,-3.1671 -3.16708,-3.1671 z"
       id="path643"
       style="stroke-width:0.361948" />
    <path
       d="m 216.61212,107.1597 h 10.25833 c 1.57946,0 2.86016,-1.2807 2.86016,-2.86017 0,-1.57947 -1.2807,-2.86018 -2.86016,-2.86018 h -7.03174 c 1.29857,-5.453611 6.18252,-9.534348 12.02802,-9.534348 1.01129,0 2.00212,0.12258 2.94571,0.366463 1.53605,0.394538 3.08871,-0.523524 3.48449,-2.054486 0.39453,-1.528412 -0.5248,-3.088728 -2.05448,-3.484511 -1.41092,-0.363913 -2.88314,-0.547783 -4.37718,-0.547783 -9.98768,0 -18.11478,8.125841 -18.11478,18.114875 0.002,1.5782 1.28197,2.86018 2.86144,2.86018 z"
       id="path645"
       style="stroke-width:0.326876" />
    <path
       d="m 233.56387,112.11843 c -0.51584,2.5231 0.12641,5.1189 1.76206,7.12102 1.64588,2.01873 4.08332,3.17427 6.68427,3.17427 h 20.59314 c 1.57946,0 2.86015,-1.2807 2.86015,-2.86017 0,-1.57947 -1.28069,-2.86018 -2.86015,-2.86018 H 242.0102 c -1.77994,0 -3.19982,-1.67779 -2.84101,-3.43221 2.97892,-14.582969 15.94661,-25.169538 30.83218,-25.169538 7.19387,0 14.20241,2.491165 19.73379,7.017726 1.22578,0.999784 3.02614,0.819741 4.02579,-0.402221 0.99978,-1.22324 0.81974,-3.026166 -0.40222,-4.025819 -6.55286,-5.357845 -14.84733,-8.309873 -23.35752,-8.309873 -17.59112,0 -32.91633,12.50959 -36.43678,29.747135 z"
       id="path647"
       style="stroke-width:0.326876" />
    <path
       style="fill:#1fcfc1;fill-opacity:1;stroke-width:5.2502;paint-order:fill markers stroke"
       d="m 288.87668,139.08823 c -3.74956,-0.99852 -8.94,-5.56031 -10.67653,-9.38342 -4.40357,-9.69515 2.01367,-20.88776 13.13054,-22.90118 6.36531,-1.15295 14.35082,3.69042 17.1455,10.39908 3.55614,8.53624 -1.55064,18.97485 -10.59704,21.66137 -4.25767,1.2644 -5.02437,1.28351 -9.00247,0.22415 z m 6.85768,-5.37048 c 0.50506,-0.50504 0.91826,-2.3801 0.91826,-4.16673 v -3.24863 l 3.63479,-0.23317 c 3.59955,-0.23101 3.63485,-0.25922 3.63485,-2.91151 0,-2.65231 -0.0356,-2.68054 -3.63485,-2.91154 l -3.63479,-0.23318 v -3.3746 c 0,-3.26705 -1.26965,-4.95906 -3.72112,-4.95906 -1.67914,0 -3.16594,2.54128 -3.16594,5.41127 v 3.00622 h -3.4288 c -3.01853,0 -3.48637,0.22871 -3.90875,1.91136 -0.81655,3.25383 0.0626,4.21039 3.87013,4.21039 h 3.46742 v 3.00621 c 0,4.44373 3.43353,7.02821 5.9688,4.49297 z"
       id="path2383" />
    <path
       style="fill:#317e78;fill-opacity:1;stroke-width:5.53588;paint-order:fill markers stroke"
       d="m 303.834,73.774449 c -3.44347,-2.135126 -5.03707,-6.193034 -3.90983,-9.955793 2.33593,-7.796477 13.0125,-8.609308 16.50176,-1.256314 1.78945,3.771012 0.96464,7.225006 -2.43901,10.21342 -3.17128,2.784381 -6.71125,3.132592 -10.15292,0.998687 z"
       id="path3787" />
    <path
       style="fill:#317e78;fill-opacity:1;stroke-width:5.53683;paint-order:fill markers stroke"
       d="m 227.74849,73.984766 c -2.43207,-1.367656 -4.65049,-5.020633 -4.65049,-7.65744 0,-2.368807 2.0739,-6.121379 4.20986,-7.617504 5.31737,-3.724315 13.54414,0.845906 13.54414,7.524087 0,6.583532 -7.39801,10.959537 -13.10351,7.750857 z"
       id="path3789" />
    <path
       style="fill:#1fcfc1;fill-opacity:1;stroke-width:2.36748;paint-order:fill markers stroke"
       d="m 355.30096,93.845776 c -7.4565,-1.618501 -14.17174,-8.228322 -16.10036,-15.847612 -0.66799,-2.63898 -0.66695,-7.401975 0.002,-10.034384 0.99817,-3.926766 2.7837,-6.990299 5.82519,-9.994573 3.20417,-3.164967 5.82894,-4.70265 9.73062,-5.70053 7.34627,-1.878859 14.85892,0.229229 20.36236,5.713781 4.29637,4.281624 6.62566,10.342973 6.22782,16.206237 -0.89019,13.119218 -13.23803,22.437563 -26.04783,19.657081 z"
       id="path4530"
       transform="scale(0.75)" />
  </g>
  <g
     id="informacion"
     transform="translate(1.75611,-13.521082)">
    <g
       id="g7173"
       transform="matrix(0.21972656,0,0,0.21972656,206.09605,221.52546)">
      <circle
         style="fill:#ffffff"
         cx="256"
         cy="176.38"
         r="17.693001"
         id="circle7169" />
      <rect
         x="238.30701"
         y="220.61301"
         style="fill:#ffffff"
         width="35.387001"
         height="123.853"
         id="rect7171" />
    </g>
    <path
       d="m 302.12073,238.00078 c -10.624,-10.62444 -24.74978,-16.47532 -39.77468,-16.47532 -16.17517,0 -31.27786,6.80603 -41.95876,18.78662 l 0.99821,-6.9873 c 0.14217,-0.99646 -0.55019,-1.91932 -1.54643,-2.0617 -0.99646,-0.1415 -1.91931,0.5502 -2.0617,1.54644 l -1.94392,13.607 c -0.0892,0.62513 0.15161,1.25201 0.63633,1.65696 0.33267,0.27752 0.74707,0.4232 1.16807,0.4232 0.19292,0 0.38759,-0.0306 0.57612,-0.0936 l 11.66309,-3.88762 c 0.95493,-0.31838 1.47085,-1.35022 1.15268,-2.30515 -0.31838,-0.95493 -1.35066,-1.47107 -2.30515,-1.15269 l -5.85967,1.95337 c 10.00217,-11.37348 24.23255,-17.84092 39.48113,-17.84092 14.05129,0 27.26169,5.47185 37.19773,15.40767 9.93581,9.93604 15.40766,23.14644 15.40766,37.19773 0,7.88928 -1.7031,15.47468 -5.06184,22.54504 -0.43176,0.90923 -0.045,1.996 0.86397,2.4282 0.25246,0.11997 0.51855,0.17688 0.78069,0.17688 0.68181,0 1.33549,-0.3843 1.64751,-1.04084 3.59275,-7.56321 5.41428,-15.67464 5.41428,-24.10928 0,-15.0249 -5.85088,-29.15068 -16.47532,-39.77468 z"
       id="path7175"
       style="stroke-width:0.219727" />
    <path
       d="m 308.22232,307.47788 c -0.48494,-0.40452 -1.14478,-0.52954 -1.74397,-0.32981 l -11.66309,3.88762 c -0.95493,0.31838 -1.47085,1.35022 -1.15268,2.30515 0.31838,0.95493 1.35044,1.47085 2.30515,1.15269 l 5.84692,-1.94898 c -4.43298,5.01965 -9.82749,9.20698 -15.7823,12.21504 -7.38369,3.72986 -15.35295,5.62082 -23.6863,5.62082 -14.05129,0 -27.26169,-5.47185 -37.19773,-15.40766 -9.9356,-9.9356 -15.40767,-23.146 -15.40767,-37.19729 0,-7.88928 1.70311,-15.47468 5.06185,-22.54504 0.43176,-0.90923 0.045,-1.996 -0.86397,-2.4282 -0.90923,-0.43177 -1.996,-0.0446 -2.4282,0.86396 -3.59275,7.56321 -5.41428,15.67464 -5.41428,24.10928 0,15.0249 5.85088,29.15068 16.47532,39.77468 10.62444,10.624 24.74978,16.47532 39.77468,16.47532 8.90969,0 17.43157,-2.0228 25.32942,-6.0126 6.25847,-3.16142 11.9384,-7.54036 16.6311,-12.78545 l -0.99997,6.99851 c -0.14217,0.99646 0.55019,1.91931 1.54643,2.0617 0.0874,0.0123 0.17424,0.0184 0.25994,0.0184 0.89231,0 1.6719,-0.6561 1.80198,-1.56489 l 1.94392,-13.60701 c 0.089,-0.6249 -0.15183,-1.25178 -0.63655,-1.65629 z"
       id="path7177"
       style="stroke-width:0.219727" />
    <path
       d="m 297.2138,277.77546 c 0,-19.22607 -15.64168,-34.86775 -34.86775,-34.86775 -19.22607,0 -34.86775,15.64168 -34.86775,34.86775 0,19.22607 15.64168,34.86775 34.86775,34.86775 19.22607,0 34.86775,-15.64168 34.86775,-34.86775 z m -66.09068,0 c 0,-17.21646 14.00669,-31.22293 31.22293,-31.22293 17.21623,0 31.22292,14.00647 31.22292,31.22293 0,17.21645 -14.00647,31.22292 -31.22292,31.22292 -17.21646,0 -31.22293,-14.00647 -31.22293,-31.22292 z"
       id="path7179"
       style="stroke-width:0.219727" />
    <path
       d="m 268.17759,299.0362 c 1.00635,0 1.82241,-0.81584 1.82241,-1.82241 0,-1.00657 -0.81584,-1.82241 -1.82241,-1.82241 h -0.12151 v -23.56897 h 0.12151 c 1.00635,0 1.82241,-0.81585 1.82241,-1.82241 0,-1.00657 -0.81584,-1.82242 -1.82241,-1.82242 h -11.66308 c -1.00635,0 -1.82242,0.81585 -1.82242,1.82242 0,1.00656 0.81585,1.82241 1.82242,1.82241 h 0.12151 v 23.56919 h -0.12151 c -1.00635,0 -1.82242,0.81584 -1.82242,1.82241 0,1.00657 0.81585,1.82241 1.82242,1.82241 h 11.66308 z m -7.89697,-27.21379 h 4.13086 v 23.56919 h -4.13086 z"
       id="path7181"
       style="stroke-width:0.219727" />
    <path
       d="m 262.34605,265.99086 c 3.14846,0 5.71003,-2.56157 5.71003,-5.71003 0,-3.14846 -2.56157,-5.71003 -5.71003,-5.71003 -3.14846,0 -5.71003,2.56157 -5.71003,5.71003 0,3.14846 2.56157,5.71003 5.71003,5.71003 z m 0,-7.77524 c 1.13884,0 2.06543,0.92659 2.06543,2.06543 0,1.13884 -0.92659,2.06543 -2.06543,2.06543 -1.13884,0 -2.06543,-0.92659 -2.06543,-2.06543 0,-1.13884 0.92659,-2.06543 2.06543,-2.06543 z"
       id="path7183"
       style="stroke-width:0.219727" />
    <path
       style="fill:#1fcfc1;fill-opacity:1;stroke-width:2.36748;paint-order:fill markers stroke"
       d="m 343.44019,411.32194 c -24.04836,-3.92911 -39.70077,-27.55233 -33.78254,-50.98593 1.88194,-7.45163 5.46508,-13.68932 11.05472,-19.24454 6.25062,-6.21211 13.45003,-9.95438 22.28094,-11.58169 4.15844,-0.76629 12.20822,-0.51482 16.29794,0.50914 15.35809,3.84525 27.00097,15.48866 30.83636,30.83776 1.01963,4.08051 1.27299,11.82671 0.52949,16.18852 -2.89779,17.00013 -15.66547,30.2538 -32.70954,33.9546 -3.53947,0.76853 -10.78986,0.92952 -14.50737,0.32214 z m 16.09662,-13.36775 c 1.10311,-1.57491 0.50202,-3.54324 -1.27443,-4.17324 -0.56299,-0.19965 -0.60386,-1.26571 -0.60386,-15.75284 0,-13.58213 0.0652,-15.5387 0.5176,-15.5387 0.924,0 1.89785,-1.31511 1.89785,-2.56293 0,-0.8733 -0.24323,-1.374 -0.9298,-1.91405 -0.9003,-0.70818 -1.20776,-0.72813 -9.69276,-0.62891 -8.73637,0.10216 -8.76498,0.10494 -9.42212,0.91709 -0.36253,0.44804 -0.65914,1.16467 -0.65914,1.59252 0,1.03308 1.26163,2.59628 2.09542,2.59628 0.64688,0 0.66508,0.4249 0.66508,15.52324 v 15.52323 l -1.17447,0.49073 c -1.2665,0.52918 -1.76909,1.50273 -1.44414,2.79741 0.47262,1.88308 0.54925,1.89708 10.38763,1.89708 9.01248,0 9.10514,-0.007 9.63714,-0.76691 z m -6.12892,-44.03874 c 5.68775,-2.91641 5.44396,-11.22694 -0.40773,-13.89971 -0.76924,-0.35136 -2.18711,-0.63379 -3.20292,-0.63802 -4.52289,-0.0188 -7.64182,3.12076 -7.65901,7.70966 -0.0218,5.81634 6.05837,9.50018 11.26966,6.82807 z"
       id="path5116"
       transform="scale(0.75)" />
  </g>
</svg>
